<svg id="Layer_1" data-name="Layer 1" xmlns="http://www.w3.org/2000/svg" viewBox="0 0 45 45"><title>Artboard 2 copy 18</title><path d="M11.36,18.3a4.69,4.69,0,0,1-.36-.9,2.4,2.4,0,0,1,.28-1.14A2.45,2.45,0,0,1,12,15.4a2.45,2.45,0,0,1,1-.62,4,4,0,0,1,1.18-.18H20a3.12,3.12,0,0,0-.12-1A3.43,3.43,0,0,0,19.6,13a2.85,2.85,0,0,0-.34-.68,4.91,4.91,0,0,0-.46-.52,1.55,1.55,0,0,1-.62-1.22A2.33,2.33,0,0,1,18.6,9.2a1.88,1.88,0,0,1,1.3-.62A2.08,2.08,0,0,1,21.2,9a10,10,0,0,1,1,1A5,5,0,0,1,23,11.4a10.94,10.94,0,0,1,.48,1.54c.12.52.23,1.07.34,1.66h3L32,8l1.6,1.2-4.2,5.4h.4a9.94,9.94,0,0,1,1.32.08,1.26,1.26,0,0,1,.88.52,6.64,6.64,0,0,1,.56.92,2.38,2.38,0,0,1,.24,1.08,3.58,3.58,0,0,1-.18,1.14,1.7,1.7,0,0,1-.62.86,2.45,2.45,0,0,1-1,.62A4,4,0,0,1,29.8,20l-1.24-.12c-.77-.05-1.83-.08-3.16-.08l-.2.4h-.8a8.78,8.78,0,0,0-1,.06,2.48,2.48,0,0,0-1,.34l.6-.8h-.8c-2.24,0-4.09,0-5.56.08L14.4,20a3.07,3.07,0,0,1-1.18-.24,4.92,4.92,0,0,1-1-.56A2.69,2.69,0,0,1,11.36,18.3ZM19.8,34.6Q19,34,18.18,33.22A23.9,23.9,0,0,1,16.4,31.4l-4,5L11,35.2l4.4-5.6a13.53,13.53,0,0,1-1.46-3.32,14.49,14.49,0,0,1-.54-4.08c.08-.21.88-.4,2.4-.56a52.45,52.45,0,0,1,5.4-.24l-.2.2a4.07,4.07,0,0,0-1.2,3Zm13.68,1.8a1.61,1.61,0,0,1,.52-.2V24.6a.51.51,0,0,0-.08-.28l-.12-.12c-.08-.11-.15-.17-.2-.18l-.2,0H31a.51.51,0,0,0-.28.08l-.12.12a.44.44,0,0,0-.18,0,.44.44,0,0,0,0,.18v4.4a.66.66,0,0,0,.1.34.9.9,0,0,1,.1.46.93.93,0,0,1-.2,1.2l-.2-.68c-.05-.16-.12-.33-.2-.52l-.2-.46a1.68,1.68,0,0,0-.2-.34L27,24.4l-.2-.2H24a.51.51,0,0,0-.28.08l-.12.12a.44.44,0,0,0-.18,0,.44.44,0,0,0,0,.18V36.4a1,1,0,0,0,0,.2.87.87,0,0,0,.38.38l.2,0h2.4a.38.38,0,0,0,.28-.12l.12-.08c.11-.08.17-.15.18-.2a1,1,0,0,0,0-.2v-5c0-.11,0-.22,0-.34a1.19,1.19,0,0,0-.18-.46,2.67,2.67,0,0,0-.2-1.2l.2.68c.05.16.12.33.2.52l.2.46a1.68,1.68,0,0,0,.2.34l2.8,5,.2.2c.08.11.15.17.2.18l.2,0H33a.71.71,0,0,0,.4-.2A.28.28,0,0,1,33.48,36.4Z"/></svg>