<svg id="Layer_1" data-name="Layer 1" xmlns="http://www.w3.org/2000/svg" viewBox="0 0 45 45"><title>Artboard 2 copy 15</title><path d="M22.2,35.4a8.67,8.67,0,0,1-3.54-.94A7.16,7.16,0,0,1,16,32l-3.4,4.4L11,35.2,15,30a20.46,20.46,0,0,1-.56-2.4,17.37,17.37,0,0,1-.24-3,22.88,22.88,0,0,1,.2-3.6L17,23.4a2.2,2.2,0,0,0,.34.28.81.81,0,0,0,.46.12.93.93,0,0,0,.4-.12,1.5,1.5,0,0,0,.4-.28l2.8-2.8.6.6,1.6-2-1.4-1.4a1,1,0,0,0-.82-.44,1.47,1.47,0,0,0-1,.44l-2.8,2.8L15,18.2a23.56,23.56,0,0,1,3.72-7Q21,8.32,23.2,8.2A4.62,4.62,0,0,1,26,9.42,12.37,12.37,0,0,1,28.6,12.6l3.8-4.8L34,9l-4.2,5.4a23.87,23.87,0,0,1,1.08,2.52c.32.88.63,1.77.92,2.68L30,17.8a1,1,0,0,0-.82-.44,1.47,1.47,0,0,0-1,.44l-2,2a3.54,3.54,0,0,0-1.7.36,4.15,4.15,0,0,0-1.1.84,4.07,4.07,0,0,0-1.2,3ZM33.8,24.6v-.4q0-.16-.12-.18l-.28,0H26.2a.51.51,0,0,0-.28.08l-.12.12c-.11.08-.17.15-.18.2a1,1,0,0,0,0,.2v12a.38.38,0,0,0,.12.28l.08.12q0,.16.12.18l.28,0h7a.38.38,0,0,0,.28-.12L33.6,37q.16,0,.18-.12a2.16,2.16,0,0,0,0-.28V34.4a.51.51,0,0,0-.08-.28L33.6,34q0-.16-.12-.18l-.28,0H29.4V31.6h2.8a.38.38,0,0,0,.28-.12l.12-.08c.11-.08.17-.15.18-.2a1,1,0,0,0,0-.2V28.8a.51.51,0,0,0-.08-.28l-.12-.12c-.08-.11-.15-.17-.2-.18l-.2,0H29.4V26.4h4l.12,0s.08-.05.08-.16Z"/></svg>