<svg id="Layer_1" data-name="Layer 1" xmlns="http://www.w3.org/2000/svg" viewBox="0 0 45 45"><title>Artboard 2 copy 20</title><path d="M35.82,18.24A10.77,10.77,0,0,1,37.6,24.1,11.61,11.61,0,0,1,33.16,33,16.82,16.82,0,0,1,22.4,36.7a16.46,16.46,0,0,1-10.64-3.76A11.73,11.73,0,0,1,7.4,24.1,11.33,11.33,0,0,1,10,17a14.13,14.13,0,0,1,6.8-4.52,7.36,7.36,0,0,0,1.6,1.2c-.29.32-.58.65-.86,1s-.53.68-.74,1l-1.2,1.8,2.2.4a15.2,15.2,0,0,0,4.4,0l.8-.3.8-.3a15.53,15.53,0,0,0,1.92,1.54A17.24,17.24,0,0,0,27.8,20.1l2,1.2.4-2.2a10.1,10.1,0,0,0,0-2,18.6,18.6,0,0,0-.24-2,1,1,0,0,0,0-.2c0-.05-.07-.12-.18-.2.21-.11.45-.24.7-.4s.49-.29.7-.4A13.66,13.66,0,0,1,35.82,18.24ZM29.9,13l1.5-.88a9.9,9.9,0,0,0-1.06-.42,11.83,11.83,0,0,0-2.54-.58,5.33,5.33,0,0,0-2.4.6,3.91,3.91,0,0,1,.8-2.4l-1.8-1A5.33,5.33,0,0,0,23.6,10a6.32,6.32,0,0,0-.2,1.54,7.39,7.39,0,0,0-.92-.86,3,3,0,0,0-1.08-.54,17.77,17.77,0,0,0-3,0q-1.63.14-1.8.18a7.67,7.67,0,0,0,.7.82,10,10,0,0,0,1.9,1.58,2.25,2.25,0,0,0,1,.34,11.51,11.51,0,0,0,1.18.06l-.12,0a.43.43,0,0,0-.28.16,21.3,21.3,0,0,0-2,2.08L17.8,16.7a7.34,7.34,0,0,0,1.14.16,9.4,9.4,0,0,0,2.66-.16A3.22,3.22,0,0,0,23,16.06a9,9,0,0,0,1-1,1.83,1.83,0,0,0,.6,1.4,11.46,11.46,0,0,0,2.26,1.84c.92.59,1.43.91,1.54,1a5.34,5.34,0,0,0,.12-1,6.85,6.85,0,0,0-.32-2.38,3.7,3.7,0,0,0-.34-1,1.21,1.21,0,0,0-.66-.58A20.9,20.9,0,0,0,29.9,13ZM19.2,34.1a11.14,11.14,0,0,0,10.22-1.28A12.47,12.47,0,0,0,35,24.5a18.3,18.3,0,0,1-6.86,7.42A17.68,17.68,0,0,1,19.2,34.1Z"/></svg>