<svg id="Layer_1" data-name="Layer 1" xmlns="http://www.w3.org/2000/svg" viewBox="0 0 45 45"><title>Artboard 2 copy 19</title><path d="M21.8,32.3c-.61-.51-1.21-1-1.78-1.54A19.55,19.55,0,0,1,18.4,29.1l-6,7.6L11,35.5l6.2-7.8a28.31,28.31,0,0,1-3.28-5.44A27.06,27.06,0,0,1,12,16.5a18.18,18.18,0,0,1-.42-3.58c0-1.11,0-2.25,0-3.42a2.58,2.58,0,0,1,.58.06.66.66,0,0,1,.42.34,2.71,2.71,0,0,1,.4,1.2,3.92,3.92,0,0,0,1.08-.28A1.34,1.34,0,0,1,15,10.7a6.26,6.26,0,0,1,3.6,2.74,5.51,5.51,0,0,1,.6,4.26,7.66,7.66,0,0,1,2.06.64A7.2,7.2,0,0,1,23.2,19.7L32.4,8.1,34,9.3,24.8,21.1a3,3,0,0,1-.8.6l-.2.2a4.93,4.93,0,0,0-1,1.14c-.29.44-.55.86-.76,1.26a1.68,1.68,0,0,0-.2.34l-.2.46-.2.4h.2a5.06,5.06,0,0,1-.1,1,5.06,5.06,0,0,0-.1,1,7,7,0,0,0,.8,3.6.23.23,0,0,1-.1.2.23.23,0,0,0-.1.2.23.23,0,0,1-.1.2.23.23,0,0,0-.1.2ZM17.08,14.54q-1.2-2.4-2.88-1a2.89,2.89,0,0,0,.18,2.86A2.35,2.35,0,0,0,16.8,17.7C17.79,17.19,17.88,16.14,17.08,14.54Zm1.38,8.26a3.19,3.19,0,0,0,.94,1.9L22,21.5a3.57,3.57,0,0,0-1.4-.9,1.36,1.36,0,0,0-1.4.3A2.09,2.09,0,0,0,18.46,22.8Zm14.2,9.46c-.12-.21-.47-.33-1.06-.36a.93.93,0,0,0-.12-.4,1.5,1.5,0,0,0-.28-.4,2.57,2.57,0,0,0-1.4-1.4.53.53,0,0,1-.32-.12L29,29.3a.53.53,0,0,1-.32-.12l-.48-.28a5,5,0,0,1-1-.62,1,1,0,0,1-.4-.58,1.06,1.06,0,0,1,.06-.34,1.35,1.35,0,0,1,.34-.46l.24-.12a2.24,2.24,0,0,1,.56-.1.85.85,0,0,1,.6.22l.4,0a.6.6,0,0,1,.4.18l.46.2a1.68,1.68,0,0,1,.34.2l.3.2.3.2H31l.12,0c.05,0,.08-.05.08-.16l.8-2.2c.21,0,.21,0,0-.2l0,0-.16-.16c0-.08-.05-.15-.16-.2l-.44-.2a1.68,1.68,0,0,0-.34-.2l-.46-.2a1.14,1.14,0,0,1-.42-.1,1.54,1.54,0,0,0-.58-.1,2.67,2.67,0,0,0-1.2-.2,5.89,5.89,0,0,0-1.8.2,7.27,7.27,0,0,0-.78.34,2.5,2.5,0,0,0-.62.46,4.66,4.66,0,0,1-.4.58,3.83,3.83,0,0,0-.4.62,4,4,0,0,0-.28.74,3.13,3.13,0,0,0-.12.86,6.11,6.11,0,0,0,.06.86,1.37,1.37,0,0,0,.34.74l1.2,1.2a.93.93,0,0,1,.4.12,2.13,2.13,0,0,1,.4.26,1.41,1.41,0,0,0,.34.22l.46.2a2.84,2.84,0,0,1,1.2.6l.3.2.3.2.4.4a.72.72,0,0,1,.2.58,1.08,1.08,0,0,1-.4.62.66.66,0,0,0-.34.1.9.9,0,0,1-.46.1.66.66,0,0,1-.34-.1.9.9,0,0,0-.46-.1l-.34,0a1.19,1.19,0,0,1-.46-.18,1.68,1.68,0,0,0-.34-.2l-.46-.2a.93.93,0,0,1-.4-.12,1.5,1.5,0,0,1-.4-.28c0-.21-.16-.21-.4,0L24,35.3v.2l0,0,.16.16a1.68,1.68,0,0,0,.34.2l.48.2a4.69,4.69,0,0,0,.6.2,4,4,0,0,1,.58.2,1.87,1.87,0,0,1,.62.1,1.73,1.73,0,0,0,.58.1,1.17,1.17,0,0,0,.5.18l.5,0a5.45,5.45,0,0,0,1.8-.4,7.27,7.27,0,0,0,.78-.34,2.5,2.5,0,0,0,.62-.46,2.49,2.49,0,0,1,.4-.52,1.91,1.91,0,0,0,.4-.68,4,4,0,0,0,.28-.74,3.13,3.13,0,0,0,.12-.86A1,1,0,0,0,32.66,32.26Z"/></svg>