<svg id="Layer_1" data-name="Layer 1" xmlns="http://www.w3.org/2000/svg" viewBox="0 0 45 45"><title>Artboard 2 copy 17</title><path d="M28.39,20.8a.4.4,0,0,0,.1.3,4.89,4.89,0,0,1,.1,1.5H28l-.64-.24a1,1,0,0,0-1,.24A2.84,2.84,0,0,1,26,23c-.11.07-.16.14-.16.22V23H20a.93.93,0,0,1-.12.4,1.5,1.5,0,0,1-.28.4c.51.11,1.05.2,1.62.28A12.87,12.87,0,0,0,23,24.2a10.23,10.23,0,0,0,1.12,0l1.68-.36v2a11.19,11.19,0,0,0-1.7.28,3.61,3.61,0,0,1-1.1.12q-1,0-2-.06a7.41,7.41,0,0,1-1.82-.34v1.8c.69.11,1.4.2,2.12.28a20.67,20.67,0,0,0,2.28.12,1.28,1.28,0,0,0,.66-.12,6.31,6.31,0,0,1,1.54-.28v2.2a4.07,4.07,0,0,0-.9.1,4.07,4.07,0,0,1-.9.1,10.93,10.93,0,0,1-2.06,0A18.69,18.69,0,0,1,20,29.8a10.36,10.36,0,0,0,.62,1.14,3.12,3.12,0,0,0,.78.86h3.4a2.27,2.27,0,0,0,1-1V34l0,.12a.43.43,0,0,1-.16.28l-.5.3-.5.3-.8,1.8-.6.2-.6-.2L22,35l-.86-.34a2.64,2.64,0,0,1-.74-.46,6.79,6.79,0,0,1-3-3.6,7.06,7.06,0,0,1-.46-1.32c-.12-.48-.23-1-.34-1.48a10.85,10.85,0,0,1-4.12,2.78,13.53,13.53,0,0,1-3.68.82H8l-.2-.8a15.55,15.55,0,0,1-.6-4.4A12.59,12.59,0,0,1,9,19.6,10.18,10.18,0,0,1,11.25,17a8.24,8.24,0,0,1,3.14-1.58c.51-.11,1.09-.2,1.74-.28A16.92,16.92,0,0,1,18.19,15v2a10.89,10.89,0,0,0-1.66.12c-.52.08-1,.17-1.54.28a7.15,7.15,0,0,0-2.56,1.32,8.73,8.73,0,0,0-1.84,2.08,10,10,0,0,0-1.4,5.4c0,.51,0,1,.06,1.48A3.78,3.78,0,0,0,9.59,29a9.84,9.84,0,0,0,2.72-.72,8.26,8.26,0,0,0,2.88-2.08c.29-.4.58-.81.86-1.22a7.52,7.52,0,0,0,.74-1.38,10.47,10.47,0,0,0,.6-1.6l.28-.8a2.53,2.53,0,0,0,.12-.8.62.62,0,0,1-.18-.42c0-.17,0-.37,0-.58a3.65,3.65,0,0,1,.32-1.48A3.47,3.47,0,0,1,19,16.6a1.65,1.65,0,0,1-.18-.7c0-.25,0-.49,0-.7a4.06,4.06,0,0,1,.6-2.2l-.6-3-2.2-1,.6-1,2,1.2L21,11.6a3.71,3.71,0,0,1,.82-.28,4.17,4.17,0,0,1,1-.12,5.45,5.45,0,0,1,1.8.4l1.8-2.2,2.2-1.2.6.8L27,9.8l-.6,2.8A12.12,12.12,0,0,1,27,13.82a3.77,3.77,0,0,1,.24,1.38,2.87,2.87,0,0,1-.1.8,2.87,2.87,0,0,0-.1.8,5.93,5.93,0,0,1,1,1.34,3.4,3.4,0,0,1,.4,1.66ZM25.59,23v0Zm2.2-8.2a11.69,11.69,0,0,1,3.8.6,9.43,9.43,0,0,1,3.34,1.86A11.08,11.08,0,0,1,37.19,20a1.83,1.83,0,0,1,.46.82,3.74,3.74,0,0,1,.14,1c-.11-.05-.2,0-.28.24l-.12.36h-1.8c-.11,0-.16-.23-.16-.52l0-.48a9.94,9.94,0,0,0-1.74-2.46A6.55,6.55,0,0,0,31,17.2c-.51-.11-1-.2-1.54-.28a10.89,10.89,0,0,0-1.66-.12Zm10,10.4c0-.16,0-.23,0-.22s-.06,0-.22,0h-2.8c-.16,0-.23,0-.22,0s0,.06,0,.22v4.2h-2.4V25.2c0-.16,0-.23,0-.22s-.06,0-.22,0h-2.8C29,25,29,25,29,25s0,.06,0,.22V36.4c0,.16,0,.23,0,.22s.06,0,.22,0h3V32h2.4v4.4c0,.16,0,.23,0,.22s.06,0,.22,0h3Z"/></svg>