<svg id="Layer_1" data-name="Layer 1" xmlns="http://www.w3.org/2000/svg" viewBox="0 0 45 45"><title>Artboard 2 copy 12</title><path d="M18.26,36.44a1.19,1.19,0,0,0,.18.46,35.77,35.77,0,0,1-5.12-.48c-.8-.19-1.16-.29-1.08-.32.08-.4,1.09-1,3-1.74s3.06-1.18,3.36-1.26V25.9a14.18,14.18,0,0,1-4.5-2.82,10.84,10.84,0,0,1-3.3-6.58,8,8,0,0,1,0-2.26,16.31,16.31,0,0,1,2-6.14h13.8a17.31,17.31,0,0,1,2.24,6.42,7.12,7.12,0,0,1,0,2.38c-.11.51-.22,1-.34,1.38A9.51,9.51,0,0,1,28,19.5h-1.4a4.24,4.24,0,0,0-3.2,1.2,3,3,0,0,0-1.2,1.8l-1,3.2-.12,0a.41.41,0,0,0-.28.16v1.2l-2.4,7.8a1.83,1.83,0,0,1-.1.46,2.28,2.28,0,0,0-.1.74A2,2,0,0,0,18.26,36.44ZM26.84,16.9c.08,0,.12-.57.12-1.72a12.56,12.56,0,0,0-1.52-4.88H14a12.38,12.38,0,0,0-1.52,4.88c0,1.15,0,1.72.12,1.72Q19.6,17.19,26.84,16.9Zm7.24,19.48.16-.68-4-12.4-.2-.2h-3.2a.51.51,0,0,0-.28.08l-.12.12-.08,0c-.08,0-.12.05-.12.16l-4,12.4c-.11.08-.17.15-.18.2a.68.68,0,0,0,0,.22c0,.09,0,.15.12.16l.28,0h3.2l.12,0s.08-.05.08-.16l.6-2.6H29l.6,2.8.2.2h3.8l.28,0q.12,0,.12-.18S34.05,36.49,34.08,36.38ZM28.64,31.1H27l-.4-2,0-.12a.43.43,0,0,1,.16-.28.84.84,0,0,0,.2-.6.84.84,0,0,0,.2-.6.84.84,0,0,0,.2-.6.16.16,0,0,1,.18.12,2.16,2.16,0,0,1,0,.28.47.47,0,0,0,.1.3.54.54,0,0,1,.1.3.47.47,0,0,0,.1.3.54.54,0,0,1,.1.3.16.16,0,0,1,.18.12,2.16,2.16,0,0,1,0,.28Z"/></svg>