<?xml version="1.0" encoding="utf-8"?>
<!-- Generator: Adobe Illustrator 19.2.1, SVG Export Plug-In . SVG Version: 6.00 Build 0)  -->
<svg version="1.0" id="Layer_1" xmlns="http://www.w3.org/2000/svg" xmlns:xlink="http://www.w3.org/1999/xlink" x="0px" y="0px"
	 viewBox="0 0 150 150" style="enable-background:new 0 0 150 150;" xml:space="preserve">
<style type="text/css">
	.st0{fill:none;stroke:#3F3E3E;stroke-width:3;stroke-linecap:round;stroke-linejoin:round;stroke-miterlimit:10;}
	.st1{fill:#3F3E3E;}
	.st2{fill:#FFFFFF;}
	.st3{fill:#3F3D3E;}
	.st4{fill:#FFD83D;}
	.st5{fill:none;stroke:#3F3E3E;stroke-width:3;stroke-linecap:round;stroke-linejoin:round;}
	.st6{fill:none;stroke:#3F3E3E;stroke-width:3;stroke-linecap:round;stroke-linejoin:round;stroke-dasharray:6.7627,6.7627;}
	.st7{fill:none;stroke:#3F3E3E;stroke-width:3;stroke-linecap:round;stroke-linejoin:round;stroke-dasharray:4.828,9.6561;}
	.st8{fill:#FFFFFF;stroke:#3F3E3E;stroke-width:3;stroke-linecap:round;stroke-linejoin:round;stroke-miterlimit:10;}
	.st9{fill:none;stroke:#37383A;stroke-width:3;stroke-linecap:round;stroke-linejoin:round;stroke-miterlimit:10;}
	.st10{fill:none;stroke:#3F3E3E;stroke-width:3;stroke-linecap:round;stroke-linejoin:round;stroke-dasharray:7.2824,7.2824;}
</style>
<g>
	<polyline class="st0" points="10.1,117.6 10.1,23.3 120.8,23.3 120.8,117.6 	"/>
	<path class="st0" d="M130.6,125.8H26.1l-8-0.2c-4.4,0-8-3.6-8-8"/>
	<polyline class="st0" points="127.7,40 133.4,40 133.4,115.9 	"/>
	<polyline class="st0" points="136.4,43.2 140.3,43.2 140.3,117.6 	"/>
	<path class="st0" d="M140.3,117.7c0,4.4-4.4,8-9.8,8c-5.4,0-9.8-3.6-9.8-8"/>
	<path class="st0" d="M133.4,115.9c0,1.9-1.3,3.4-2.9,3.4s-2.9-1.5-2.9-3.4"/>
	<polyline class="st0" points="123.8,26.5 127.7,26.5 127.7,115.9 	"/>
	<rect x="20.9" y="35.3" class="st0" width="32.8" height="26.6"/>
	<line class="st0" x1="62.9" y1="35.3" x2="109.9" y2="35.3"/>
	<line class="st0" x1="62.9" y1="44.1" x2="109.9" y2="44.1"/>
	<line class="st0" x1="62.9" y1="53" x2="109.9" y2="53"/>
	<line class="st0" x1="62.9" y1="61.8" x2="109.9" y2="61.8"/>
	<line class="st0" x1="20.9" y1="70.5" x2="109.9" y2="70.5"/>
	<line class="st0" x1="20.9" y1="82.2" x2="47.7" y2="82.2"/>
	<line class="st0" x1="20.9" y1="91" x2="47.7" y2="91"/>
	<line class="st0" x1="20.9" y1="99.9" x2="47.7" y2="99.9"/>
	<line class="st0" x1="20.9" y1="108.7" x2="47.7" y2="108.7"/>
	<line class="st0" x1="59" y1="82.2" x2="84.8" y2="82.2"/>
	<line class="st0" x1="59" y1="91" x2="84.8" y2="91"/>
	<line class="st0" x1="59" y1="99.9" x2="84.8" y2="99.9"/>
	<line class="st0" x1="59" y1="108.7" x2="84.8" y2="108.7"/>
	<rect x="96.9" y="82.2" class="st0" width="13" height="26.6"/>
</g>
</svg>
