<?xml version="1.0" encoding="utf-8"?>
<!-- Generator: Adobe Illustrator 19.2.1, SVG Export Plug-In . SVG Version: 6.00 Build 0)  -->
<svg version="1.0" id="Layer_1" xmlns="http://www.w3.org/2000/svg" xmlns:xlink="http://www.w3.org/1999/xlink" x="0px" y="0px"
	 viewBox="0 0 150 150" style="enable-background:new 0 0 150 150;" xml:space="preserve">
<style type="text/css">
	.st0{fill:none;stroke:#3F3E3E;stroke-width:3;stroke-linecap:round;stroke-linejoin:round;stroke-miterlimit:10;}
	.st1{fill:#3F3E3E;}
	.st2{fill:#FFFFFF;}
	.st3{fill:#3F3D3E;}
	.st4{fill:#FFD83D;}
	.st5{fill:none;stroke:#3F3E3E;stroke-width:3;stroke-linecap:round;stroke-linejoin:round;}
	.st6{fill:none;stroke:#3F3E3E;stroke-width:3;stroke-linecap:round;stroke-linejoin:round;stroke-dasharray:6.7627,6.7627;}
	.st7{fill:none;stroke:#3F3E3E;stroke-width:3;stroke-linecap:round;stroke-linejoin:round;stroke-dasharray:4.828,9.6561;}
	.st8{fill:#FFFFFF;stroke:#3F3E3E;stroke-width:3;stroke-linecap:round;stroke-linejoin:round;stroke-miterlimit:10;}
	.st9{fill:none;stroke:#37383A;stroke-width:3;stroke-linecap:round;stroke-linejoin:round;stroke-miterlimit:10;}
	.st10{fill:none;stroke:#3F3E3E;stroke-width:3;stroke-linecap:round;stroke-linejoin:round;stroke-dasharray:7.2824,7.2824;}
</style>
<g>
	<circle class="st0" cx="65.1" cy="69.6" r="50.9"/>
	<polygon class="st0" points="93.9,130.8 102.2,126.7 107.4,134.2 116.7,98 103.2,94.5 	"/>
	<polygon class="st0" points="140,130.8 131.8,126.7 126.5,134.2 117.2,98 130.7,94.5 	"/>
	<circle class="st0" cx="65.1" cy="69.6" r="37.1"/>
	<g>
		<polygon class="st1" points="142.3,81.8 135.7,86.9 138.9,94.6 130.5,95.7 129.5,104 121.7,100.8 116.6,107.5 111.5,100.8 
			103.7,104 102.7,95.7 94.3,94.6 97.6,86.9 90.9,81.8 97.6,76.7 94.3,68.9 102.7,67.8 103.7,59.5 111.5,62.7 116.6,56 121.7,62.7 
			129.5,59.5 130.5,67.8 138.9,68.9 135.7,76.7 		"/>
		<polygon class="st0" points="142.3,81.8 135.7,86.9 138.9,94.6 130.5,95.7 129.5,104 121.7,100.8 116.6,107.5 111.5,100.8 
			103.7,104 102.7,95.7 94.3,94.6 97.6,86.9 90.9,81.8 97.6,76.7 94.3,68.9 102.7,67.8 103.7,59.5 111.5,62.7 116.6,56 121.7,62.7 
			129.5,59.5 130.5,67.8 138.9,68.9 135.7,76.7 		"/>
	</g>
	<g>
		<path class="st2" d="M112.9,79.3h-2.4v-7.2l-2.4,1.2v-2.2l3.2-1.9h1.6V79.3z"/>
		<path class="st2" d="M123.4,74.3c0,3.1-1.8,5.3-4.4,5.3s-4.4-2.1-4.4-5.3c0-3.1,1.8-5.3,4.4-5.3S123.4,71.2,123.4,74.3z
			 M120.9,74.3c0-1.9-0.8-3.1-2-3.1c-1.2,0-1.9,1.2-1.9,3.1c0,1.9,0.8,3.1,1.9,3.1C120.1,77.4,120.9,76.2,120.9,74.3z"/>
		<path class="st2" d="M118.1,87.3V92h-2.4v-4.2c0-0.9-0.6-1.4-1.3-1.4c-0.9,0-1.5,0.6-1.5,1.9V92h-2.4v-4.2c0-0.9-0.6-1.4-1.3-1.4
			c-0.9,0-1.4,0.6-1.4,1.9V92h-2.4v-7.5h2.4v0.7c0.5-0.6,1.2-0.9,2.2-0.9c1.1,0,2,0.5,2.5,1.3c0.6-0.8,1.5-1.3,2.7-1.3
			C116.8,84.2,118.1,85.4,118.1,87.3z"/>
		<path class="st2" d="M122.5,82.2c0,0.8-0.6,1.3-1.4,1.3s-1.4-0.6-1.4-1.3c0-0.7,0.6-1.4,1.4-1.4S122.5,81.5,122.5,82.2z M119.9,92
			v-7.5h2.4V92H119.9z"/>
		<path class="st2" d="M124.2,92V81.2h2.4V92H124.2z"/>
	</g>
	<g>
		<path class="st8" d="M66.6,69.7c-4.3-3.7-11.9-1.9-17,4.1c-4.5,5.3-5.4,11.9-2.6,16l-31.8,35.9l4.3,3.6l30.4-37
			c4.4,2.2,10.9,0.2,15.4-5.1C70.4,81.1,71,73.4,66.6,69.7z"/>
		<path class="st8" d="M60.3,72.6c-2.4,0.7-4.8,2.2-6.7,4.5c-1.4,1.6-2.4,3.4-2.9,5.2"/>
	</g>
</g>
</svg>
