<?xml version="1.0" encoding="utf-8"?>
<!-- Generator: Adobe Illustrator 19.2.1, SVG Export Plug-In . SVG Version: 6.00 Build 0)  -->
<svg version="1.0" id="Layer_1" xmlns="http://www.w3.org/2000/svg" xmlns:xlink="http://www.w3.org/1999/xlink" x="0px" y="0px"
	 viewBox="0 0 150 150" style="enable-background:new 0 0 150 150;" xml:space="preserve">
<style type="text/css">
	.st0{fill:none;stroke:#3F3E3E;stroke-width:3;stroke-linecap:round;stroke-linejoin:round;stroke-miterlimit:10;}
	.st1{fill:#3F3E3E;}
	.st2{fill:#FFFFFF;}
	.st3{fill:#3F3D3E;}
	.st4{fill:#FFD83D;}
	.st5{fill:none;stroke:#3F3E3E;stroke-width:3;stroke-linecap:round;stroke-linejoin:round;}
	.st6{fill:none;stroke:#3F3E3E;stroke-width:3;stroke-linecap:round;stroke-linejoin:round;stroke-dasharray:6.7627,6.7627;}
	.st7{fill:none;stroke:#3F3E3E;stroke-width:3;stroke-linecap:round;stroke-linejoin:round;stroke-dasharray:4.828,9.6561;}
	.st8{fill:#FFFFFF;stroke:#3F3E3E;stroke-width:3;stroke-linecap:round;stroke-linejoin:round;stroke-miterlimit:10;}
	.st9{fill:none;stroke:#37383A;stroke-width:3;stroke-linecap:round;stroke-linejoin:round;stroke-miterlimit:10;}
	.st10{fill:none;stroke:#3F3E3E;stroke-width:3;stroke-linecap:round;stroke-linejoin:round;stroke-dasharray:7.2824,7.2824;}
</style>
<g>
	<path class="st0" d="M42.5,50.2c0-1.8,1.5-3.3,3.3-3.3c1.8,0,3.3,1.5,3.3,3.3s-1.5,3.3-3.3,3.3v2.7"/>
	<circle class="st0" cx="45.9" cy="60.6" r="0.5"/>
	<path class="st0" d="M134,108.3H16.6V35.4c0-4.6,3.8-8.4,8.4-8.4h100.6c4.6,0,8.4,3.8,8.4,8.4V108.3z"/>
	<path class="st0" d="M129.6,104.3H21V38.8c0-5.4,1.8-7.5,7.8-7.5h93.1c5.7,0,7.8,2.7,7.8,7.5V104.3z"/>
	<path class="st0" d="M146.8,108.3H3.8v1.3c0,4,3.2,7.2,7.2,7.2h128.6c4,0,7.2-3.2,7.2-7.2V108.3z"/>
	<path class="st0" d="M79,113.3h-7.3c-2.8,0-5-2.3-5-5h17.3C84.1,111,81.8,113.3,79,113.3z"/>
	<rect x="29.2" y="42" class="st0" width="35.2" height="25.2"/>
	<polyline class="st0" points="64.3,48.4 112.5,48.4 112.5,97.9 52.1,97.9 52.1,67.2 	"/>
	<g>
		<g>
			<path class="st5" d="M39.1,67.2c0,0-0.6,1.6-1,3.9"/>
			<path class="st10" d="M38.4,78.3c0.8,3,2.7,6.1,6.6,8.4"/>
			<path class="st5" d="M48.3,88.2c1.2,0.4,2.4,0.8,3.8,1.1"/>
		</g>
	</g>
	<line class="st0" x1="69.9" y1="67.2" x2="106.1" y2="67.2"/>
	<line class="st0" x1="69.9" y1="75.3" x2="106.1" y2="75.3"/>
	<line class="st0" x1="69.9" y1="83.4" x2="106.1" y2="83.4"/>
	<line class="st0" x1="69.9" y1="91.5" x2="106.1" y2="91.5"/>
	<rect x="69.9" y="53.6" class="st0" width="36.3" height="6.9"/>
	<line class="st0" x1="69.9" y1="60.5" x2="75.9" y2="54.4"/>
	<line class="st0" x1="75.9" y1="60.5" x2="81.9" y2="54.4"/>
	<line class="st0" x1="81.8" y1="60.5" x2="87.9" y2="54.4"/>
	<line class="st0" x1="87.8" y1="60.5" x2="93.9" y2="54.4"/>
	<line class="st0" x1="93.8" y1="60.5" x2="99.9" y2="54.4"/>
	<line class="st0" x1="99.8" y1="60.5" x2="105.9" y2="54.4"/>
	<circle class="st0" cx="61.9" cy="72.7" r="2.5"/>
	<circle class="st0" cx="61.9" cy="81.2" r="2.5"/>
	<circle class="st0" cx="61.9" cy="89.6" r="2.5"/>
</g>
</svg>
