<?xml version="1.0" encoding="utf-8"?>
<!-- Generator: Adobe Illustrator 19.2.1, SVG Export Plug-In . SVG Version: 6.00 Build 0)  -->
<svg version="1.0" id="Layer_1" xmlns="http://www.w3.org/2000/svg" xmlns:xlink="http://www.w3.org/1999/xlink" x="0px" y="0px"
	 viewBox="0 0 150 150" style="enable-background:new 0 0 150 150;" xml:space="preserve">
<style type="text/css">
	.st0{fill:none;stroke:#3F3E3E;stroke-width:3;stroke-linecap:round;stroke-linejoin:round;stroke-miterlimit:10;}
	.st1{fill:#3F3E3E;}
	.st2{fill:#FFFFFF;}
	.st3{fill:#3F3D3E;}
	.st4{fill:#FFD83D;}
	.st5{fill:none;stroke:#3F3E3E;stroke-width:3;stroke-linecap:round;stroke-linejoin:round;}
	.st6{fill:none;stroke:#3F3E3E;stroke-width:3;stroke-linecap:round;stroke-linejoin:round;stroke-dasharray:6.7627,6.7627;}
	.st7{fill:none;stroke:#3F3E3E;stroke-width:3;stroke-linecap:round;stroke-linejoin:round;stroke-dasharray:4.828,9.6561;}
	.st8{fill:#FFFFFF;stroke:#3F3E3E;stroke-width:3;stroke-linecap:round;stroke-linejoin:round;stroke-miterlimit:10;}
	.st9{fill:none;stroke:#37383A;stroke-width:3;stroke-linecap:round;stroke-linejoin:round;stroke-miterlimit:10;}
	.st10{fill:none;stroke:#3F3E3E;stroke-width:3;stroke-linecap:round;stroke-linejoin:round;stroke-dasharray:7.2824,7.2824;}
</style>
<g>
	<polygon class="st9" points="121.6,78.3 30.3,78.3 16.7,46.8 135.3,46.8 	"/>
	<path class="st9" d="M136.7,46.8H15.5c-0.7,0-1.3-0.6-1.3-1.3l0-1.2c0-0.7,0.6-1.3,1.3-1.3h121.2c0.7,0,1.3,0.6,1.3,1.3v1.2
		C138,46.2,137.4,46.8,136.7,46.8z"/>
	<line class="st9" x1="27.1" y1="52.2" x2="36.7" y2="74"/>
	<line class="st9" x1="35.8" y1="52.2" x2="43.9" y2="74"/>
	<line class="st9" x1="43.9" y1="52.2" x2="50.7" y2="74"/>
	<line class="st9" x1="51.8" y1="52.2" x2="57.2" y2="74"/>
	<line class="st9" x1="60" y1="52.2" x2="64.1" y2="74"/>
	<line class="st9" x1="68.3" y1="52.2" x2="70.2" y2="74"/>
	<line class="st9" x1="116.8" y1="52.2" x2="108.6" y2="74"/>
	<line class="st9" x1="100.8" y1="52.2" x2="95.3" y2="74"/>
	<line class="st9" x1="84.3" y1="52.2" x2="82.4" y2="74"/>
	<line class="st9" x1="124.8" y1="52.2" x2="115.2" y2="74"/>
	<line class="st9" x1="109.3" y1="52.2" x2="102.5" y2="74"/>
	<line class="st9" x1="93.2" y1="52.2" x2="89.2" y2="74"/>
	<line class="st9" x1="76" y1="52.2" x2="76" y2="74"/>
	<rect x="69.2" y="102.4" class="st9" width="15.9" height="17.5"/>
	<polygon class="st9" points="132.5,125.4 120,125.4 106.2,111.8 90.5,111.8 86.4,114.5 67.8,114.5 63.7,111.8 48.7,111.8 
		33.7,125.4 20.6,125.4 21.9,60.3 129.8,60.3 	"/>
	<path class="st9" d="M81.2,91.2c-1.7-3-5.6-6.4-5.6-6.4s1,4.1,0.8,6c-0.3,2.2-3.7,2.5-3.7,5.5c0,2.4,1.9,4.3,4.3,4.3
		c2.1,0,4.2-1,4.9-2.7C82.6,96.1,82.7,93.8,81.2,91.2z"/>
	<line class="st9" x1="69.2" y1="106.8" x2="85.1" y2="106.8"/>
	<line class="st9" x1="21.9" y1="65.4" x2="130" y2="65.4"/>
	<path class="st9" d="M25.6,42.9h-5L10.3,21c-0.7-1.5,0.4-3.2,2.1-3.2h0c0.9,0,1.7,0.5,2.1,1.3L25.6,42.9z"/>
</g>
</svg>
