<?xml version="1.0" encoding="utf-8"?>
<!-- Generator: Adobe Illustrator 19.2.1, SVG Export Plug-In . SVG Version: 6.00 Build 0)  -->
<svg version="1.0" id="Layer_1" xmlns="http://www.w3.org/2000/svg" xmlns:xlink="http://www.w3.org/1999/xlink" x="0px" y="0px"
	 viewBox="0 0 150 150" style="enable-background:new 0 0 150 150;" xml:space="preserve">
<style type="text/css">
	.st0{fill:none;stroke:#3F3E3E;stroke-width:3;stroke-linecap:round;stroke-linejoin:round;stroke-miterlimit:10;}
	.st1{fill:#3F3E3E;}
	.st2{fill:#FFFFFF;}
	.st3{fill:#3F3D3E;}
	.st4{fill:#FFD83D;}
	.st5{fill:none;stroke:#3F3E3E;stroke-width:3;stroke-linecap:round;stroke-linejoin:round;}
	.st6{fill:none;stroke:#3F3E3E;stroke-width:3;stroke-linecap:round;stroke-linejoin:round;stroke-dasharray:6.7627,6.7627;}
	.st7{fill:none;stroke:#3F3E3E;stroke-width:3;stroke-linecap:round;stroke-linejoin:round;stroke-dasharray:4.828,9.6561;}
	.st8{fill:#FFFFFF;stroke:#3F3E3E;stroke-width:3;stroke-linecap:round;stroke-linejoin:round;stroke-miterlimit:10;}
	.st9{fill:none;stroke:#37383A;stroke-width:3;stroke-linecap:round;stroke-linejoin:round;stroke-miterlimit:10;}
	.st10{fill:none;stroke:#3F3E3E;stroke-width:3;stroke-linecap:round;stroke-linejoin:round;stroke-dasharray:7.2824,7.2824;}
</style>
<g>
	<path class="st0" d="M106.4,70v54.6c0,4.4-3.6,7.9-7.9,7.9H50.9c-4.4,0-7.9-3.6-7.9-7.9V91.7"/>
	<path class="st0" d="M42.9,63.4V27.9c0-4.4,3.6-7.9,7.9-7.9h47.7c4.4,0,7.9,3.6,7.9,7.9v12.2"/>
	<polyline class="st0" points="100.6,70.4 100.6,114.6 48.8,114.6 48.8,94 	"/>
	<polyline class="st0" points="48.8,70 48.8,34.2 100.6,34.2 100.6,47.5 	"/>
	<line class="st0" x1="61.8" y1="27.1" x2="87.5" y2="27.1"/>
	<circle class="st0" cx="74.7" cy="124" r="3.6"/>
	<path class="st0" d="M27.8,58.7c12.7,0,22.9,8.4,22.9,18.9c0,2.8-0.7,5.4-2,7.7l6.5,11.1l-12.3-4.7c-4,2.9-9.3,4.7-15.1,4.7
		C15.2,96.4,4.9,88,4.9,77.6S15.2,58.7,27.8,58.7z"/>
	<path class="st0" d="M23.3,73.1c0-2.4,2-4.4,4.4-4.4s4.4,2,4.4,4.4c0,2.4-2,4.4-4.4,4.4V81"/>
	<circle class="st0" cx="27.8" cy="86.9" r="0.6"/>
	<path class="st0" d="M122.2,34.9c-12.7,0-22.9,8.4-22.9,18.9c0,2.8,0.7,5.4,2,7.7l-6.5,11.1l12.3-4.7c4,2.9,9.3,4.7,15.1,4.7
		c12.7,0,22.9-8.4,22.9-18.9S134.8,34.9,122.2,34.9z"/>
	<g>
		<circle class="st0" cx="114.5" cy="54.4" r="0.5"/>
		<circle class="st0" cx="123.1" cy="54.4" r="0.5"/>
		<circle class="st0" cx="131.8" cy="54.4" r="0.5"/>
	</g>
	<polygon class="st0" points="94.8,59.3 54.7,59.3 60.3,54.7 60.3,44.5 94.8,44.5 	"/>
	<polygon class="st0" points="94.8,104 54.7,104 60.3,99.4 60.3,89.1 94.8,89.1 	"/>
	<polygon class="st0" points="54.7,81.8 94.8,81.8 89.1,77.2 89.1,67 54.7,67 	"/>
	<line class="st0" x1="65.8" y1="49.8" x2="89.1" y2="49.8"/>
	<line class="st0" x1="65.8" y1="54.1" x2="85.4" y2="54.1"/>
	<line class="st0" x1="65.8" y1="94.4" x2="89.1" y2="94.4"/>
	<line class="st0" x1="65.8" y1="98.7" x2="77.5" y2="98.7"/>
	<line class="st0" x1="60.2" y1="72.1" x2="83.5" y2="72.1"/>
	<line class="st0" x1="60.2" y1="76.4" x2="68.3" y2="76.4"/>
</g>
</svg>
