<?xml version="1.0" encoding="utf-8"?>
<!-- Generator: Adobe Illustrator 19.2.1, SVG Export Plug-In . SVG Version: 6.00 Build 0)  -->
<svg version="1.0" id="Layer_1" xmlns="http://www.w3.org/2000/svg" xmlns:xlink="http://www.w3.org/1999/xlink" x="0px" y="0px"
	 viewBox="0 0 150 150" style="enable-background:new 0 0 150 150;" xml:space="preserve">
<style type="text/css">
	.st0{fill:none;stroke:#3F3E3E;stroke-width:3;stroke-linecap:round;stroke-linejoin:round;stroke-miterlimit:10;}
	.st1{fill:#3F3E3E;}
	.st2{fill:#FFFFFF;}
	.st3{fill:#3F3D3E;}
	.st4{fill:#FFD83D;}
	.st5{fill:none;stroke:#3F3E3E;stroke-width:3;stroke-linecap:round;stroke-linejoin:round;}
	.st6{fill:none;stroke:#3F3E3E;stroke-width:3;stroke-linecap:round;stroke-linejoin:round;stroke-dasharray:6.7627,6.7627;}
	.st7{fill:none;stroke:#3F3E3E;stroke-width:3;stroke-linecap:round;stroke-linejoin:round;stroke-dasharray:4.828,9.6561;}
	.st8{fill:#FFFFFF;stroke:#3F3E3E;stroke-width:3;stroke-linecap:round;stroke-linejoin:round;stroke-miterlimit:10;}
	.st9{fill:none;stroke:#37383A;stroke-width:3;stroke-linecap:round;stroke-linejoin:round;stroke-miterlimit:10;}
	.st10{fill:none;stroke:#3F3E3E;stroke-width:3;stroke-linecap:round;stroke-linejoin:round;stroke-dasharray:7.2824,7.2824;}
</style>
<g>
	<polyline class="st0" points="105.3,58.4 105.3,14.1 8,14.1 8,92.4 59,92.4 	"/>
	<circle class="st0" cx="17.6" cy="22.5" r="3"/>
	<circle class="st0" cx="95.8" cy="22.5" r="3"/>
	<line class="st0" x1="23" y1="45.1" x2="23" y2="88.1"/>
	<line class="st0" x1="36.1" y1="45.1" x2="36.1" y2="88.1"/>
	<line class="st0" x1="49.3" y1="45.1" x2="49.3" y2="88.1"/>
	<line class="st0" x1="62.4" y1="45.1" x2="62.4" y2="79.2"/>
	<line class="st0" x1="75.6" y1="45.1" x2="75.6" y2="64.9"/>
	<line class="st0" x1="88.8" y1="45.7" x2="88.8" y2="59.3"/>
	<line class="st0" x1="14.6" y1="54.7" x2="98.8" y2="54.7"/>
	<line class="st0" x1="14.6" y1="66.9" x2="73.2" y2="66.9"/>
	<line class="st0" x1="14.6" y1="79.2" x2="61.8" y2="79.2"/>
	<rect x="14.6" y="31.6" class="st0" width="84.2" height="8.1"/>
	<g>
		<circle class="st0" cx="100.6" cy="100.8" r="35.2"/>
		<circle class="st0" cx="100.6" cy="100.5" r="42.1"/>
		<path class="st0" d="M100.5,85.6l-2.8,14.8c0,1.2,0.8,2.8,2.8,2.8c2.1,0,2.8-1.6,2.8-2.8L100.5,85.6z"/>
		<path class="st0" d="M97.7,97.9l-18.5,2.6l21.3,2.8c2.3,0,2.8-1.6,2.8-2.8"/>
		<line class="st0" x1="69.5" y1="100.6" x2="73" y2="100.6"/>
		<line class="st0" x1="127.6" y1="100.6" x2="131.2" y2="100.6"/>
		<line class="st0" x1="100.7" y1="131.4" x2="100.7" y2="127.8"/>
		<line class="st0" x1="100.7" y1="73.6" x2="100.7" y2="70.1"/>
		<line class="st0" x1="78.9" y1="122.4" x2="81.4" y2="119.8"/>
		<line class="st0" x1="119.9" y1="81.3" x2="122.5" y2="78.8"/>
		<line class="st0" x1="122.5" y1="122.4" x2="119.9" y2="119.8"/>
		<line class="st0" x1="81.4" y1="81.3" x2="78.9" y2="78.8"/>
	</g>
</g>
</svg>
