<?xml version="1.0" encoding="utf-8"?>
<!-- Generator: Adobe Illustrator 19.2.1, SVG Export Plug-In . SVG Version: 6.00 Build 0)  -->
<svg version="1.0" id="Layer_1" xmlns="http://www.w3.org/2000/svg" xmlns:xlink="http://www.w3.org/1999/xlink" x="0px" y="0px"
	 viewBox="0 0 150 150" style="enable-background:new 0 0 150 150;" xml:space="preserve">
<style type="text/css">
	.st0{fill:none;stroke:#3F3E3E;stroke-width:3;stroke-linecap:round;stroke-linejoin:round;stroke-miterlimit:10;}
	.st1{fill:#3F3E3E;}
	.st2{fill:#FFFFFF;}
	.st3{fill:#3F3D3E;}
	.st4{fill:#FFD83D;}
	.st5{fill:none;stroke:#3F3E3E;stroke-width:3;stroke-linecap:round;stroke-linejoin:round;}
	.st6{fill:none;stroke:#3F3E3E;stroke-width:3;stroke-linecap:round;stroke-linejoin:round;stroke-dasharray:6.7627,6.7627;}
	.st7{fill:none;stroke:#3F3E3E;stroke-width:3;stroke-linecap:round;stroke-linejoin:round;stroke-dasharray:4.828,9.6561;}
	.st8{fill:#FFFFFF;stroke:#3F3E3E;stroke-width:3;stroke-linecap:round;stroke-linejoin:round;stroke-miterlimit:10;}
	.st9{fill:none;stroke:#37383A;stroke-width:3;stroke-linecap:round;stroke-linejoin:round;stroke-miterlimit:10;}
	.st10{fill:none;stroke:#3F3E3E;stroke-width:3;stroke-linecap:round;stroke-linejoin:round;stroke-dasharray:7.2824,7.2824;}
</style>
<g>
	<path class="st0" d="M144.9,36.2H54.2h-24l-7.4,25.4L3.6,65.4v25.2h19.6c1-3.8,4.3-6.6,8.4-6.6c4,0,7.4,2.8,8.4,6.6h9.2h70.1
		c1-3.8,4.3-6.6,8.4-6.6c4,0,7.4,2.8,8.4,6.6h9.1V75.4V36.2z"/>
	<ellipse class="st0" cx="31.6" cy="92.5" rx="8.3" ry="8.5"/>
	<ellipse class="st0" cx="127.7" cy="92.5" rx="8.3" ry="8.5"/>
	<polygon class="st0" points="35,42.8 30.3,59.2 50.4,59.2 50.4,42.8 	"/>
	<path class="st0" d="M113.3,50.2l-2.1-6.4h-52l-2.1,6.4c-0.3,0.8-0.5,1.5-0.5,2.4c0,2.3,1.6,4.1,3.8,4.1c2.3,0,4.1-1.8,4.1-4.1
		c0,2.3,1.8,4.1,4.1,4.1c2.3,0,4.1-1.8,4.1-4.1c0,2.3,1.8,4.1,4.1,4.1c2.3,0,4.1-1.8,4.1-4.1c0,2.3,1.8,4.1,4.1,4.1
		c2.3,0,4.1-1.8,4.1-4.1c0,2.3,1.8,4.1,4.1,4.1c2.3,0,4.1-1.8,4.1-4.1c0,2.3,1.8,4.1,4.1,4.1c2.3,0,4.1-1.8,4.1-4.1
		c0,2.3,1.8,4.1,4.1,4.1c2.3,0,3.8-1.8,3.8-4.1C113.9,51.7,113.5,50.9,113.3,50.2z"/>
	<line class="st0" x1="64.6" y1="52.6" x2="66.3" y2="43.7"/>
	<line class="st0" x1="72.9" y1="52.6" x2="74" y2="43.7"/>
	<line class="st0" x1="81.1" y1="52.6" x2="82" y2="43.7"/>
	<line class="st0" x1="89.4" y1="52.6" x2="89.4" y2="43.7"/>
	<line class="st0" x1="97.6" y1="52.6" x2="97.4" y2="43.7"/>
	<line class="st0" x1="105.9" y1="52.6" x2="104.8" y2="43.7"/>
	<polyline class="st0" points="109.7,57.6 109.7,73.6 60.2,73.6 60.2,57.6 	"/>
	<line class="st0" x1="60.2" y1="68.4" x2="109.7" y2="68.4"/>
	<rect x="119.4" y="50.2" class="st0" width="20.7" height="27.1"/>
	<line class="st0" x1="123.9" y1="55.1" x2="131.9" y2="55.1"/>
	<line class="st0" x1="123.9" y1="62.2" x2="128.4" y2="62.2"/>
	<line class="st0" x1="135.1" y1="62.2" x2="135.1" y2="62.2"/>
	<line class="st0" x1="123.9" y1="67.1" x2="130" y2="67.1"/>
	<line class="st0" x1="135.1" y1="67.1" x2="135.1" y2="67.1"/>
	<line class="st0" x1="123.9" y1="72" x2="127" y2="72"/>
	<line class="st0" x1="135.1" y1="72" x2="135.1" y2="72"/>
</g>
</svg>
