<?xml version="1.0" encoding="utf-8"?>
<!-- Generator: Adobe Illustrator 19.2.1, SVG Export Plug-In . SVG Version: 6.00 Build 0)  -->
<svg version="1.0" id="Layer_1" xmlns="http://www.w3.org/2000/svg" xmlns:xlink="http://www.w3.org/1999/xlink" x="0px" y="0px"
	 viewBox="0 0 150 150" style="enable-background:new 0 0 150 150;" xml:space="preserve">
<style type="text/css">
	.st0{fill:none;stroke:#3F3E3E;stroke-width:3;stroke-linecap:round;stroke-linejoin:round;stroke-miterlimit:10;}
	.st1{fill:#3F3E3E;}
	.st2{fill:#FFFFFF;}
	.st3{fill:#3F3D3E;}
	.st4{fill:#FFD83D;}
	.st5{fill:none;stroke:#3F3E3E;stroke-width:3;stroke-linecap:round;stroke-linejoin:round;}
	.st6{fill:none;stroke:#3F3E3E;stroke-width:3;stroke-linecap:round;stroke-linejoin:round;stroke-dasharray:6.7627,6.7627;}
	.st7{fill:none;stroke:#3F3E3E;stroke-width:3;stroke-linecap:round;stroke-linejoin:round;stroke-dasharray:4.828,9.6561;}
	.st8{fill:#FFFFFF;stroke:#3F3E3E;stroke-width:3;stroke-linecap:round;stroke-linejoin:round;stroke-miterlimit:10;}
	.st9{fill:none;stroke:#37383A;stroke-width:3;stroke-linecap:round;stroke-linejoin:round;stroke-miterlimit:10;}
	.st10{fill:none;stroke:#3F3E3E;stroke-width:3;stroke-linecap:round;stroke-linejoin:round;stroke-dasharray:7.2824,7.2824;}
</style>
<path class="st0" d="M39.5,19.9c15.8,0,28.6,10.5,28.6,23.6c0,3.4-0.9,6.7-2.5,9.6L73.7,67l-15.3-5.9c-5,3.6-11.7,5.9-18.9,5.9
	c-15.8,0-28.6-10.5-28.6-23.6S23.7,19.9,39.5,19.9z"/>
<path class="st0" d="M33.8,37.8c0-3,2.4-5.5,5.5-5.5s5.5,2.4,5.5,5.5s-2.4,5.5-5.5,5.5v4.4"/>
<circle class="st0" cx="39.4" cy="55.1" r="0.8"/>
<path class="st0" d="M40.5,83.5c15.8,0,28.6,10.5,28.6,23.6c0,3.4-0.9,6.7-2.5,9.6l8.1,13.9l-15.3-5.9c-5,3.6-11.7,5.9-18.9,5.9
	c-15.8,0-28.6-10.5-28.6-23.6S24.7,83.5,40.5,83.5z"/>
<circle class="st0" cx="40.5" cy="107.4" r="0.8"/>
<circle class="st0" cx="27" cy="107.4" r="0.8"/>
<circle class="st0" cx="53.9" cy="107.4" r="0.8"/>
<path class="st0" d="M112.3,47.9c-15.8,0-28.6,10.5-28.6,23.6c0,3.4,0.9,6.7,2.5,9.6L78.1,95l15.3-5.9c5,3.6,11.7,5.9,18.9,5.9
	c15.8,0,28.6-10.5,28.6-23.6S128.1,47.9,112.3,47.9z"/>
<line class="st0" x1="111.7" y1="56.8" x2="111.7" y2="73.6"/>
<circle class="st0" cx="111.8" cy="83.1" r="0.8"/>
</svg>
