<?xml version="1.0" encoding="utf-8"?>
<!-- Generator: Adobe Illustrator 19.2.1, SVG Export Plug-In . SVG Version: 6.00 Build 0)  -->
<svg version="1.0" id="Layer_1" xmlns="http://www.w3.org/2000/svg" xmlns:xlink="http://www.w3.org/1999/xlink" x="0px" y="0px"
	 viewBox="0 0 150 150" style="enable-background:new 0 0 150 150;" xml:space="preserve">
<style type="text/css">
	.st0{fill:none;stroke:#3F3E3E;stroke-width:3;stroke-linecap:round;stroke-linejoin:round;stroke-miterlimit:10;}
	.st1{fill:#3F3E3E;}
	.st2{fill:#FFFFFF;}
	.st3{fill:#3F3D3E;}
	.st4{fill:#FFD83D;}
	.st5{fill:none;stroke:#3F3E3E;stroke-width:3;stroke-linecap:round;stroke-linejoin:round;}
	.st6{fill:none;stroke:#3F3E3E;stroke-width:3;stroke-linecap:round;stroke-linejoin:round;stroke-dasharray:6.7627,6.7627;}
	.st7{fill:none;stroke:#3F3E3E;stroke-width:3;stroke-linecap:round;stroke-linejoin:round;stroke-dasharray:4.828,9.6561;}
	.st8{fill:#FFFFFF;stroke:#3F3E3E;stroke-width:3;stroke-linecap:round;stroke-linejoin:round;stroke-miterlimit:10;}
	.st9{fill:none;stroke:#37383A;stroke-width:3;stroke-linecap:round;stroke-linejoin:round;stroke-miterlimit:10;}
	.st10{fill:none;stroke:#3F3E3E;stroke-width:3;stroke-linecap:round;stroke-linejoin:round;stroke-dasharray:7.2824,7.2824;}
</style>
<path class="st0" d="M14.9,96.4c4.1-23,22.2-42.1,46.6-46.3c24.4-4.2,47.8,7.7,59.4,28.1"/>
<path class="st0" d="M32,92.5c-0.1-18.4,11.2-35.7,29.5-42.4"/>
<line class="st0" x1="14.9" y1="96.4" x2="141.2" y2="74.7"/>
<path class="st0" d="M141.2,74.7c0.9,5.4-17.3,13-40.8,17c-23.5,4-43.2,3-44.1-2.4"/>
<g>
	<path class="st3" d="M70.7,69.1c-0.6,0.2-1.2,0.1-1.7-0.3c-0.8,1-1.9,1.4-3.2,1.3c-1-0.1-1.9-0.5-2.6-1.2c-1.5-1.4-1.7-3.7-0.5-5.4
		c1.1-1.6,3.5-2.4,5.2-1.3c0.3-0.6,0.9-0.8,1.5-0.9C69.8,64,70.2,66.6,70.7,69.1z M68.1,65.6c-0.2-1.2-1.3-1.9-2.4-1.7
		c-1.2,0.2-1.9,1.3-1.7,2.4c0.2,1.2,1.3,1.9,2.5,1.7C67.6,67.9,68.3,66.8,68.1,65.6z"/>
	<path class="st3" d="M79,64.5c0.4,0.7,1,1.1,1.8,1.1c0.8,0,1.4-0.3,1.8-0.9c0.1-0.1,0.1-0.2,0.2-0.2c0.6-0.1,1.2-0.2,1.9-0.3
		c0.1,0,0.1,0,0.2,0c0.1,0.1,0,0.2,0,0.3c-0.4,1.7-2,3-3.8,3.1c-1.7,0.1-3.6-1.1-4.2-2.7c-0.9-2.4,0.6-5,3-5.5c1.4-0.3,2.6,0,3.6,1
		c0.5,0.5,0.9,1.1,0.9,1.9c0,0.7-0.4,1.2-1.1,1.4c-0.9,0.2-1.8,0.3-2.7,0.5C80.1,64.3,79.5,64.3,79,64.5z M78.7,63
		c1.1-0.2,2.2-0.4,3.3-0.6c0.2,0,0.3-0.2,0.2-0.4c0-0.1-0.1-0.1-0.2-0.2c-0.6-0.5-1.3-0.6-2-0.3C79.4,61.7,79,62.2,78.7,63z"/>
	<path class="st3" d="M60.8,68.1c0.2,0,0.2,0.1,0.2,0.2c0.1,0.5,0.2,1,0.3,1.6c0.1,0.5,0,0.7-0.5,1c-3.3,1.7-6.9,0-8-2.9
		c-1-2.7,0.1-5.7,2.7-7.1c1.2-0.6,2.8-0.8,4.1-0.4c0.1,0.8,0.3,1.6,0.4,2.4c-0.1,0.1-0.2,0-0.3,0c-2.1-1.1-4.8,0.2-5.1,2.6
		c-0.2,1.5,0.6,3,2,3.7c1.3,0.6,2.9,0.3,4-0.8C60.6,68.2,60.7,68.1,60.8,68.1z"/>
	<path class="st3" d="M73.1,60.8c0.7-0.1,1.3-0.2,1.9-0.3c0.1,0.6,0.2,1.1,0.2,1.6c0,0.3-0.2,0.5-0.6,0.5c-0.4,0.1-0.8,0.1-1.2,0.2
		c-0.1,0.1,0,0.2,0,0.2c0.2,0.9,0.3,1.9,0.5,2.8c0.1,0.5,0.3,0.7,0.9,0.7c0.4,0,0.8-0.1,1.2-0.4c0.2,0.7,0.3,1.4,0.4,2.1
		c-1.5,0.8-4,0.4-4.4-1.9c-0.5-2.4-0.8-4.8-1.3-7.2c0,0,0-0.1,0-0.2c0.6-0.2,1.1-0.2,1.6,0.2C72.8,59.6,73,60.2,73.1,60.8z"/>
	<path class="st3" d="M89.2,57.9c0.1,0.7,0.2,1.4,0.4,2.1c-0.1,0.1-0.2,0.1-0.3,0c-0.3-0.1-0.7,0-1,0.1c-0.5,0.2-0.6,0.4-0.5,0.9
		c0.2,1.2,0.4,2.4,0.6,3.6c0.1,0.4,0.1,0.8,0.2,1.2c0,0.1,0.1,0.2,0,0.3c-0.6,0.1-1.3,0.2-1.9,0.3c-0.1,0-0.1-0.1-0.1-0.2
		c-0.3-1.7-0.6-3.3-0.8-5c-0.2-1.5,0.7-2.9,2.2-3.2C88.3,57.9,88.7,57.8,89.2,57.9z"/>
	<path class="st3" d="M61.3,81c0.8-0.1,1.5-0.3,2.3-0.4c0.5-0.1,0.8,0.1,0.9,0.6c0.1,0.5,0.2,0.9,0.2,1.3c-0.1,0.1-0.2,0.1-0.3,0.1
		c-2,0.3-3.9,0.7-5.9,1c-0.2,0-0.4,0-0.6-0.2c-0.2-0.2-0.1-0.4,0-0.6c1.1-2.2,2.2-4.3,3.3-6.5c0.2-0.4,0.3-0.7,0.2-1.2
		c-0.2-0.6-0.7-0.9-1.3-0.9c-0.6,0-1,0.5-1.1,1.1c0,0.1,0,0.1,0,0.2c-0.7,0.1-1.4,0.2-2.1,0.4c-0.1-0.3-0.1-0.6,0-0.9
		c0.3-1.6,1.4-2.8,3.1-3c1.7-0.2,3.2,0.8,3.7,2.4c0.3,1,0.1,1.9-0.3,2.8c-0.6,1.1-1.2,2.3-1.7,3.4C61.4,80.9,61.3,80.9,61.3,81z"/>
	<path class="st3" d="M71.4,79.7c-0.6,0.1-1.3,0.2-1.9,0.3c-0.1-0.1-0.1-0.1-0.1-0.2c-0.3-1.6-0.6-3.2-0.8-4.8
		c-0.2-1.4,0.3-2.5,1.6-3.2c1.3-0.6,2.6-0.8,3.9-0.1c0.8-0.9,1.9-1.2,3.1-1.2c1.7,0,2.9,0.9,3.2,2.6c0.3,1.6,0.5,3.2,0.8,4.7
		c0,0.1,0,0.1,0,0.2c-0.5,0.1-1,0.2-1.5,0.2c-0.3,0-0.5-0.1-0.6-0.4c0-0.1-0.1-0.2-0.1-0.3c-0.2-1.3-0.5-2.7-0.7-4
		c-0.1-0.7-0.3-0.9-1.1-1c-0.4,0-0.8,0.1-1.2,0.2c-0.5,0.2-0.6,0.5-0.5,1c0.3,1.5,0.5,3.1,0.8,4.6c0,0.1,0.1,0.2,0,0.3
		c-0.6,0.1-1.3,0.2-1.9,0.3c-0.1-0.1-0.1-0.2-0.1-0.3c-0.3-1.5-0.5-3-0.8-4.5c-0.1-0.8-0.4-1-1.2-1c-0.4,0-0.9,0.1-1.2,0.3
		c-0.4,0.2-0.5,0.5-0.4,0.9c0.3,1.6,0.5,3.1,0.8,4.7C71.5,79.5,71.5,79.6,71.4,79.7z"/>
	<path class="st3" d="M84,74.2c0.8,1.4,2.7,1.5,3.6,0.2c0.1-0.2,0.2-0.2,0.4-0.3c0.6-0.1,1.1-0.2,1.6-0.3c0.1,0,0.2-0.1,0.3,0
		c0.1,0.1,0,0.2,0,0.3c-0.4,1.8-2,3.1-3.8,3.2c-1.8,0.1-3.6-1.1-4.2-2.7c-0.9-2.4,0.6-5.1,3.1-5.6c1.4-0.3,2.7,0,3.7,1
		c0.5,0.5,0.9,1.2,0.9,1.9c0,0.7-0.5,1.3-1.1,1.4c-1.2,0.2-2.4,0.4-3.6,0.6C84.6,74.2,84.3,74.2,84,74.2z M83.8,72.8
		c1.2-0.2,2.3-0.4,3.4-0.6c0.3,0,0.3-0.3,0.2-0.5c0-0.1-0.1-0.1-0.2-0.2c-0.6-0.5-1.3-0.5-2-0.3C84.4,71.4,84,72,83.8,72.8z"/>
	<ellipse transform="matrix(0.9855 -0.1697 0.1697 0.9855 -12.415 12.4457)" class="st4" cx="66.6" cy="78.9" rx="1.6" ry="1.6"/>
</g>
<path class="st0" d="M58.4,49.1c-0.5-2.9,1.4-5.6,4.3-6.1s5.6,1.4,6.1,4.3"/>
</svg>
