<svg xmlns="http://www.w3.org/2000/svg" viewBox="0 0 150 150"><defs><style>.cls-1{fill:#ffd73b;}.cls-2{fill:#fff;}.cls-3{fill:none;stroke:#fff;stroke-linecap:round;stroke-linejoin:round;stroke-width:3px;}</style></defs><title>Artboard 67white</title><g id="Layer_2" data-name="Layer 2"><circle class="cls-1" cx="75" cy="75" r="65"/></g><g id="Layer_1" data-name="Layer 1"><path class="cls-2" d="M49.1,22.2H43.5v3A3.3,3.3,0,0,1,46,24.1c2.9,0,3.9,2.2,3.9,4.2a4,4,0,0,1-4.3,4.3c-2.7,0-4.3-1.5-4.5-3.5h2.4a1.9,1.9,0,0,0,2,1.5,2.1,2.1,0,0,0,2.1-2.3,1.9,1.9,0,0,0-2.1-2.2,2,2,0,0,0-1.9,1.3H41.3V20.1h7.8Z"/><path class="cls-2" d="M56.3,20.2c3.5,0,4.6,2.7,4.6,6.2s-1.1,6.2-4.6,6.2-4.6-2.7-4.6-6.2S52.8,20.2,56.3,20.2Zm0,2.2c-2,0-2.3,1.9-2.3,4s.3,4,2.3,4,2.3-2,2.3-4S58.3,22.4,56.3,22.4Z"/><path class="cls-2" d="M70.3,25.5v2H63v-2Z"/><path class="cls-2" d="M72.4,22.7V20.5h4.1V32.6H74V22.7Z"/><path class="cls-2" d="M83.5,20.2c3.5,0,4.6,2.7,4.6,6.2s-1.1,6.2-4.6,6.2-4.6-2.7-4.6-6.2S79.9,20.2,83.5,20.2Zm0,2.2c-2.1,0-2.3,1.9-2.3,4s.2,4,2.3,4,2.2-2,2.2-4S85.5,22.4,83.5,22.4Z"/><path class="cls-2" d="M94.5,20.2c3.5,0,4.6,2.7,4.6,6.2s-1.1,6.2-4.6,6.2-4.6-2.7-4.6-6.2S91,20.2,94.5,20.2Zm0,2.2c-2,0-2.3,1.9-2.3,4s.3,4,2.3,4,2.2-2,2.2-4S96.5,22.4,94.5,22.4Z"/><path class="cls-2" d="M106.9,25.5h3.2v2.1h-3.2v3.3h-2.3V27.6h-3.2V25.5h3.2V22.2h2.3Z"/><path class="cls-3" d="M110.6,9.6H40.8A13.2,13.2,0,0,0,27.6,22.8v9.3A13.3,13.3,0,0,0,40.8,45.3H71.7L75,51l3.3-5.7h32.3a13.3,13.3,0,0,0,13.2-13.2V22.8A13.3,13.3,0,0,0,110.6,9.6Z"/><path class="cls-3" d="M47.4,102.3l.5-6A3.9,3.9,0,0,0,46,92.5a17.6,17.6,0,0,1,7.3-32.4A18.5,18.5,0,0,1,63,61.8"/><path class="cls-3" d="M45.3,99.5l-13,7.6a15.3,15.3,0,0,0-5.6,5.7c-3.1,5.4-5.1,13.4-4.7,15.1H37.5"/><path class="cls-3" d="M65,99.9c-1.6,3.5-5.9,5.6-9.9,5.5s-8.4-2.4-9.8-5.9"/><path class="cls-3" d="M103.7,102.3l-.5-6a4,4,0,0,1,1.9-3.8,17.6,17.6,0,0,0-7.3-32.4,18.5,18.5,0,0,0-9.7,1.7"/><path class="cls-3" d="M105.8,99.5l13,7.6a14.6,14.6,0,0,1,5.6,5.7c3.1,5.4,5.1,13.4,4.7,15.1H113.6"/><path class="cls-3" d="M86.1,99.9c1.6,3.5,5.9,5.6,10,5.5s8.3-2.4,9.7-5.9"/><path class="cls-3" d="M65.8,109.6l.7-7.2a5,5,0,0,0-2.4-4.6,21.1,21.1,0,1,1,22.4,0,4.8,4.8,0,0,0-2.4,4.6l.7,7.2"/><path class="cls-3" d="M63.3,106.3l-15.6,9.1a19.3,19.3,0,0,0-6.8,6.8c-3.7,6.5-6,16.1-5.6,18.2H115c.5-2-2-11.7-5.5-18a17,17,0,0,0-6.6-6.7l-16-9"/><path class="cls-3" d="M86.9,106.7c-1.9,4.2-7,6.8-11.9,6.6s-10-2.8-11.7-7"/><line class="cls-3" x1="96.9" y1="133.7" x2="96.9" y2="140.4"/><line class="cls-3" x1="54.2" y1="133.7" x2="54.2" y2="140.4"/></g></svg>