<?xml version="1.0" encoding="utf-8"?>
<!-- Generator: Adobe Illustrator 19.2.1, SVG Export Plug-In . SVG Version: 6.00 Build 0)  -->
<svg version="1.0" id="Layer_1" xmlns="http://www.w3.org/2000/svg" xmlns:xlink="http://www.w3.org/1999/xlink" x="0px" y="0px"
	 viewBox="0 0 150 150" style="enable-background:new 0 0 150 150;" xml:space="preserve">
<style type="text/css">
	.st0{fill:none;stroke:#3F3E3E;stroke-width:3;stroke-linecap:round;stroke-linejoin:round;stroke-miterlimit:10;}
	.st1{fill:#3F3E3E;}
	.st2{fill:#FFFFFF;}
	.st3{fill:#3F3D3E;}
	.st4{fill:#FFD83D;}
	.st5{fill:none;stroke:#3F3E3E;stroke-width:3;stroke-linecap:round;stroke-linejoin:round;}
	.st6{fill:none;stroke:#3F3E3E;stroke-width:3;stroke-linecap:round;stroke-linejoin:round;stroke-dasharray:6.7627,6.7627;}
	.st7{fill:none;stroke:#3F3E3E;stroke-width:3;stroke-linecap:round;stroke-linejoin:round;stroke-dasharray:4.828,9.6561;}
	.st8{fill:#FFFFFF;stroke:#3F3E3E;stroke-width:3;stroke-linecap:round;stroke-linejoin:round;stroke-miterlimit:10;}
	.st9{fill:none;stroke:#37383A;stroke-width:3;stroke-linecap:round;stroke-linejoin:round;stroke-miterlimit:10;}
	.st10{fill:none;stroke:#3F3E3E;stroke-width:3;stroke-linecap:round;stroke-linejoin:round;stroke-dasharray:7.2824,7.2824;}
</style>
<g>
	<path class="st0" d="M106.8,37.7l1.7,0.9c8.3,4.3,11.6,14.6,7.2,22.9L85,120.3c-4.3,8.3-14.6,11.6-22.9,7.2l-1.7-0.9L106.8,37.7z"
		/>
	<path class="st0" d="M35,113.4l-1.7-0.9c-8.3-4.3-11.6-14.6-7.2-22.9l30.7-58.8c4.3-8.3,14.6-11.6,22.9-7.2l1.7,0.9L35,113.4z"/>
	<path class="st0" d="M98.7,19.1l2.6,1.4c6.3,3.3,8.7,11,5.4,17.3L61,125.4c-3.3,6.3-11,8.7-17.3,5.4l-2.6-1.4
		c-6.3-3.3-8.7-11-5.4-17.3l45.7-87.6C84.6,18.2,92.4,15.8,98.7,19.1z"/>
	<g>
		<path class="st0" d="M49.4,110.3c3.6-6.9,8.9-4.1,12.5-11c3.6-6.9-1.7-9.7,1.9-16.5c3.6-6.9,8.9-4.1,12.5-11
			c3.6-6.9-1.7-9.7,1.9-16.6s8.9-4.1,12.5-11"/>
	</g>
</g>
</svg>
