<?xml version="1.0" encoding="utf-8"?>
<!-- Generator: Adobe Illustrator 19.2.1, SVG Export Plug-In . SVG Version: 6.00 Build 0)  -->
<svg version="1.0" id="Layer_1" xmlns="http://www.w3.org/2000/svg" xmlns:xlink="http://www.w3.org/1999/xlink" x="0px" y="0px"
	 viewBox="0 0 150 150" style="enable-background:new 0 0 150 150;" xml:space="preserve">
<style type="text/css">
	.st0{fill:none;stroke:#3F3E3E;stroke-width:3;stroke-linecap:round;stroke-linejoin:round;stroke-miterlimit:10;}
	.st1{fill:#3F3E3E;}
	.st2{fill:#FFFFFF;}
	.st3{fill:#3F3D3E;}
	.st4{fill:#FFD83D;}
	.st5{fill:none;stroke:#3F3E3E;stroke-width:3;stroke-linecap:round;stroke-linejoin:round;}
	.st6{fill:none;stroke:#3F3E3E;stroke-width:3;stroke-linecap:round;stroke-linejoin:round;stroke-dasharray:6.7627,6.7627;}
	.st7{fill:none;stroke:#3F3E3E;stroke-width:3;stroke-linecap:round;stroke-linejoin:round;stroke-dasharray:4.828,9.6561;}
	.st8{fill:#FFFFFF;stroke:#3F3E3E;stroke-width:3;stroke-linecap:round;stroke-linejoin:round;stroke-miterlimit:10;}
	.st9{fill:none;stroke:#37383A;stroke-width:3;stroke-linecap:round;stroke-linejoin:round;stroke-miterlimit:10;}
	.st10{fill:none;stroke:#3F3E3E;stroke-width:3;stroke-linecap:round;stroke-linejoin:round;stroke-dasharray:7.2824,7.2824;}
</style>
<g>
	<polyline class="st0" points="53.2,109.7 53.3,118.5 100.3,117.9 100.2,108.6 	"/>
	<g>
		<path class="st0" d="M19.8,58.5c-0.6-0.5-0.6-0.5-1.1-1.1c-8.6-9.1-5.9-25.5-5.9-25.5s16.5-1.5,25,7.6c5,5.4,6.2,13.3,6.3,18.9"/>
		<line class="st0" x1="22.3" y1="42.2" x2="37.2" y2="58"/>
		<g>
			<line class="st0" x1="23.7" y1="51.7" x2="31.5" y2="52"/>
			<line class="st0" x1="31.5" y1="51.9" x2="31.7" y2="44.2"/>
		</g>
	</g>
	<g>
		<path class="st0" d="M99.5,57.5c2.2-5,6.9-13.3,14.8-16.4c11.7-4.6,25.9,3.8,25.9,3.8s-1.8,6.2-6,12"/>
		<line class="st0" x1="127.1" y1="50.1" x2="108.5" y2="57.4"/>
		<g>
			<line class="st0" x1="117.7" y1="47.9" x2="114.6" y2="55"/>
			<line class="st0" x1="114.7" y1="55" x2="120.6" y2="57.6"/>
		</g>
	</g>
	<g>
		<path class="st0" d="M59,58c0,0,10.6-11.3,23.1-10c7.3,0.7,12.9,5.3,16.7,9.5"/>
		<g>
			<line class="st0" x1="82.1" y1="55.6" x2="79.1" y2="58"/>
		</g>
	</g>
	<g>
		<path class="st0" d="M81.6,47.4C78,37,83.1,24.5,83.1,24.5s16.4,2.3,22.7,13.1c1.3,2.2,2.1,4.7,2.5,7.2"/>
		<line class="st0" x1="90.1" y1="36.6" x2="99.6" y2="53.1"/>
		<g>
			<line class="st0" x1="89.3" y1="46.2" x2="96.8" y2="48.2"/>
			<line class="st0" x1="96.8" y1="48.2" x2="98.8" y2="40.7"/>
		</g>
	</g>
	<path class="st0" d="M140.5,57.3c0.3,28.5-28.2,52-63.8,52.4S12,87.4,11.7,58.8L140.5,57.3z"/>
	<path class="st0" d="M49.3,95.5C37.6,89.7,28.2,81,22.9,70.6"/>
	<path class="st0" d="M116.1,35.5l-4.4,1.5c-1.1,0.3-2.2-0.2-2.6-1.3l-1.5-4.4c-0.3-1.1,0.2-2.2,1.3-2.6l4.4-1.5
		c1.1-0.3,2.2,0.2,2.6,1.3l1.5,4.4C117.8,34,117.2,35.1,116.1,35.5z"/>
	<path class="st0" d="M73.5,40.4l-4.3-1.6c-1-0.4-1.6-1.6-1.2-2.6l1.6-4.3c0.4-1,1.6-1.6,2.6-1.2l4.3,1.6c1,0.4,1.6,1.6,1.2,2.6
		l-1.6,4.3C75.7,40.3,74.5,40.8,73.5,40.4z"/>
	<g>
		<path class="st0" d="M69.5,42.6c-1.6,7.9-9.3,13.1-17.2,11.5s-13.1-9.3-11.5-17.2L69.5,42.6z"/>
		<path class="st0" d="M62,41.1c-0.8,3.8-4.4,6.2-8.2,5.5c-3.8-0.8-6.2-4.4-5.5-8.2"/>
	</g>
</g>
</svg>
