<?xml version="1.0" encoding="utf-8"?>
<!-- Generator: Adobe Illustrator 19.2.1, SVG Export Plug-In . SVG Version: 6.00 Build 0)  -->
<svg version="1.0" id="Layer_1" xmlns="http://www.w3.org/2000/svg" xmlns:xlink="http://www.w3.org/1999/xlink" x="0px" y="0px"
	 viewBox="0 0 150 150" style="enable-background:new 0 0 150 150;" xml:space="preserve">
<style type="text/css">
	.st0{fill:none;stroke:#3F3E3E;stroke-width:3;stroke-linecap:round;stroke-linejoin:round;stroke-miterlimit:10;}
	.st1{fill:#3F3E3E;}
	.st2{fill:#FFFFFF;}
	.st3{fill:#3F3D3E;}
	.st4{fill:#FFD83D;}
	.st5{fill:none;stroke:#3F3E3E;stroke-width:3;stroke-linecap:round;stroke-linejoin:round;}
	.st6{fill:none;stroke:#3F3E3E;stroke-width:3;stroke-linecap:round;stroke-linejoin:round;stroke-dasharray:6.7627,6.7627;}
	.st7{fill:none;stroke:#3F3E3E;stroke-width:3;stroke-linecap:round;stroke-linejoin:round;stroke-dasharray:4.828,9.6561;}
	.st8{fill:#FFFFFF;stroke:#3F3E3E;stroke-width:3;stroke-linecap:round;stroke-linejoin:round;stroke-miterlimit:10;}
	.st9{fill:none;stroke:#37383A;stroke-width:3;stroke-linecap:round;stroke-linejoin:round;stroke-miterlimit:10;}
	.st10{fill:none;stroke:#3F3E3E;stroke-width:3;stroke-linecap:round;stroke-linejoin:round;stroke-dasharray:7.2824,7.2824;}
</style>
<g>
	<polygon class="st0" points="99.4,141.5 49.3,141.5 38.3,79.2 110.4,79.2 	"/>
	<polygon class="st0" points="56,78.7 43,78.7 33.7,39.5 46.2,37.3 	"/>
	<polyline class="st0" points="65.3,23.7 65.1,10.6 77.6,9.7 78.4,39.4 	"/>
	<polyline class="st0" points="96.1,66.7 99.9,54.2 112.1,57.2 104.7,78.7 	"/>
	<polyline class="st0" points="97.9,53.2 99.2,35.1 109.3,35.6 107.6,54.7 	"/>
	<polyline class="st0" points="93.6,31.6 96.4,78.7 83.4,78.7 82.8,72.4 	"/>
	<polygon class="st0" points="80.7,78.7 67.7,78.7 83,22.3 95.3,25.1 	"/>
	<polygon class="st0" points="69.2,78.9 57.8,78.9 54.1,23.5 65.5,22.3 	"/>
	<line class="st0" x1="110.4" y1="79.2" x2="51.2" y2="138.4"/>
</g>
</svg>
