<?xml version="1.0" encoding="utf-8"?>
<!-- Generator: Adobe Illustrator 19.2.1, SVG Export Plug-In . SVG Version: 6.00 Build 0)  -->
<svg version="1.0" id="Layer_1" xmlns="http://www.w3.org/2000/svg" xmlns:xlink="http://www.w3.org/1999/xlink" x="0px" y="0px"
	 viewBox="0 0 150 150" style="enable-background:new 0 0 150 150;" xml:space="preserve">
<style type="text/css">
	.st0{fill:none;stroke:#3F3E3E;stroke-width:3;stroke-linecap:round;stroke-linejoin:round;stroke-miterlimit:10;}
	.st1{fill:#3F3E3E;}
	.st2{fill:#FFFFFF;}
	.st3{fill:#3F3D3E;}
	.st4{fill:#FFD83D;}
	.st5{fill:none;stroke:#3F3E3E;stroke-width:3;stroke-linecap:round;stroke-linejoin:round;}
	.st6{fill:none;stroke:#3F3E3E;stroke-width:3;stroke-linecap:round;stroke-linejoin:round;stroke-dasharray:6.7627,6.7627;}
	.st7{fill:none;stroke:#3F3E3E;stroke-width:3;stroke-linecap:round;stroke-linejoin:round;stroke-dasharray:4.828,9.6561;}
	.st8{fill:#FFFFFF;stroke:#3F3E3E;stroke-width:3;stroke-linecap:round;stroke-linejoin:round;stroke-miterlimit:10;}
	.st9{fill:none;stroke:#37383A;stroke-width:3;stroke-linecap:round;stroke-linejoin:round;stroke-miterlimit:10;}
	.st10{fill:none;stroke:#3F3E3E;stroke-width:3;stroke-linecap:round;stroke-linejoin:round;stroke-dasharray:7.2824,7.2824;}
</style>
<g>
	<g>
		<path class="st0" d="M44.4,91.6c6.1,7.4,14,12.7,22.8,15.6c1.1,0.4,2.2,0.7,3.3,1"/>
		<path class="st0" d="M91.9,63.1c-12.9,15-33.8,9.9-35,9.5c-4.2-1.1-9.7-5.1-13.6-8.2c-2.2-1.7-5.4-0.4-5.7,2.4
			c-0.3,2.9-0.4,5.8-0.1,8.7c0.5,5.1,2.2,10.8,6.9,16.1"/>
		<path class="st0" d="M113.2,103.2c3.9-2.9,11.6-9.3,14.1-14.5"/>
		<path class="st0" d="M71.6,110.6c11.4,3,23.8,2,35.2-3.6c2.3-1.1,4.4-2.4,6.4-3.8"/>
		<path class="st0" d="M76.1,73l1.4,6.9c0.6,5.1-1,16.6-2.9,21l-2.9,9.7"/>
		<path class="st0" d="M86.9,69.1c9.5,4.1,17.3,20.7,14.2,37.1"/>
	</g>
	<path class="st0" d="M37.5,62.9l-16.8-2.7c-7.4-1.2-11.8-8.8-9.1-15.8l1.1-2.9L37.5,62.9z"/>
	<path class="st0" d="M38.2,61.8l-8.8-30.2l5.4-0.5c5.8-0.5,10.4,5,8.8,10.6L38.2,61.8z"/>
	<path class="st0" d="M91.9,63.1c5.4-7.6,12.3-17.7,23.1-17c12.3,0.9,17.2,9.9,18.8,21.7c0.7,5.3-0.8,12.1-6.4,20.8"/>
</g>
</svg>
