<?xml version="1.0" encoding="utf-8"?>
<!-- Generator: Adobe Illustrator 19.2.1, SVG Export Plug-In . SVG Version: 6.00 Build 0)  -->
<svg version="1.0" id="Layer_1" xmlns="http://www.w3.org/2000/svg" xmlns:xlink="http://www.w3.org/1999/xlink" x="0px" y="0px"
	 viewBox="0 0 150 150" style="enable-background:new 0 0 150 150;" xml:space="preserve">
<style type="text/css">
	.st0{fill:none;stroke:#3F3E3E;stroke-width:3;stroke-linecap:round;stroke-linejoin:round;stroke-miterlimit:10;}
	.st1{fill:#3F3E3E;}
	.st2{fill:#FFFFFF;}
	.st3{fill:#3F3D3E;}
	.st4{fill:#FFD83D;}
	.st5{fill:none;stroke:#3F3E3E;stroke-width:3;stroke-linecap:round;stroke-linejoin:round;}
	.st6{fill:none;stroke:#3F3E3E;stroke-width:3;stroke-linecap:round;stroke-linejoin:round;stroke-dasharray:6.7627,6.7627;}
	.st7{fill:none;stroke:#3F3E3E;stroke-width:3;stroke-linecap:round;stroke-linejoin:round;stroke-dasharray:4.828,9.6561;}
	.st8{fill:#FFFFFF;stroke:#3F3E3E;stroke-width:3;stroke-linecap:round;stroke-linejoin:round;stroke-miterlimit:10;}
	.st9{fill:none;stroke:#37383A;stroke-width:3;stroke-linecap:round;stroke-linejoin:round;stroke-miterlimit:10;}
	.st10{fill:none;stroke:#3F3E3E;stroke-width:3;stroke-linecap:round;stroke-linejoin:round;stroke-dasharray:7.2824,7.2824;}
</style>
<g>
	<path class="st0" d="M83.9,106l39.3,4.5l-0.9,7.7c-0.8,7-10.2,8.5-16,7.8L29,117.1c-5.8-0.7-14.6-4.2-13.8-11.2l0.9-7.7l40.7,4.7"
		/>
	<path class="st0" d="M21.2,52.9L21.2,52.9C23.6,32.1,44,17.4,61.4,19.4l35.5,4.1c17.4,2,33.9,21,31.5,41.7v0L21.2,52.9z"/>
	<path class="st0" d="M57.9,102.8L19,98.3c-4.7-0.5-5.2-4.2-4.7-8.5l0,0c0.5-4.4,1.8-7.8,6.5-7.2L33,84"/>
	<path class="st0" d="M111.6,92.9l12.1,1.4c4.7,0.5,5.2,4.2,4.7,8.5v0c-0.5,4.4-1.8,7.8-6.5,7.2l-38.8-4.4"/>
	<polyline class="st0" points="82.8,105.6 69.5,111.8 19.4,72.8 127.1,85.1 82.8,105.6 	"/>
	<g>
		<path class="st0" d="M19.7,61.7c9.1,1,8.8,3,17.9,4.1c9,1,9.3-1,18.3,0.1c9.1,1,8.8,3,17.9,4.1c9.1,1,9.3-1,18.3,0.1
			c9.1,1,8.8,3,17.9,4.1c9.1,1,9.3-1,18.3,0.1"/>
	</g>
	<line class="st0" x1="57.5" y1="30.1" x2="60.2" y2="32.1"/>
	<line class="st0" x1="72.7" y1="32.5" x2="74.5" y2="29.5"/>
	<line class="st0" x1="43.1" y1="33.9" x2="46" y2="32.3"/>
	<line class="st0" x1="82.6" y1="40.9" x2="85.7" y2="41.5"/>
	<line class="st0" x1="107.6" y1="42.2" x2="110.8" y2="41.7"/>
	<line class="st0" x1="95.4" y1="33.3" x2="96.5" y2="36.6"/>
</g>
</svg>
