<?xml version="1.0" encoding="utf-8"?>
<!-- Generator: Adobe Illustrator 19.2.1, SVG Export Plug-In . SVG Version: 6.00 Build 0)  -->
<svg version="1.0" id="Layer_1" xmlns="http://www.w3.org/2000/svg" xmlns:xlink="http://www.w3.org/1999/xlink" x="0px" y="0px"
	 viewBox="0 0 150 150" style="enable-background:new 0 0 150 150;" xml:space="preserve">
<style type="text/css">
	.st0{fill:none;stroke:#3F3E3E;stroke-width:3;stroke-linecap:round;stroke-linejoin:round;stroke-miterlimit:10;}
	.st1{fill:#3F3E3E;}
	.st2{fill:#FFFFFF;}
	.st3{fill:#3F3D3E;}
	.st4{fill:#FFD83D;}
	.st5{fill:none;stroke:#3F3E3E;stroke-width:3;stroke-linecap:round;stroke-linejoin:round;}
	.st6{fill:none;stroke:#3F3E3E;stroke-width:3;stroke-linecap:round;stroke-linejoin:round;stroke-dasharray:6.7627,6.7627;}
	.st7{fill:none;stroke:#3F3E3E;stroke-width:3;stroke-linecap:round;stroke-linejoin:round;stroke-dasharray:4.828,9.6561;}
	.st8{fill:#FFFFFF;stroke:#3F3E3E;stroke-width:3;stroke-linecap:round;stroke-linejoin:round;stroke-miterlimit:10;}
	.st9{fill:none;stroke:#37383A;stroke-width:3;stroke-linecap:round;stroke-linejoin:round;stroke-miterlimit:10;}
	.st10{fill:none;stroke:#3F3E3E;stroke-width:3;stroke-linecap:round;stroke-linejoin:round;stroke-dasharray:7.2824,7.2824;}
</style>
<g>
	<path class="st0" d="M98.5,132L20.8,59.9c0,0,0,0,0-0.1l86.9-37.9c0,0,0,0,0,0l0.1,106C107.8,132.8,102,135.3,98.5,132z"/>
	<path class="st0" d="M99.9,10.1L17.2,46.2c-2.6,1.1-3.5,4.5-1.7,6.7l5.3,6.9c0,0,0,0,0,0l86.9-37.9c0,0,0,0,0,0l-1.4-8.3
		C105.8,10.6,102.7,8.9,99.9,10.1z"/>
	<ellipse transform="matrix(0.9164 -0.4002 0.4002 0.9164 -22.5601 29.8778)" class="st0" cx="60.3" cy="69" rx="9.8" ry="9.8"/>
	<path class="st0" d="M92.6,63.6c4.9,2.3,7,8.1,4.7,13c-2.3,4.9-8.1,7-13,4.7L92.6,63.6z"/>
	<path class="st0" d="M89,30.1c0.8,1,1.5,2.2,1.9,3.5c1.3,4.3-0.6,9.1-4.5,11.3c-5.2,3-11.6,0.7-13.9-4.6c-0.4-0.9-0.6-1.7-0.7-2.6"
		/>
	<path class="st0" d="M107,117.8c-5.6,2.4-12.1-0.7-13.5-7c-0.8-3.8,0.7-7.8,3.9-10c3.3-2.3,7.3-2.3,10.4-0.6"/>
</g>
</svg>
