<?xml version="1.0" encoding="utf-8"?>
<!-- Generator: Adobe Illustrator 19.2.1, SVG Export Plug-In . SVG Version: 6.00 Build 0)  -->
<svg version="1.0" id="Layer_1" xmlns="http://www.w3.org/2000/svg" xmlns:xlink="http://www.w3.org/1999/xlink" x="0px" y="0px"
	 viewBox="0 0 150 150" style="enable-background:new 0 0 150 150;" xml:space="preserve">
<style type="text/css">
	.st0{fill:none;stroke:#3F3E3E;stroke-width:3;stroke-linecap:round;stroke-linejoin:round;stroke-miterlimit:10;}
	.st1{fill:#3F3E3E;}
	.st2{fill:#FFFFFF;}
	.st3{fill:#3F3D3E;}
	.st4{fill:#FFD83D;}
	.st5{fill:none;stroke:#3F3E3E;stroke-width:3;stroke-linecap:round;stroke-linejoin:round;}
	.st6{fill:none;stroke:#3F3E3E;stroke-width:3;stroke-linecap:round;stroke-linejoin:round;stroke-dasharray:6.7627,6.7627;}
	.st7{fill:none;stroke:#3F3E3E;stroke-width:3;stroke-linecap:round;stroke-linejoin:round;stroke-dasharray:4.828,9.6561;}
	.st8{fill:#FFFFFF;stroke:#3F3E3E;stroke-width:3;stroke-linecap:round;stroke-linejoin:round;stroke-miterlimit:10;}
	.st9{fill:none;stroke:#37383A;stroke-width:3;stroke-linecap:round;stroke-linejoin:round;stroke-miterlimit:10;}
	.st10{fill:none;stroke:#3F3E3E;stroke-width:3;stroke-linecap:round;stroke-linejoin:round;stroke-dasharray:7.2824,7.2824;}
</style>
<g>
	<polygon class="st0" points="147.9,32.4 63.6,32.4 56.9,43.9 56.9,25.5 56.9,10.5 147.9,10.5 	"/>
	<polygon class="st0" points="68.1,15.2 70.1,19.3 74.6,20 71.4,23.2 72.1,27.7 68.1,25.5 64.1,27.7 64.8,23.2 61.6,20 66.1,19.3 	
		"/>
	<polygon class="st0" points="85.3,15.2 87.3,19.3 91.8,20 88.6,23.2 89.3,27.7 85.3,25.5 81.3,27.7 82,23.2 78.8,20 83.3,19.3 	"/>
	<polygon class="st0" points="102.5,15.2 104.5,19.3 109,20 105.8,23.2 106.5,27.7 102.5,25.5 98.5,27.7 99.2,23.2 96,20 
		100.5,19.3 	"/>
	<polygon class="st0" points="119.7,15.2 121.7,19.3 126.3,20 123,23.2 123.8,27.7 119.7,25.5 115.7,27.7 116.4,23.2 113.2,20 
		117.7,19.3 	"/>
	<polygon class="st0" points="136.9,15.2 138.9,19.3 143.5,20 140.2,23.2 141,27.7 136.9,25.5 132.9,27.7 133.7,23.2 130.4,20 
		134.9,19.3 	"/>
	<g>
		<g>
			
				<ellipse transform="matrix(0.7115 -0.7027 0.7027 0.7115 -20.6191 86.3437)" class="st0" cx="94.8" cy="68.3" rx="13.4" ry="13.4"/>
			
				<ellipse transform="matrix(0.7115 -0.7027 0.7027 0.7115 -20.7139 86.1087)" class="st0" cx="94.5" cy="68.3" rx="6.8" ry="6.8"/>
		</g>
		
			<ellipse transform="matrix(0.9233 -0.384 0.384 0.9233 -33.7104 36.8588)" class="st0" cx="75.4" cy="102.8" rx="13.4" ry="13.4"/>
		<g>
			
				<ellipse transform="matrix(0.7115 -0.7027 0.7027 0.7115 -63.8662 104.6624)" class="st0" cx="95.5" cy="130.1" rx="6.8" ry="6.8"/>
			
				<ellipse transform="matrix(0.7115 -0.7027 0.7027 0.7115 -63.8662 104.6624)" class="st0" cx="95.5" cy="130.1" rx="13.4" ry="13.4"/>
			<line class="st0" x1="88.7" y1="130.1" x2="102.3" y2="130.2"/>
		</g>
		<g>
			<path class="st0" d="M135.9,110.1l0.9,7.8c0.4,4.1-2.5,7.8-6.6,8.2l-6.1,0.7c-4.1,0.4-7.8-2.5-8.2-6.6l-0.9-7.8"/>
			<path class="st0" d="M113,94.2l-0.9-8.6c-0.4-4.1,2.5-7.8,6.6-8.2l6.1-0.7c4.1-0.4,7.8,2.5,8.2,6.6l0.9,8.6"/>
			
				<rect x="116.8" y="90" transform="matrix(-0.1083 -0.9941 0.9941 -0.1083 36.5149 236.974)" class="st0" width="15.6" height="24.2"/>
			<line class="st0" x1="115.1" y1="113.4" x2="130.1" y2="126.1"/>
			<line class="st0" x1="121.7" y1="110.2" x2="136.2" y2="121.8"/>
			<line class="st0" x1="112" y1="85.6" x2="122.3" y2="93.9"/>
			<line class="st0" x1="114.9" y1="79.7" x2="132" y2="93.5"/>
			<line class="st0" x1="122.6" y1="76.9" x2="132.6" y2="85"/>
		</g>
		<polyline class="st0" points="45.7,64.8 66.7,118.2 62.9,119.8 35.7,57.9 		"/>
		<polyline class="st0" points="29.8,44.4 19.4,20.5 27,17.4 41,53 		"/>
		<polygon class="st0" points="6.9,27.8 94.1,92.3 91.7,95.6 2.2,34.5 		"/>
		<g>
			<ellipse transform="matrix(0.9233 -0.384 0.384 0.9233 -35.9008 36.3983)" class="st0" cx="73.2" cy="108.1" rx="2.7" ry="2.7"/>
			<ellipse transform="matrix(0.9233 -0.384 0.384 0.9233 -34.3648 34.5793)" class="st0" cx="69.4" cy="103.3" rx="2.7" ry="2.7"/>
			<ellipse transform="matrix(0.9233 -0.384 0.384 0.9233 -33.7877 36.7663)" class="st0" cx="75.2" cy="103" rx="2.7" ry="2.7"/>
			<ellipse transform="matrix(0.9233 -0.384 0.384 0.9233 -35.1977 38.5007)" class="st0" cx="78.8" cy="107.4" rx="2.7" ry="2.7"/>
			<ellipse transform="matrix(0.9233 -0.384 0.384 0.9233 -32.2442 35.2307)" class="st0" cx="72.1" cy="98.4" rx="2.7" ry="2.7"/>
			<ellipse transform="matrix(0.9233 -0.384 0.384 0.9233 -32.9852 38.824)" class="st0" cx="80.7" cy="102" rx="2.7" ry="2.7"/>
			<ellipse transform="matrix(0.9233 -0.384 0.384 0.9233 -31.4519 37.2732)" class="st0" cx="77.6" cy="97.4" rx="2.7" ry="2.7"/>
		</g>
	</g>
</g>
</svg>
