<?xml version="1.0" encoding="utf-8"?>
<!-- Generator: Adobe Illustrator 19.2.1, SVG Export Plug-In . SVG Version: 6.00 Build 0)  -->
<svg version="1.0" id="Layer_1" xmlns="http://www.w3.org/2000/svg" xmlns:xlink="http://www.w3.org/1999/xlink" x="0px" y="0px"
	 viewBox="0 0 150 150" style="enable-background:new 0 0 150 150;" xml:space="preserve">
<style type="text/css">
	.st0{fill:none;stroke:#3F3E3E;stroke-width:3;stroke-linecap:round;stroke-linejoin:round;stroke-miterlimit:10;}
	.st1{fill:#3F3E3E;}
	.st2{fill:#FFFFFF;}
	.st3{fill:#3F3D3E;}
	.st4{fill:#FFD83D;}
	.st5{fill:none;stroke:#3F3E3E;stroke-width:3;stroke-linecap:round;stroke-linejoin:round;}
	.st6{fill:none;stroke:#3F3E3E;stroke-width:3;stroke-linecap:round;stroke-linejoin:round;stroke-dasharray:6.7627,6.7627;}
	.st7{fill:none;stroke:#3F3E3E;stroke-width:3;stroke-linecap:round;stroke-linejoin:round;stroke-dasharray:4.828,9.6561;}
	.st8{fill:#FFFFFF;stroke:#3F3E3E;stroke-width:3;stroke-linecap:round;stroke-linejoin:round;stroke-miterlimit:10;}
	.st9{fill:none;stroke:#37383A;stroke-width:3;stroke-linecap:round;stroke-linejoin:round;stroke-miterlimit:10;}
	.st10{fill:none;stroke:#3F3E3E;stroke-width:3;stroke-linecap:round;stroke-linejoin:round;stroke-dasharray:7.2824,7.2824;}
</style>
<g>
	<g>
		<path class="st1" d="M56.2,138.7c-0.5,0-1-0.2-1.4-0.6c-0.4-0.4-0.6-0.9-0.6-1.4l-0.1-6.6c0-1.1,0.9-2,2-2c0,0,0,0,0,0
			c1.1,0,2,0.9,2,2l0.1,4.6l31.1-0.4l-0.1-5c0-1.1,0.9-2,2-2c0,0,0,0,0,0c1.1,0,2,0.9,2,2l0.1,7c0,0.5-0.2,1-0.6,1.4
			c-0.4,0.4-0.9,0.6-1.4,0.6L56.2,138.7C56.2,138.7,56.2,138.7,56.2,138.7z"/>
		<path class="st1" d="M73,132.2c-27.3,0-49.5-17.8-49.8-40c0-0.5,0.2-1,0.6-1.4c0.4-0.4,0.9-0.6,1.4-0.6l96.1-1.1
			c0.5,0,1,0.2,1.4,0.6c0.4,0.4,0.6,0.9,0.6,1.4c0.3,22.4-22,40.8-49.6,41.1C73.4,132.2,73.2,132.2,73,132.2z M27.2,94.1
			c1.5,19.2,21.8,34.4,46.4,34c24.6-0.3,44.5-15.9,45.6-35.1L27.2,94.1z"/>
		<path class="st1" d="M34.5,101.7c-1.1,0-2-0.9-2-2c0-1.1,0.9-2,2-2l77-0.9c0,0,0,0,0,0c1.1,0,2,0.9,2,2c0,1.1-0.9,2-2,2
			L34.5,101.7C34.5,101.7,34.5,101.7,34.5,101.7z"/>
	</g>
	<path class="st1" d="M39.5,93c-1.1,0-2-0.9-2-2c0-4.6,1.9-6.9,3.6-9c1.5-1.9,2.7-3.3,2.7-6.5c0-3.2-1.2-4.6-2.7-6.5
		c-1.7-2.1-3.6-4.4-3.6-9s1.9-6.9,3.6-9c1.5-1.9,2.7-3.3,2.7-6.5c0-3.2-1.2-4.6-2.7-6.5c-1.7-2.1-3.6-4.4-3.6-9c0-4.6,1.9-6.9,3.6-9
		c1.5-1.9,2.7-3.3,2.7-6.5c0-1.1,0.9-2,2-2c1.1,0,2,0.9,2,2c0,4.6-1.9,6.9-3.6,9c-1.5,1.9-2.7,3.3-2.7,6.5s1.2,4.6,2.7,6.5
		c1.7,2.1,3.6,4.4,3.6,9c0,4.6-1.9,6.9-3.6,9c-1.5,1.9-2.7,3.3-2.7,6.5c0,3.2,1.2,4.6,2.7,6.5c1.7,2.1,3.6,4.4,3.6,9
		c0,4.6-1.9,6.9-3.6,9c-1.5,1.9-2.7,3.3-2.7,6.5C41.5,92.1,40.6,93,39.5,93z"/>
	<path class="st1" d="M51.6,93c-1.1,0-2-0.9-2-2c0-4.7,2.4-7.1,4.3-9.1c1.8-1.8,3.2-3.3,3.2-6.4c0-1.3-0.2-2.4-0.8-3.3
		c-0.5-1-0.1-2.2,0.8-2.7c1-0.5,2.2-0.1,2.7,0.8c0.8,1.6,1.2,3.3,1.2,5.2c0,4.7-2.4,7.1-4.3,9.1c-1.8,1.8-3.2,3.3-3.2,6.4
		C53.6,92.1,52.7,93,51.6,93z"/>
	<path class="st1" d="M58.8,49.1c-0.2,0-0.3,0-0.5-0.1c-1.1-0.3-1.7-1.4-1.4-2.4c0.2-0.6,0.3-1.3,0.3-2.1c0-3.1-1.4-4.5-3.2-6.4
		c-1.9-2-4.3-4.4-4.3-9.1c0-4.7,2.4-7.1,4.3-9.1c1.8-1.8,3.2-3.3,3.2-6.4c0-1.1,0.9-2,2-2c1.1,0,2,0.9,2,2c0,4.7-2.4,7.1-4.3,9.1
		C55,24.5,53.6,26,53.6,29c0,3.1,1.4,4.5,3.2,6.4c1.9,2,4.3,4.4,4.3,9.1c0,1.1-0.1,2.1-0.4,3.1C60.4,48.5,59.6,49.1,58.8,49.1z"/>
	<path class="st1" d="M64.3,93c-1.1,0-2-0.9-2-2c0-4.7,2.4-7.1,4.3-9.1c1.8-1.8,3.2-3.3,3.2-6.4s-1.4-4.5-3.2-6.4
		c-0.5-0.5-1-1-1.5-1.6c-0.7-0.8-0.6-2.1,0.2-2.8c0.8-0.7,2.1-0.6,2.8,0.2c0.4,0.5,0.8,0.9,1.3,1.4c1.9,2,4.3,4.4,4.3,9.1
		c0,4.7-2.4,7.1-4.3,9.1c-1.8,1.8-3.2,3.3-3.2,6.4C66.2,92.1,65.4,93,64.3,93z"/>
	<path class="st1" d="M68.1,54.1c-0.5,0-1-0.2-1.4-0.6c-0.8-0.8-0.8-2,0-2.8c1.6-1.7,3.1-3.2,3.1-6.3c0-3.1-1.4-4.5-3.2-6.4
		c-1.9-2-4.3-4.4-4.3-9.1c0-4.7,2.4-7.1,4.3-9.1c1.8-1.8,3.2-3.3,3.2-6.4c0-1.1,0.9-2,2-2c1.1,0,2,0.9,2,2c0,4.7-2.4,7.1-4.3,9.1
		c-1.8,1.8-3.2,3.3-3.2,6.4c0,3.1,1.4,4.5,3.2,6.4c1.9,2,4.3,4.4,4.3,9.1c0,4.7-2.3,7.1-4.2,9C69.1,53.9,68.6,54.1,68.1,54.1z"/>
	<path class="st1" d="M76.9,93c-1.1,0-2-0.9-2-2c0-4.7,2.4-7.1,4.3-9.1c1-1,1.9-1.9,2.4-3.1c0.5-1,1.7-1.4,2.7-0.9
		c1,0.5,1.4,1.7,0.9,2.7c-0.9,1.6-2,2.8-3.1,4c-1.8,1.8-3.2,3.3-3.2,6.4C78.9,92.1,78,93,76.9,93z"/>
	<path class="st1" d="M83.4,73.2c-0.7,0-1.4-0.4-1.8-1.1c-0.6-1.1-1.5-2.1-2.4-3c-1.9-2-4.3-4.4-4.3-9.1c0-4.7,2.4-7.1,4.3-9.1
		c1.8-1.8,3.2-3.3,3.2-6.4c0-3.1-1.4-4.5-3.2-6.4c-1.9-2-4.3-4.4-4.3-9.1c0-4.7,2.4-7.1,4.3-9.1c1.8-1.8,3.2-3.3,3.2-6.4
		c0-1.1,0.9-2,2-2s2,0.9,2,2c0,4.7-2.4,7.1-4.3,9.1c-1.8,1.8-3.2,3.3-3.2,6.4c0,3.1,1.4,4.5,3.2,6.4c1.9,2,4.3,4.4,4.3,9.1
		s-2.4,7.1-4.3,9.1c-1.8,1.8-3.2,3.3-3.2,6.4c0,3.1,1.4,4.5,3.2,6.4c1.1,1.1,2.3,2.3,3.1,4c0.5,1,0.1,2.2-0.8,2.7
		C84,73.2,83.7,73.2,83.4,73.2z"/>
	<path class="st1" d="M89.5,93c-1.1,0-2-0.9-2-2c0-2.5,0.7-4.6,2.1-6.6c0.6-0.9,1.9-1.1,2.8-0.4c0.9,0.6,1.1,1.9,0.4,2.8
		c-0.6,0.9-1.4,2.1-1.4,4.3C91.5,92.1,90.6,93,89.5,93z"/>
	<path class="st1" d="M91.8,68.1c-0.6,0-1.1-0.2-1.5-0.7c-1.3-1.5-2.7-3.7-2.7-7.4c0-4.7,2.4-7.1,4.3-9.1c1.8-1.8,3.2-3.3,3.2-6.4
		c0-3.1-1.4-4.5-3.2-6.4c-1.9-2-4.3-4.4-4.3-9.1c0-4.7,2.4-7.1,4.3-9.1c1.8-1.8,3.2-3.3,3.2-6.4c0-1.1,0.9-2,2-2c1.1,0,2,0.9,2,2
		c0,4.7-2.4,7.1-4.3,9.1c-1.8,1.8-3.2,3.3-3.2,6.4c0,3.1,1.4,4.5,3.2,6.4c1.9,2,4.3,4.4,4.3,9.1c0,4.7-2.4,7.1-4.3,9.1
		c-1.8,1.8-3.2,3.3-3.2,6.4c0,2.4,0.9,3.7,1.8,4.9c0.7,0.8,0.6,2.1-0.3,2.8C92.7,67.9,92.2,68.1,91.8,68.1z"/>
	<path class="st1" d="M102,93c-1.1,0-2-0.9-2-2c0-4.7,2.4-7.1,4.3-9.1c1.8-1.8,3.2-3.3,3.2-6.4s-1.4-4.5-3.2-6.4
		c-1.9-2-4.3-4.4-4.3-9.1c0-4.7,2.4-7.1,4.3-9.1c1.8-1.8,3.2-3.3,3.2-6.4c0-3.1-1.4-4.5-3.2-6.4c-1.9-2-4.3-4.4-4.3-9.1
		c0-4.7,2.4-7.1,4.3-9.1c1.8-1.8,3.2-3.3,3.2-6.4c0-1.1,0.9-2,2-2s2,0.9,2,2c0,4.7-2.4,7.1-4.3,9.1c-1.8,1.8-3.2,3.3-3.2,6.4
		c0,3.1,1.4,4.5,3.2,6.4c1.9,2,4.3,4.4,4.3,9.1s-2.4,7.1-4.3,9.1c-1.8,1.8-3.2,3.3-3.2,6.4c0,3.1,1.4,4.5,3.2,6.4
		c1.9,2,4.3,4.4,4.3,9.1s-2.4,7.1-4.3,9.1c-1.8,1.8-3.2,3.3-3.2,6.4C104,92.1,103.1,93,102,93z"/>
	<path class="st1" d="M58.2,72.8c-1.5,0-3-0.3-4.5-0.9c-3.3-1.3-5.6-3.8-6.5-6.9c-1.1-3.5-0.3-7.6,2.1-11.1
		c4.4-6.5,11.5-10.5,15.7-8.8c4.1,1.7,6.3,9.8,4.7,17.4l0,0c-0.9,4.1-3.2,7.5-6.5,9.2C61.6,72.4,59.9,72.8,58.2,72.8z M62.7,48.6
		c-2.1,0-6.8,2.4-10.2,7.5c-1.7,2.6-2.3,5.4-1.6,7.8c0.6,2,2.1,3.5,4.3,4.4c2.1,0.9,4.3,0.8,6.1-0.2c2.2-1.2,3.8-3.5,4.4-6.5l0,0
		c1.3-6.4-0.7-12.2-2.4-12.9C63.2,48.6,63,48.6,62.7,48.6z"/>
	<path class="st1" d="M58.1,66.7c-0.7,0-1.4-0.1-2.1-0.4c-2.8-1.2-4.2-4.4-3-7.3s4.4-4.2,7.3-3c2.8,1.2,4.2,4.4,3,7.3v0
		C62.4,65.4,60.3,66.7,58.1,66.7z M58.1,59.6c-0.2,0-0.4,0-0.6,0.1c-0.4,0.2-0.7,0.5-0.9,0.9c-0.2,0.4-0.2,0.8,0,1.2
		c0.2,0.4,0.5,0.7,0.9,0.9c0.8,0.3,1.7,0,2.1-0.8c0.2-0.4,0.2-0.8,0-1.2c-0.2-0.4-0.5-0.7-0.9-0.9C58.5,59.6,58.3,59.6,58.1,59.6z
		 M61.4,62.5L61.4,62.5L61.4,62.5z"/>
	<path class="st1" d="M116.8,65.5c-3.3,0-5.9-2.7-5.9-5.9c0-3.3,2.7-5.9,5.9-5.9c3.3,0,5.9,2.7,5.9,5.9
		C122.7,62.8,120,65.5,116.8,65.5z M116.8,57.5c-1.1,0-2,0.9-2,2s0.9,2,2,2s2-0.9,2-2S117.8,57.5,116.8,57.5z"/>
	<path class="st1" d="M33.4,50.3c-3.3,0-5.9-2.7-5.9-5.9c0-3.3,2.7-5.9,5.9-5.9c3.3,0,5.9,2.7,5.9,5.9
		C39.4,47.6,36.7,50.3,33.4,50.3z M33.4,42.4c-1.1,0-2,0.9-2,2s0.9,2,2,2s2-0.9,2-2S34.5,42.4,33.4,42.4z"/>
	<path class="st1" d="M88,87.1c-0.8,0-1.6-0.1-2.4-0.6C84,85.6,83.4,84,83,82.6c-0.2-0.5-0.4-1.1-0.6-1.4c-0.2-0.3-0.5-0.7-0.9-1.1
		c-1-1.1-2.1-2.4-2.1-4.3s1.2-3.2,2.1-4.3c0.4-0.4,0.7-0.8,0.9-1.1c0.2-0.3,0.4-0.9,0.6-1.4c0.5-1.3,1-3,2.6-3.9
		c1.6-0.9,3.3-0.6,4.7-0.3c0.6,0.1,1.1,0.2,1.6,0.2s1-0.1,1.6-0.2c1.4-0.3,3.1-0.6,4.7,0.3c1.6,0.9,2.2,2.6,2.6,3.9
		c0.2,0.5,0.4,1.1,0.6,1.4c0.2,0.3,0.5,0.7,0.9,1.1c1,1.1,2.1,2.4,2.1,4.3c0,1.9-1.2,3.2-2.1,4.3c-0.4,0.4-0.7,0.8-0.9,1.1
		c-0.2,0.3-0.4,0.9-0.6,1.4c-0.5,1.3-1,3-2.6,3.9c-1.6,0.9-3.3,0.6-4.7,0.3c-0.6-0.1-1.1-0.2-1.6-0.2s-1,0.1-1.6,0.2
		C89.6,87,88.8,87.1,88,87.1z M88,68.3c-0.2,0-0.3,0-0.4,0.1c-0.3,0.2-0.6,1.1-0.9,1.8c-0.2,0.7-0.5,1.4-0.9,2.1
		c-0.4,0.7-0.9,1.2-1.4,1.8c-0.5,0.6-1.1,1.3-1.1,1.7c0,0.4,0.6,1.1,1.1,1.7c0.5,0.5,1,1.1,1.4,1.8c0.4,0.7,0.6,1.4,0.9,2.1
		c0.2,0.7,0.5,1.6,0.9,1.8c0.3,0.2,1.3,0,1.9-0.2c0.7-0.1,1.5-0.3,2.3-0.3c0.8,0,1.6,0.2,2.3,0.3c0.7,0.1,1.6,0.3,1.9,0.2
		c0.3-0.2,0.6-1.1,0.9-1.8c0.2-0.7,0.5-1.4,0.9-2.1c0.4-0.7,0.9-1.2,1.4-1.8c0.5-0.6,1.1-1.3,1.1-1.7c0-0.4-0.6-1.1-1.1-1.7
		c-0.5-0.5-1-1.1-1.4-1.8c-0.4-0.7-0.6-1.4-0.9-2.1c-0.2-0.7-0.5-1.6-0.9-1.8c-0.3-0.2-1.3,0-1.9,0.2c-0.7,0.1-1.5,0.3-2.3,0.3
		s-1.6-0.2-2.3-0.3C89,68.5,88.4,68.3,88,68.3z"/>
	<path class="st1" d="M91.9,80.6c-2.7,0-4.9-2.2-4.9-4.9c0-2.7,2.2-4.9,4.9-4.9c2.7,0,4.9,2.2,4.9,4.9
		C96.8,78.4,94.6,80.6,91.9,80.6z M91.9,74.8c-0.5,0-0.9,0.4-0.9,0.9c0,0.5,0.4,0.9,0.9,0.9c0.5,0,0.9-0.4,0.9-0.9
		C92.8,75.2,92.4,74.8,91.9,74.8z"/>
</g>
</svg>
