<?xml version="1.0" encoding="utf-8"?>
<!-- Generator: Adobe Illustrator 19.2.1, SVG Export Plug-In . SVG Version: 6.00 Build 0)  -->
<svg version="1.0" id="Layer_1" xmlns="http://www.w3.org/2000/svg" xmlns:xlink="http://www.w3.org/1999/xlink" x="0px" y="0px"
	 viewBox="0 0 150 150" style="enable-background:new 0 0 150 150;" xml:space="preserve">
<style type="text/css">
	.st0{fill:none;stroke:#3F3E3E;stroke-width:3;stroke-linecap:round;stroke-linejoin:round;stroke-miterlimit:10;}
	.st1{fill:#3F3E3E;}
	.st2{fill:#FFFFFF;}
	.st3{fill:#3F3D3E;}
	.st4{fill:#FFD83D;}
	.st5{fill:none;stroke:#3F3E3E;stroke-width:3;stroke-linecap:round;stroke-linejoin:round;}
	.st6{fill:none;stroke:#3F3E3E;stroke-width:3;stroke-linecap:round;stroke-linejoin:round;stroke-dasharray:6.7627,6.7627;}
	.st7{fill:none;stroke:#3F3E3E;stroke-width:3;stroke-linecap:round;stroke-linejoin:round;stroke-dasharray:4.828,9.6561;}
	.st8{fill:#FFFFFF;stroke:#3F3E3E;stroke-width:3;stroke-linecap:round;stroke-linejoin:round;stroke-miterlimit:10;}
	.st9{fill:none;stroke:#37383A;stroke-width:3;stroke-linecap:round;stroke-linejoin:round;stroke-miterlimit:10;}
	.st10{fill:none;stroke:#3F3E3E;stroke-width:3;stroke-linecap:round;stroke-linejoin:round;stroke-dasharray:7.2824,7.2824;}
</style>
<g>
	<path class="st0" d="M105.4,62c3.2-1.4,5.5-4.6,5.5-8.3c0-3.3-1.8-6.2-4.4-7.8c0.1-1.1,0.2-2.2,0.2-3.3c0-18.2-14.8-33-33-33
		c-18.2,0-33,14.8-33,33c0,1.2,0.1,2.4,0.2,3.6c-2.4,1.6-4,4.4-4,7.5c0,3.7,2.3,7,5.5,8.3"/>
	<path class="st0" d="M106.2,61.7c2.8-1.5,4.8-4.6,4.8-8c0-5-4.1-9.1-9.1-9.1c-1,0-1.9,0.2-2.8,0.4"/>
	<path class="st0" d="M60.2,60.3l13.2-1l3.7,2.8l28.6,0l-31.1,79.6c-0.3,0.9-1.6,0.9-1.9,0L41.5,62.1L52,61.2"/>
	<line class="st0" x1="60.2" y1="69.7" x2="90.4" y2="93.6"/>
	<line class="st0" x1="76.6" y1="61.8" x2="98.9" y2="79.4"/>
	<line class="st0" x1="68.7" y1="124.6" x2="75.9" y2="130.3"/>
	<line class="st0" x1="59.6" y1="101.3" x2="80.8" y2="118"/>
	<line class="st0" x1="56.3" y1="82.6" x2="85.6" y2="105.7"/>
	<line class="st0" x1="50.5" y1="78" x2="52" y2="79.1"/>
	<line class="st0" x1="83.7" y1="72.1" x2="56.5" y2="93.6"/>
	<line class="st0" x1="52.3" y1="80.8" x2="51.8" y2="81.2"/>
	<line class="st0" x1="73.3" y1="64.2" x2="60.2" y2="74.5"/>
	<line class="st0" x1="78.2" y1="124.6" x2="70.9" y2="130.3"/>
	<line class="st0" x1="87.3" y1="101.3" x2="66.1" y2="118.1"/>
	<line class="st0" x1="93.7" y1="80.1" x2="61.3" y2="105.7"/>
	<line class="st0" x1="100" y1="71" x2="94.3" y2="75.5"/>
	<line class="st0" x1="88.9" y1="63.9" x2="84.4" y2="67.4"/>
	<path class="st0" d="M52,60.1v19.3c0,1.7,1.8,3.2,4.1,3.2c2.3,0,4.1-1.4,4.1-3.2V60.3"/>
	<line class="st0" x1="77.5" y1="25.3" x2="80.2" y2="28.5"/>
	<line class="st0" x1="64.2" y1="29.2" x2="61" y2="31.9"/>
	<line class="st0" x1="57.8" y1="24.7" x2="54" y2="23.1"/>
	<line class="st0" x1="67.1" y1="18.3" x2="68.3" y2="22.3"/>
	<line class="st0" x1="91.7" y1="24.4" x2="89.3" y2="27.7"/>
	<line class="st0" x1="84.8" y1="19.5" x2="80.6" y2="19.4"/>
</g>
</svg>
