<?xml version="1.0" encoding="utf-8"?>
<!-- Generator: Adobe Illustrator 19.2.1, SVG Export Plug-In . SVG Version: 6.00 Build 0)  -->
<svg version="1.0" id="Layer_1" xmlns="http://www.w3.org/2000/svg" xmlns:xlink="http://www.w3.org/1999/xlink" x="0px" y="0px"
	 viewBox="0 0 150 150" style="enable-background:new 0 0 150 150;" xml:space="preserve">
<style type="text/css">
	.st0{fill:none;stroke:#3F3E3E;stroke-width:3;stroke-linecap:round;stroke-linejoin:round;stroke-miterlimit:10;}
	.st1{fill:#3F3E3E;}
	.st2{fill:#FFFFFF;}
	.st3{fill:#3F3D3E;}
	.st4{fill:#FFD83D;}
	.st5{fill:none;stroke:#3F3E3E;stroke-width:3;stroke-linecap:round;stroke-linejoin:round;}
	.st6{fill:none;stroke:#3F3E3E;stroke-width:3;stroke-linecap:round;stroke-linejoin:round;stroke-dasharray:6.7627,6.7627;}
	.st7{fill:none;stroke:#3F3E3E;stroke-width:3;stroke-linecap:round;stroke-linejoin:round;stroke-dasharray:4.828,9.6561;}
	.st8{fill:#FFFFFF;stroke:#3F3E3E;stroke-width:3;stroke-linecap:round;stroke-linejoin:round;stroke-miterlimit:10;}
	.st9{fill:none;stroke:#37383A;stroke-width:3;stroke-linecap:round;stroke-linejoin:round;stroke-miterlimit:10;}
	.st10{fill:none;stroke:#3F3E3E;stroke-width:3;stroke-linecap:round;stroke-linejoin:round;stroke-dasharray:7.2824,7.2824;}
</style>
<g>
	<path class="st0" d="M52.1,44.7c-6.9-3.3-14.3-3.8-21.9-1.3C14.8,48.5,6.3,65.3,10.5,81.8c0.3,1.3,1.7,2.1,3,1.6l24.7-7.9l4.8-1.6
		l24.5-8.3c1.3-0.4,1.9-1.8,1.4-3.1c-6.4-15.7-23.3-24.2-38.7-19.1c-7.6,2.5-13.2,7.4-16.8,14.1"/>
	<path class="st0" d="M68.3,61.3c0.1-0.2,2.5-3.1,2.6-3.3c0.1-0.2-0.6-0.3-0.7-0.5c-0.7-1.7-0.7-3.6-1.7-5.1c-1-1.5-2.9-2.2-4.2-3.4
		c-1.3-1.2-2.1-3.1-3.6-4.1c-1.5-1-3.5-0.9-5.2-1.6c-1.6-0.7-3-2.2-4.8-2.6c-1.4-0.3-2.9,0-4.3,0.1c-0.1,0-0.2,0-0.2,0
		c-1.8-0.2-3.6-1.3-5.5-1.2c-0.3,0-0.6,0.1-0.9,0.1c-1.4,0.1-2.8,1-4.3,1.4c-0.1,0-0.2,0-0.2,0c-1.8,0.3-3.8-0.2-5.6,0.4
		c0,0-0.1,0-0.1,0c0,0-0.1,0-0.1,0c-1.8,0.6-3.1,2.2-4.8,3c-0.1,0-0.1,0.1-0.2,0.1c-1.4,0.5-3,0.7-4.3,1.4c-0.3,0.1-0.5,0.3-0.8,0.4
		c-1.5,1.1-2.4,3-3.7,4.2c-0.1,0.1-0.1,0.1-0.2,0.2c-1.2,0.8-2.6,1.4-3.5,2.5c-1.1,1.4-1.4,3.4-2.3,4.9c-0.9,1.6-2.6,2.8-3.2,4.4
		c-0.6,1.7-0.2,3.7-0.5,5.4c-0.3,1.8-1.4,3.5-1.3,5.3c0.1,1.8,1.2,3.3,1.7,5.1c0.1,0.2-0.4,0.7-0.2,0.8c0.2,0.1,4,1.1,4,1.1"/>
	<line class="st0" x1="21.2" y1="74.7" x2="18.1" y2="75.6"/>
	<line class="st0" x1="23.8" y1="68.8" x2="21" y2="69.7"/>
	<line class="st0" x1="44.7" y1="50.1" x2="41.8" y2="51"/>
	<line class="st0" x1="41" y1="55.6" x2="39" y2="56.3"/>
	<line class="st0" x1="34.9" y1="50.9" x2="33" y2="51.5"/>
	<line class="st0" x1="60.9" y1="63.2" x2="58.9" y2="63.9"/>
	<path class="st0" d="M93.1,94.3c-4.9-5.8-11.4-9.4-19.3-10.3C57.6,82.2,42.9,94,39.9,110.7c-0.2,1.3,0.7,2.6,2,2.7l25.7,3l5.1,0.6
		l25.8,2.6c1.3,0.1,2.5-0.9,2.5-2.2c0.7-17-11.1-31.7-27.3-33.4c-7.9-0.9-15.1,1.2-21.1,5.9"/>
	<path class="st0" d="M101,116.1c0.2-0.1,3.5-1.8,3.7-1.9c0.2-0.1-0.5-0.5-0.4-0.7c0.1-1.8,0.9-3.6,0.6-5.3
		c-0.3-1.8-1.7-3.2-2.4-4.9c-0.7-1.6-0.6-3.7-1.6-5.2c-0.9-1.5-2.8-2.3-4-3.6c-1.2-1.3-1.8-3.2-3.2-4.3c-1.1-0.9-2.6-1.2-4-1.7
		c-0.1,0-0.1-0.1-0.2-0.1c-1.6-0.9-2.8-2.6-4.5-3.4c-0.3-0.1-0.6-0.2-0.9-0.3c-1.4-0.5-3-0.3-4.5-0.5c-0.1,0-0.2,0-0.2-0.1
		c-1.8-0.4-3.4-1.7-5.3-1.9c0,0-0.1,0-0.1,0c0,0-0.1,0-0.1,0c-1.9-0.2-3.8,0.7-5.6,0.8c-0.1,0-0.2,0-0.2,0c-1.5-0.1-3-0.6-4.5-0.5
		c-0.3,0-0.6,0-0.9,0.1c-1.8,0.3-3.4,1.7-5.1,2.3c-0.1,0-0.2,0-0.2,0.1c-1.4,0.2-3,0.2-4.3,0.8c-1.6,0.8-2.7,2.5-4.1,3.5
		c-1.5,1-3.5,1.4-4.7,2.7c-1.3,1.3-1.7,3.3-2.7,4.7c-1,1.5-2.7,2.6-3.4,4.2c-0.7,1.6-0.3,3.5-0.6,5.3c0,0.2-0.7,0.5-0.6,0.6
		c0.1,0.2,3.2,2.7,3.2,2.7"/>
	<line class="st0" x1="52.5" y1="108.7" x2="49.4" y2="108.3"/>
	<line class="st0" x1="57.4" y1="104.4" x2="54.5" y2="104.1"/>
	<line class="st0" x1="84.1" y1="96.1" x2="81.1" y2="95.7"/>
	<line class="st0" x1="78.5" y1="99.6" x2="76.3" y2="99.4"/>
	<line class="st0" x1="74.9" y1="92.7" x2="72.9" y2="92.5"/>
	<line class="st0" x1="93.1" y1="114.6" x2="90.9" y2="114.4"/>
	<path class="st0" d="M141.6,63.8c-1.6-7.4-5.8-13.6-12.4-18c-13.5-9-32-5.3-42.4,8.2c-0.8,1.1-0.6,2.6,0.5,3.3l21.5,14.5l4.2,2.8
		l21.7,14.2c1.1,0.7,2.6,0.4,3.3-0.8c8.4-14.8,4.7-33.2-8.8-42.3c-6.6-4.4-14-5.9-21.4-4.5"/>
	<path class="st0" d="M138.6,86.8c0.2,0,3.9,0,4.2,0c0.2,0-0.2-0.7,0-0.8c0.9-1.6,2.4-2.8,3-4.4c0.5-1.7-0.1-3.6,0.1-5.4
		c0.2-1.8,1.1-3.5,1-5.3c-0.2-1.8-1.4-3.3-1.9-5.1c-0.5-1.7-0.1-3.7-0.9-5.4c-0.6-1.3-1.8-2.2-2.7-3.4c0-0.1-0.1-0.1-0.1-0.2
		c-1-1.6-1.3-3.6-2.5-5.1c-0.2-0.2-0.4-0.4-0.6-0.6c-1-1-2.5-1.6-3.7-2.5c-0.1-0.1-0.1-0.1-0.2-0.2c-1.4-1.2-2.2-3.1-3.8-4.2
		c0,0-0.1,0-0.1-0.1c0,0-0.1-0.1-0.1-0.1c-1.6-1-3.7-1.1-5.3-1.9c-0.1,0-0.1-0.1-0.2-0.1c-1.3-0.8-2.4-2-3.8-2.5
		c-0.3-0.1-0.5-0.3-0.8-0.3c-1.8-0.6-3.8,0-5.6-0.3c-0.1,0-0.2,0-0.2,0c-1.4-0.5-2.7-1.2-4.2-1.2c-1.8,0-3.5,1-5.3,1.3
		c-1.8,0.2-3.7-0.3-5.4,0.2c-1.7,0.5-3,2.1-4.5,3c-1.6,0.8-3.6,1-5,2.2c-1.4,1.1-1.9,3-3,4.4C86.7,48.9,86,48.8,86,49
		c0.1,0.2,1.6,3.8,1.6,3.8"/>
	<line class="st0" x1="99" y1="57.9" x2="96.4" y2="56.1"/>
	<line class="st0" x1="105.3" y1="56.4" x2="102.8" y2="54.7"/>
	<line class="st0" x1="132.8" y1="61.2" x2="130.3" y2="59.6"/>
	<line class="st0" x1="126.2" y1="61.8" x2="124.4" y2="60.6"/>
	<line class="st0" x1="126.1" y1="54" x2="124.5" y2="52.9"/>
	<line class="st0" x1="131.7" y1="81.7" x2="129.9" y2="80.5"/>
</g>
</svg>
