<?xml version="1.0" encoding="utf-8"?>
<!-- Generator: Adobe Illustrator 19.2.1, SVG Export Plug-In . SVG Version: 6.00 Build 0)  -->
<svg version="1.0" id="Layer_1" xmlns="http://www.w3.org/2000/svg" xmlns:xlink="http://www.w3.org/1999/xlink" x="0px" y="0px"
	 viewBox="0 0 150 150" style="enable-background:new 0 0 150 150;" xml:space="preserve">
<style type="text/css">
	.st0{fill:none;stroke:#3F3E3E;stroke-width:3;stroke-linecap:round;stroke-linejoin:round;stroke-miterlimit:10;}
	.st1{fill:#3F3E3E;}
	.st2{fill:#FFFFFF;}
	.st3{fill:#3F3D3E;}
	.st4{fill:#FFD83D;}
	.st5{fill:none;stroke:#3F3E3E;stroke-width:3;stroke-linecap:round;stroke-linejoin:round;}
	.st6{fill:none;stroke:#3F3E3E;stroke-width:3;stroke-linecap:round;stroke-linejoin:round;stroke-dasharray:6.7627,6.7627;}
	.st7{fill:none;stroke:#3F3E3E;stroke-width:3;stroke-linecap:round;stroke-linejoin:round;stroke-dasharray:4.828,9.6561;}
	.st8{fill:#FFFFFF;stroke:#3F3E3E;stroke-width:3;stroke-linecap:round;stroke-linejoin:round;stroke-miterlimit:10;}
	.st9{fill:none;stroke:#37383A;stroke-width:3;stroke-linecap:round;stroke-linejoin:round;stroke-miterlimit:10;}
	.st10{fill:none;stroke:#3F3E3E;stroke-width:3;stroke-linecap:round;stroke-linejoin:round;stroke-dasharray:7.2824,7.2824;}
</style>
<g>
	<path class="st0" d="M25.2,63.2L38.8,116c1.1,4.2,5.4,6.8,9.6,5.7l67.7-17.4c4.2-1.1,6.8-5.4,5.7-9.6l-13.6-52.8
		c3.5-7.2,1.7-30.1-25.8-23.1C69.9,22,63.2,27.3,62.2,33c0,0.2-0.3,0.3-0.4,0.1c-3.5-4-12.4-5.8-25.1-2.5
		C7.1,38.2,19.9,61.8,25.2,63.2"/>
	<path class="st0" d="M110.4,39.6c7,4.5,10.4,9.7,12.4,17.4c2.1,8.3,0.4,16.9-4.3,24.7"/>
	<polyline class="st0" points="61.7,118.3 109.4,118.4 116.2,104.3 	"/>
	<g>
		<path class="st0" d="M24.2,64.1c-0.8,3-2.7,2.4-3.6,5.4c-0.8,3,1.1,3.5,0.3,6.5c-0.8,3-4.4,3-3.6,6c1.5,5.2,4.7,3.8,7.7,8.4
			c2.9,4.6,1.2,5.7,4.2,10.3c2.9,4.6,4.6,3.5,7.5,8.1"/>
	</g>
	<g>
		<path class="st0" d="M50.5,121.8c2.9,1.1,2.1,3,5,4.2c2.9,1.1,3.6-0.7,6.5,0.4s2.3,4.3,5.4,4.2c3.2-0.1,2.5-3.2,5.4-4.5
			c2.9-1.3,3.7,0.5,6.6-0.8c2.9-1.3,2.1-3.1,5-4.4"/>
	</g>
	<line class="st0" x1="52.4" y1="106.9" x2="55.9" y2="106"/>
	<line class="st0" x1="48.6" y1="92.3" x2="52.1" y2="91.4"/>
	<line class="st0" x1="62.7" y1="96.5" x2="66.2" y2="95.6"/>
	<line class="st0" x1="96.4" y1="35.7" x2="92.9" y2="36.6"/>
	<line class="st0" x1="86.1" y1="46.2" x2="82.6" y2="47.1"/>
</g>
</svg>
