<?xml version="1.0" encoding="utf-8"?>
<!-- Generator: Adobe Illustrator 19.2.1, SVG Export Plug-In . SVG Version: 6.00 Build 0)  -->
<svg version="1.0" id="Layer_1" xmlns="http://www.w3.org/2000/svg" xmlns:xlink="http://www.w3.org/1999/xlink" x="0px" y="0px"
	 viewBox="0 0 150 150" style="enable-background:new 0 0 150 150;" xml:space="preserve">
<style type="text/css">
	.st0{fill:none;stroke:#3F3E3E;stroke-width:3;stroke-linecap:round;stroke-linejoin:round;stroke-miterlimit:10;}
	.st1{fill:#3F3E3E;}
	.st2{fill:#FFFFFF;}
	.st3{fill:#3F3D3E;}
	.st4{fill:#FFD83D;}
	.st5{fill:none;stroke:#3F3E3E;stroke-width:3;stroke-linecap:round;stroke-linejoin:round;}
	.st6{fill:none;stroke:#3F3E3E;stroke-width:3;stroke-linecap:round;stroke-linejoin:round;stroke-dasharray:6.7627,6.7627;}
	.st7{fill:none;stroke:#3F3E3E;stroke-width:3;stroke-linecap:round;stroke-linejoin:round;stroke-dasharray:4.828,9.6561;}
	.st8{fill:#FFFFFF;stroke:#3F3E3E;stroke-width:3;stroke-linecap:round;stroke-linejoin:round;stroke-miterlimit:10;}
	.st9{fill:none;stroke:#37383A;stroke-width:3;stroke-linecap:round;stroke-linejoin:round;stroke-miterlimit:10;}
	.st10{fill:none;stroke:#3F3E3E;stroke-width:3;stroke-linecap:round;stroke-linejoin:round;stroke-dasharray:7.2824,7.2824;}
</style>
<g>
	<line class="st0" x1="25.9" y1="43.4" x2="19.6" y2="32.7"/>
	<line class="st0" x1="34.4" y1="58.3" x2="31.5" y2="53.1"/>
	<line class="st0" x1="47" y1="80.1" x2="43.7" y2="74.4"/>
	<line class="st0" x1="56" y1="95.5" x2="52.7" y2="89.8"/>
	<line class="st0" x1="65.2" y1="111.6" x2="60.9" y2="104.1"/>
	<line class="st0" x1="75.7" y1="129.7" x2="70.8" y2="121.3"/>
	<path class="st0" d="M22.7,21.2c-2.3-3.9-7.3-5.2-11.3-2.9s-5.2,7.3-2.9,11.3s7.3,5.2,11.3,2.9"/>
	
		<rect x="57.4" y="110.8" transform="matrix(0.8659 -0.5002 0.5002 0.8659 -49.0753 49.6968)" class="st0" width="21.6" height="11.2"/>
	<rect x="18" y="42.6" transform="matrix(0.8659 -0.5002 0.5002 0.8659 -20.2584 20.855)" class="st0" width="21.6" height="11.2"/>
	
		<rect x="39.2" y="79.3" transform="matrix(0.8659 -0.5002 0.5002 0.8659 -35.7669 36.3769)" class="st0" width="21.6" height="11.2"/>
	<path class="st0" d="M44.7,123.4c1.9-8.7,5.1-12.9,16.2-19.3s12.4-5.7,22.7-3.1c0,0-12.7-14-27.3-5.6
		C39.4,105.1,44.7,123.4,44.7,123.4z"/>
	<ellipse transform="matrix(0.8659 -0.5002 0.5002 0.8659 -27.9364 28.4497)" class="st0" cx="39.1" cy="66.3" rx="9.3" ry="9.3"/>
	<line class="st0" x1="124.8" y1="109.9" x2="131" y2="120.7"/>
	<line class="st0" x1="116.3" y1="95.1" x2="119.2" y2="100.2"/>
	<line class="st0" x1="103.6" y1="73.3" x2="106.9" y2="79"/>
	<line class="st0" x1="94.7" y1="57.8" x2="98" y2="63.5"/>
	<line class="st0" x1="85.5" y1="41.8" x2="89.8" y2="49.3"/>
	<line class="st0" x1="75" y1="23.7" x2="79.8" y2="32.1"/>
	<path class="st0" d="M142.5,123.8c2.2,3.9,0.9,9-3.1,11.2c-3.9,2.2-9,0.9-11.2-3.1c-2.2-3.9-0.9-9,3.1-11.2"/>
	<rect x="72" y="31.3" transform="matrix(0.8659 -0.5002 0.5002 0.8659 -7.3417 46.3433)" class="st0" width="21.6" height="11.2"/>
	<polyline class="st0" points="119.2,100.2 110,105.6 115.6,115.3 134.3,104.5 128.7,94.8 119.2,100.2 	"/>
	
		<rect x="90.2" y="62.7" transform="matrix(0.8659 -0.5002 0.5002 0.8659 -20.6501 59.6631)" class="st0" width="21.6" height="11.2"/>
	<path class="st0" d="M65,53.6c8.5,2.7,13.8,2,24.8-4.4s11.1-7.9,14-18.1c0,0,5.8,18-8.8,26.5C78.2,67.4,65,53.6,65,53.6z"/>
	<path class="st0" d="M106.9,79c-4.4,2.6-6,8.3-3.4,12.7c2.6,4.4,8.3,6,12.7,3.4c4.4-2.6,6-8.3,3.4-12.7
		C117.1,77.9,111.4,76.4,106.9,79"/>
</g>
</svg>
