<?xml version="1.0" encoding="utf-8"?>
<!-- Generator: Adobe Illustrator 22.1.0, SVG Export Plug-In . SVG Version: 6.00 Build 0)  -->
<svg version="1.1" id="Layer_1" xmlns="http://www.w3.org/2000/svg" xmlns:xlink="http://www.w3.org/1999/xlink" x="0px" y="0px"
	 viewBox="0 0 24 24" style="enable-background:new 0 0 24 24;" xml:space="preserve">
<style type="text/css">
	.st0{fill:#FFFFFF;stroke:#000000;stroke-width:2;stroke-linecap:round;stroke-linejoin:round;}
	.st1{fill:none;stroke:#000000;stroke-width:2;stroke-linecap:round;stroke-linejoin:round;}
	.st2{display:none;fill:#FDD749;}
	.st3{fill:none;stroke:#000000;stroke-width:2;stroke-linecap:round;stroke-miterlimit:10;}
	.st4{fill:none;stroke:#000000;stroke-width:2;stroke-miterlimit:10;}
	.st5{fill:none;stroke:#000000;stroke-width:2;stroke-linecap:round;stroke-linejoin:round;stroke-miterlimit:10;}
	.st6{fill:none;stroke:#0F0F0F;stroke-width:2;stroke-linecap:round;stroke-linejoin:round;}
	.st7{fill:none;stroke:#000000;stroke-width:2;stroke-linejoin:round;}
	.st8{fill:none;stroke:#000000;stroke-width:2.0112;stroke-linecap:round;stroke-linejoin:round;}
	.st9{fill:none;stroke:#000000;stroke-width:2.3562;stroke-linecap:round;stroke-linejoin:round;}
</style>
<g>
	<path class="st1" d="M14.1,15.3l-0.5,0.5c0,0-1.6-0.8-3.4-2.6c-1.8-1.8-2.6-3.4-2.6-3.4l0.5-0.5C9.6,8.2,10,6.3,9.2,4.7
		C8.2,2.8,5.9,2,4,3C2.6,3.7,1.8,5.3,2.2,6.9C2.7,9,3.6,11,4.8,12.8c0.8,1.2,1.7,2.3,2.6,3.3c1,1,2.1,1.9,3.3,2.6
		c1.8,1.2,3.8,2.1,5.9,2.6c1.5,0.4,3.2-0.3,3.9-1.8c0.9-1.9,0.2-4.2-1.7-5.2C17.2,13.6,15.3,13.9,14.1,15.3z"/>
</g>
<g>
	<polyline class="st1" points="23,7.1 23,1.1 17,1.1 	"/>
	<line class="st1" x1="16" y1="8.1" x2="23" y2="1.1"/>
</g>
</svg>
