<svg xmlns="http://www.w3.org/2000/svg" viewBox="0 0 142 142"><defs><style>.cls-1{fill:#fdd749;}.cls-2{fill:#3e3d3d;}</style></defs><title>Artboard 2</title><g id="dots"><circle class="cls-1" cx="71" cy="71" r="65"/></g><g id="food"><path class="cls-2" d="M92,66.16l-.27,0-16.6-3a1.5,1.5,0,0,1-1.21-1.74L80,27.63a1.5,1.5,0,0,1,1.74-1.21l16.6,3a1.5,1.5,0,0,1,1.21,1.74L93.44,64.92A1.5,1.5,0,0,1,92,66.16Zm-14.86-5.7,13.65,2.45L96.3,32.09,82.65,29.64Z"/><path class="cls-2" d="M92.16,37l-.27,0-7.08-1.27a1.5,1.5,0,1,1,.53-3L92.43,34a1.5,1.5,0,0,1-.26,3Z"/><path class="cls-2" d="M88.91,41.46l-.27,0-4.78-.86a1.5,1.5,0,1,1,.53-3l4.78.86a1.5,1.5,0,0,1-.26,3Z"/><path class="cls-2" d="M86,46l-.27,0-2.82-.51a1.5,1.5,0,1,1,.53-3l2.82.51A1.5,1.5,0,0,1,86,46Z"/><path class="cls-2" d="M88.33,51.41l-.27,0-6.12-1.1a1.5,1.5,0,1,1,.53-3l6.12,1.1a1.5,1.5,0,0,1-.26,3Z"/><path class="cls-2" d="M85.74,56l-.27,0L81,55.13a1.5,1.5,0,1,1,.53-3L86,53a1.5,1.5,0,0,1-.26,3Z"/><path class="cls-2" d="M113.72,70.07l-.27,0L91.7,66.13a1.5,1.5,0,0,1-1.21-1.74l6.07-33.78A1.5,1.5,0,0,1,98.3,29.4l21.75,3.91a1.5,1.5,0,0,1,1.21,1.74L115.2,68.83A1.5,1.5,0,0,1,113.72,70.07Zm-20-6.62,18.8,3.38L118.05,36l-18.8-3.38Z"/><path class="cls-2" d="M109.89,63.45l-.27,0L98.09,61.35a1.5,1.5,0,0,1-1.21-1.74l3.29-18.27a1.5,1.5,0,0,1,1.74-1.21l11.54,2.08a1.5,1.5,0,0,1,1.21,1.74l-3.29,18.27a1.5,1.5,0,0,1-1.48,1.23Zm-9.8-4.79,8.59,1.54,2.75-15.32-8.59-1.54Z"/><path class="cls-2" d="M114,40.6l-.27,0L102.2,38.5a1.5,1.5,0,1,1,.53-3l11.54,2.08a1.5,1.5,0,0,1-.26,3Z"/><path class="cls-2" d="M98,32.38l-.27,0-16.6-3a1.5,1.5,0,0,1-.76-2.57l10.32-9.72a1.5,1.5,0,0,1,2.37.43l6.28,12.71A1.5,1.5,0,0,1,98,32.38ZM84.63,26.94l10.74,1.93-4.07-8.22Z"/><path class="cls-2" d="M119.79,36.29l-.27,0-18.63-3.35a1.5,1.5,0,0,1,.53-3l15.49,2.79-5.38-9.5-20.6-3.7a1.5,1.5,0,1,1,.53-3l21.29,3.83a1.5,1.5,0,0,1,1,.74l7.3,12.89a1.5,1.5,0,0,1-1.3,2.24Z"/><path class="cls-2" d="M112.12,23.25l-.27,0L90.94,19.46a1.5,1.5,0,0,1-1.21-1.74l.95-5.27a1.5,1.5,0,0,1,1.74-1.21L113.33,15a1.5,1.5,0,0,1,1.21,1.74L113.59,22a1.5,1.5,0,0,1-1.48,1.23ZM92.94,16.77l18,3.23.42-2.32-18-3.23Z"/><path class="cls-2" d="M47.12,84.86a1.5,1.5,0,0,1-1.45-1.12L30.77,26.61a1.5,1.5,0,1,1,2.9-.76L48.58,83a1.5,1.5,0,0,1-1.45,1.88Z"/><path class="cls-2" d="M51.51,78.19a1.5,1.5,0,0,1-1.41-1c-.07-.21-1.8-5.1.4-8.85S57.82,63.7,58,63.67a1.5,1.5,0,0,1,1.66,1c.07.21,1.8,5.1-.4,8.85S52,78.13,51.76,78.17ZM57.21,67a7.47,7.47,0,0,0-4.11,2.88,7.47,7.47,0,0,0-.51,5A7.47,7.47,0,0,0,56.7,72,7.46,7.46,0,0,0,57.21,67Z"/><path class="cls-2" d="M48,64.72a1.5,1.5,0,0,1-1.41-1c-.07-.21-1.8-5.1.4-8.85s7.31-4.64,7.53-4.68a1.5,1.5,0,0,1,1.66,1c.07.21,1.8,5.1-.4,8.85s-7.31,4.64-7.53,4.68Zm5.69-11.21a7.47,7.47,0,0,0-4.11,2.88,7.47,7.47,0,0,0-.51,5,7.46,7.46,0,0,0,4.11-2.88A7.47,7.47,0,0,0,53.69,53.51Z"/><path class="cls-2" d="M44.48,51.25a1.5,1.5,0,0,1-1.41-1c-.07-.21-1.8-5.1.4-8.85s7.31-4.64,7.53-4.68a1.5,1.5,0,0,1,1.66,1c.07.21,1.8,5.1-.4,8.85s-7.31,4.64-7.53,4.68ZM50.18,40a7.47,7.47,0,0,0-4.11,2.88,7.47,7.47,0,0,0-.51,5A7.47,7.47,0,0,0,49.67,45,7.47,7.47,0,0,0,50.18,40Z"/><path class="cls-2" d="M41,37.78a1.5,1.5,0,0,1-1.41-1c-.07-.21-1.8-5.1.4-8.85s7.31-4.64,7.53-4.68a1.5,1.5,0,0,1,1.66,1c.07.21,1.8,5.1-.4,8.85s-7.31,4.64-7.53,4.68Zm5.69-11.21a7.47,7.47,0,0,0-4.11,2.88,7.46,7.46,0,0,0-.51,5,7.47,7.47,0,0,0,4.11-2.88A7.47,7.47,0,0,0,46.67,26.57Z"/><path class="cls-2" d="M37.46,24.31a1.5,1.5,0,0,1-1.41-1c-.07-.21-1.8-5.1.4-8.85S43.76,9.82,44,9.79a1.5,1.5,0,0,1,1.66,1c.07.21,1.8,5.1-.4,8.85s-7.31,4.64-7.53,4.68ZM43.15,13.1A7.46,7.46,0,0,0,39,16a7.47,7.47,0,0,0-.51,5,7.47,7.47,0,0,0,4.11-2.88A7.47,7.47,0,0,0,43.15,13.1Z"/><path class="cls-2" d="M36.28,81.79a8.9,8.9,0,0,1-4.53-1.11c-3.75-2.2-4.64-7.31-4.68-7.53a1.5,1.5,0,0,1,1-1.66c.21-.07,5.1-1.8,8.85.4s4.64,7.31,4.68,7.53a1.5,1.5,0,0,1-1,1.66A14,14,0,0,1,36.28,81.79ZM30.39,74a7.47,7.47,0,0,0,2.88,4.11,7.47,7.47,0,0,0,5,.51,7.47,7.47,0,0,0-2.88-4.11A7.48,7.48,0,0,0,30.39,74ZM28.55,72.9h0Z"/><path class="cls-2" d="M32.76,68.32a8.91,8.91,0,0,1-4.53-1.11c-3.75-2.2-4.64-7.31-4.68-7.53a1.5,1.5,0,0,1,1-1.66c.21-.07,5.1-1.8,8.85.4S38,65.73,38.06,66a1.5,1.5,0,0,1-1,1.66A14,14,0,0,1,32.76,68.32ZM26.87,60.5a7.46,7.46,0,0,0,2.88,4.11,7.5,7.5,0,0,0,5,.5A7.46,7.46,0,0,0,31.87,61,7.48,7.48,0,0,0,26.87,60.5ZM25,59.43h0Z"/><path class="cls-2" d="M29.25,54.85a8.9,8.9,0,0,1-4.53-1.11C21,51.54,20.08,46.42,20,46.21a1.5,1.5,0,0,1,1-1.66c.21-.07,5.1-1.8,8.85.4s4.64,7.31,4.68,7.53a1.5,1.5,0,0,1-1,1.66A14,14,0,0,1,29.25,54.85ZM23.36,47a7.46,7.46,0,0,0,2.88,4.11,7.47,7.47,0,0,0,5,.51,7.47,7.47,0,0,0-2.88-4.11A7.49,7.49,0,0,0,23.36,47ZM21.53,46h0Z"/><path class="cls-2" d="M25.74,41.38a8.9,8.9,0,0,1-4.53-1.11c-3.75-2.2-4.64-7.31-4.68-7.53a1.5,1.5,0,0,1,1-1.66c.21-.07,5.1-1.8,8.85.4S31,38.79,31,39a1.5,1.5,0,0,1-1,1.66A14,14,0,0,1,25.74,41.38Zm-5.89-7.82a7.47,7.47,0,0,0,2.88,4.11,7.47,7.47,0,0,0,5,.51,7.47,7.47,0,0,0-2.88-4.11A7.47,7.47,0,0,0,19.84,33.56ZM18,32.49h0Z"/><path class="cls-2" d="M22.22,27.91A8.9,8.9,0,0,1,17.7,26.8c-3.75-2.2-4.64-7.31-4.68-7.53a1.5,1.5,0,0,1,1-1.66c.21-.07,5.1-1.8,8.85.4s4.64,7.31,4.68,7.53a1.5,1.5,0,0,1-1,1.66A14,14,0,0,1,22.22,27.91Zm-5.89-7.82a7.47,7.47,0,0,0,2.88,4.11,7.46,7.46,0,0,0,5,.51,7.47,7.47,0,0,0-2.88-4.11A7.48,7.48,0,0,0,16.33,20.09ZM14.5,19h0Z"/><path class="cls-2" d="M107.91,118.84a24.92,24.92,0,0,1-5.18-.53c-13.78-2.92-22.06-17.6-22.4-18.23a1.5,1.5,0,0,1,.41-1.92c.57-.43,14.09-10.49,27.87-7.56,10.07,2.14,17.23,10.57,20.6,15.41h0a4.61,4.61,0,0,1-1.4,6.59C123.64,115.12,116.1,118.84,107.91,118.84ZM83.66,99.78c2.2,3.42,9.39,13.41,19.69,15.59,9.06,1.92,18.24-2.53,22.91-5.35a1.61,1.61,0,0,0,.49-2.31h0c-3.12-4.47-9.7-12.27-18.76-14.19C97.66,91.34,87.05,97.54,83.66,99.78Z"/><path class="cls-2" d="M64.42,105.64A1.5,1.5,0,0,1,63,103.82l3.5-16.52a1.5,1.5,0,0,1,2.44-.83L82.62,98.21A1.5,1.5,0,0,1,82,100.8l-17.22,4.78A1.51,1.51,0,0,1,64.42,105.64ZM68.87,90.4,66.4,102l12.13-3.37Z"/><path class="cls-2" d="M69.9,96.16a1.49,1.49,0,0,1-.92-.31l-3-2.31a1.5,1.5,0,0,1,1.84-2.37l3,2.31a1.5,1.5,0,0,1-.92,2.69Z"/><path class="cls-2" d="M65.29,101.51a1.5,1.5,0,0,1-.36-3l3.83-.94a1.5,1.5,0,0,1,.72,2.91l-3.83.94A1.5,1.5,0,0,1,65.29,101.51Z"/><path class="cls-2" d="M116.94,97.28a1.5,1.5,0,0,1-1.47-1.81c.55-2.61-.95-4.91-1.89-6a11.18,11.18,0,0,0-6-3.78L94.89,83l3.14,8A1.5,1.5,0,1,1,95.24,92L91.08,81.46a1.5,1.5,0,0,1,1.71-2l15.4,3.27a14.26,14.26,0,0,1,7.7,4.8,10.15,10.15,0,0,1,2.52,8.58A1.5,1.5,0,0,1,116.94,97.28Z"/><path class="cls-2" d="M99.94,88.55a1.5,1.5,0,0,1-1.42-1l-1.7-4.92a1.5,1.5,0,1,1,2.83-1l1.7,4.92a1.5,1.5,0,0,1-1.42,2Z"/><path class="cls-2" d="M104.48,88.76a1.5,1.5,0,0,1-1.42-1l-1.42-4.11a1.5,1.5,0,1,1,2.83-1l1.42,4.11a1.5,1.5,0,0,1-1.42,2Z"/><path class="cls-2" d="M108.91,88.66a1.5,1.5,0,0,1-1.42-1l-1-3a1.5,1.5,0,1,1,2.83-1l1,3a1.5,1.5,0,0,1-1.42,2Z"/><path class="cls-2" d="M103.3,112.06a6.71,6.71,0,0,1-1.4-.15h0L97.76,111a1.5,1.5,0,0,1-.51-2.72l6.19-4a1.5,1.5,0,0,1,1.13-.21l4.15.88a1.5,1.5,0,0,1,1.16,1.78A6.73,6.73,0,0,1,103.3,112.06Zm-.77-3.08a3.73,3.73,0,0,0,3.79-1.46l-1.76-.37-2.63,1.71Z"/><path class="cls-2" d="M115.34,117.84a1.5,1.5,0,0,1-1.42-1,21.08,21.08,0,0,1,4-20.47,1.5,1.5,0,1,1,2.27,2,18.08,18.08,0,0,0-3.46,17.55,1.5,1.5,0,0,1-1.42,2Z"/><path class="cls-2" d="M46.92,135.92a12.75,12.75,0,0,1-5-1.06A13.67,13.67,0,0,1,33.83,123a13,13,0,0,1,.27-3.2,1.85,1.85,0,0,0-1.27-2.11,13,13,0,0,1-3-1.26,13.68,13.68,0,0,1-6.72-12.67,12,12,0,0,1,17-10.25,13.67,13.67,0,0,1,8.06,11.87,13,13,0,0,1-.27,3.2,1.85,1.85,0,0,0,1.27,2.11,13,13,0,0,1,3,1.25h0a13.67,13.67,0,0,1,6.72,12.67,12.16,12.16,0,0,1-5.8,9.6A11.83,11.83,0,0,1,46.92,135.92ZM35.09,95.45a8.85,8.85,0,0,0-4.59,1.27A9.19,9.19,0,0,0,26.14,104a10.62,10.62,0,0,0,5.23,9.84,9.94,9.94,0,0,0,2.27,1A4.87,4.87,0,0,1,37,120.42a10,10,0,0,0-.21,2.46,10.62,10.62,0,0,0,6.24,9.23,9,9,0,0,0,12.8-7.74,10.62,10.62,0,0,0-5.23-9.84h0a9.92,9.92,0,0,0-2.27-1A4.87,4.87,0,0,1,45,107.95a10,10,0,0,0,.21-2.46,10.62,10.62,0,0,0-6.25-9.22A9.74,9.74,0,0,0,35.09,95.45Z"/><path class="cls-2" d="M48.58,131.3h0a11,11,0,0,1-4.09-.91,11.69,11.69,0,0,1-5.94-5.94,1.5,1.5,0,1,1,2.74-1.23,8.66,8.66,0,0,0,4.39,4.41,8,8,0,0,0,3,.67,1.5,1.5,0,0,1,0,3Z"/><path class="cls-2" d="M51,127.85h0a11,11,0,0,1-4.09-.91A11.69,11.69,0,0,1,40.93,121a1.5,1.5,0,0,1,2.74-1.23,8.66,8.66,0,0,0,4.39,4.41,8,8,0,0,0,3,.67,1.5,1.5,0,0,1,0,3Z"/><path class="cls-2" d="M40.81,129.24A1.5,1.5,0,0,1,39.53,127l4.25-7a1.5,1.5,0,0,1,2.57,1.55l-4.25,7A1.5,1.5,0,0,1,40.81,129.24Z"/><path class="cls-2" d="M33.59,112.73a1.49,1.49,0,0,1-.94-.33A11,11,0,0,1,30,109.19a11.69,11.69,0,0,1-1.1-8.33,1.5,1.5,0,1,1,2.92.69,8.66,8.66,0,0,0,.8,6.17,8,8,0,0,0,2,2.34,1.5,1.5,0,0,1-.94,2.67Z"/><path class="cls-2" d="M28.68,106.37a1.5,1.5,0,0,1-.55-2.9l5.65-2.21a1.5,1.5,0,0,1,1.1,2.79l-5.65,2.21A1.5,1.5,0,0,1,28.68,106.37Z"/><path class="cls-2" d="M29.77,110.82a1.5,1.5,0,0,1-.55-2.9l5.42-2.12a1.5,1.5,0,0,1,1.1,2.79l-5.42,2.13A1.5,1.5,0,0,1,29.77,110.82Z"/><path class="cls-2" d="M44.59,132.12a1.5,1.5,0,0,1-1.28-2.28l4.25-7a1.5,1.5,0,0,1,2.57,1.55l-4.25,7A1.5,1.5,0,0,1,44.59,132.12Z"/></g></svg>