<svg xmlns="http://www.w3.org/2000/svg" viewBox="0 0 142 142"><defs><style>.cls-1{fill:#fdd749;}.cls-2{fill:#3e3d3d;}</style></defs><title>Artboard 5</title><g id="dots"><circle class="cls-1" cx="71" cy="71" r="65"/></g><g id="table_items" data-name="table items"><path class="cls-2" d="M116.86,56.79a1.5,1.5,0,0,1-1.5-1.5V42.45a1.5,1.5,0,1,1,3,0V55.29A1.5,1.5,0,0,1,116.86,56.79Z"/></g><g id="Layer_2" data-name="Layer 2"><path class="cls-2" d="M93.78,131.16H47.18a9.28,9.28,0,0,1-9.27-9.26V89.77a1.5,1.5,0,0,1,3,0V121.9a6.27,6.27,0,0,0,6.27,6.26h46.6A6.27,6.27,0,0,0,100,121.9V68.49a1.5,1.5,0,0,1,3,0V121.9A9.28,9.28,0,0,1,93.78,131.16Z"/><path class="cls-2" d="M39.42,63.56a1.5,1.5,0,0,1-1.5-1.5V27.31A9.28,9.28,0,0,1,47.18,18h46.6A9.28,9.28,0,0,1,103,27.31V39.25a1.5,1.5,0,1,1-3,0V27.31A6.27,6.27,0,0,0,93.78,21H47.18a6.27,6.27,0,0,0-6.27,6.26V62.06A1.5,1.5,0,0,1,39.42,63.56Z"/><path class="cls-2" d="M94.8,113.61H46.16a1.5,1.5,0,0,1-1.5-1.5v-19a1.5,1.5,0,0,1,3,0v17.46H93.3V70a1.5,1.5,0,0,1,3,0v42.11A1.5,1.5,0,0,1,94.8,113.61Z"/><path class="cls-2" d="M46.16,72a1.5,1.5,0,0,1-1.5-1.5V33.46a1.5,1.5,0,0,1,1.5-1.5H94.8a1.5,1.5,0,0,1,1.5,1.5V49.54a1.5,1.5,0,0,1-3,0V35H47.66V70.53A1.5,1.5,0,0,1,46.16,72Z"/><path class="cls-2" d="M83,28H57.93a1.5,1.5,0,0,1,0-3H83a1.5,1.5,0,0,1,0,3Z"/><path class="cls-2" d="M70.48,126.32a5,5,0,1,1,5-5A5,5,0,0,1,70.48,126.32Zm0-7a2,2,0,1,0,2,2A2,2,0,0,0,70.48,119.36Z"/><path class="cls-2" d="M51.45,95.86a1.51,1.51,0,0,1-.54-.1L39.65,91.45a27,27,0,0,1-15,4.41C11.46,95.86.74,86.92.74,75.92S11.46,56,24.65,56s23.91,8.95,23.91,19.94a17,17,0,0,1-1.75,7.5l5.94,10.18a1.5,1.5,0,0,1-1.3,2.26ZM24.65,59C13.12,59,3.74,66.58,3.74,75.92s9.38,16.94,20.91,16.94a23.85,23.85,0,0,0,13.91-4.31A1.5,1.5,0,0,1,40,88.37l8,3.07L43.8,84.22a1.5,1.5,0,0,1,0-1.47,14.12,14.12,0,0,0,1.78-6.83C45.56,66.58,36.18,59,24.65,59Z"/><path class="cls-2" d="M24.52,80.74a1.5,1.5,0,0,1-1.5-1.5V75.79a1.5,1.5,0,0,1,1.5-1.5,2.78,2.78,0,1,0-2.78-2.78,1.5,1.5,0,0,1-3,0A5.78,5.78,0,1,1,26,77.09v2.15A1.5,1.5,0,0,1,24.52,80.74Z"/><path class="cls-2" d="M24.6,87.19a2.13,2.13,0,1,1,2.13-2.13A2.13,2.13,0,0,1,24.6,87.19Z"/><path class="cls-2" d="M90.14,72.59a1.5,1.5,0,0,1-1.3-2.26l5.94-10.18A17,17,0,0,1,93,52.65c0-11,10.73-19.94,23.91-19.94s23.91,8.95,23.91,19.94-10.73,19.94-23.91,19.94a27,27,0,0,1-15-4.41L90.67,72.49A1.51,1.51,0,0,1,90.14,72.59Zm12-7.59a1.5,1.5,0,0,1,.88.29,23.83,23.83,0,0,0,13.91,4.31c11.53,0,20.91-7.6,20.91-16.94s-9.38-16.94-20.91-16.94S96,43.31,96,52.65a14.12,14.12,0,0,0,1.78,6.83,1.5,1.5,0,0,1,0,1.47l-4.21,7.22,8-3.07A1.5,1.5,0,0,1,102.15,65Z"/><path class="cls-2" d="M116.86,64a2,2,0,1,1,2-2A2,2,0,0,1,116.86,64Z"/><path class="cls-2" d="M90.14,59.53H50.89a1.5,1.5,0,0,1-.94-2.67l5-4v-9.3a1.5,1.5,0,0,1,1.5-1.5H90.14a1.5,1.5,0,0,1,1.5,1.5V58A1.5,1.5,0,0,1,90.14,59.53Zm-35-3H88.64V45H57.93v8.52a1.5,1.5,0,0,1-.56,1.17Z"/><path class="cls-2" d="M90.14,103.23H50.89a1.5,1.5,0,0,1-.94-2.67l5-4v-9.3a1.5,1.5,0,0,1,1.5-1.5H90.14a1.5,1.5,0,0,1,1.5,1.5v14.5A1.5,1.5,0,0,1,90.14,103.23Zm-35-3H88.64V88.72H57.93v8.52a1.5,1.5,0,0,1-.56,1.17Z"/><path class="cls-2" d="M90.14,81.52H50.89a1.5,1.5,0,0,1-1.5-1.5V65.52a1.5,1.5,0,0,1,1.5-1.5H84.6a1.5,1.5,0,0,1,1.5,1.5v9.3l5,4a1.5,1.5,0,0,1-.94,2.67Zm-37.75-3H85.91L83.66,76.7a1.5,1.5,0,0,1-.56-1.17V67H52.39Z"/><path class="cls-2" d="M84.63,50.25H61.81a1.5,1.5,0,0,1,0-3H84.63a1.5,1.5,0,0,1,0,3Z"/><path class="cls-2" d="M81,54.43H61.81a1.5,1.5,0,0,1,0-3H81a1.5,1.5,0,0,1,0,3Z"/><path class="cls-2" d="M84.63,93.88H61.81a1.5,1.5,0,0,1,0-3H84.63a1.5,1.5,0,0,1,0,3Z"/><path class="cls-2" d="M73.22,98.07H61.81a1.5,1.5,0,0,1,0-3H73.22a1.5,1.5,0,0,1,0,3Z"/><path class="cls-2" d="M79.09,72H56.28a1.5,1.5,0,0,1,0-3H79.09a1.5,1.5,0,0,1,0,3Z"/><path class="cls-2" d="M64.21,76.22H56.28a1.5,1.5,0,0,1,0-3h7.93a1.5,1.5,0,0,1,0,3Z"/></g></svg>