<svg xmlns="http://www.w3.org/2000/svg" viewBox="0 0 44 44"><defs><style>.cls-1{fill:#fdd749;}.cls-2{fill:none;stroke:#3e3d3d;stroke-linecap:round;stroke-linejoin:round;stroke-width:1.25px;}</style></defs><title>intro1V2</title><g id="dots"><circle class="cls-1" cx="22" cy="22" r="20.8"/></g><g id="food"><path class="cls-2" d="M16.25,37.66l-5.57.1,0,1.09c0,1,1.31,1.32,2.14,1.31l11-.2c.83,0,2.11-.39,2.09-1.39l0-1.09-5.77.1"/><path class="cls-2" d="M25.72,33.61h0a5.45,5.45,0,0,0-5.17-5.25l-5,.09a5.45,5.45,0,0,0-5,5.43h0Z"/><path class="cls-2" d="M19.94,37.56l5.5-.1c.67,0,.79-.51.78-1.13h0c0-.62-.15-1.11-.82-1.1l-1.73,0"/><path class="cls-2" d="M12.54,35.46l-1.72,0c-.67,0-.79.51-.78,1.13h0c0,.62.15,1.11.82,1.1l5.5-.1"/><line class="cls-2" x1="10.47" y1="34.16" x2="16.4" y2="37.62"/><polyline class="cls-2" points="16.4 37.62 18.19 38.67 25.73 33.88"/><line class="cls-2" x1="22.44" y1="30.69" x2="22.03" y2="30.92"/><line class="cls-2" x1="19.93" y1="31.09" x2="19.72" y2="30.65"/><line class="cls-2" x1="16.36" y1="30.21" x2="15.91" y2="30.3"/><line class="cls-2" x1="13.75" y1="31.1" x2="13.3" y2="31.02"/><polyline class="cls-2" points="18.15 29.69 18.25 23.2 14.21 23.09 15.39 24.53 14.26 26.07 18.08 26.21"/><path class="cls-2" d="M31.71,20.16l-5.56-.38-.07,1.08c-.07,1,1.19,1.43,2,1.49L39,23.1c.83.06,2.13-.21,2.2-1.2l.07-1.08-5.76-.39"/><path class="cls-2" d="M41.49,16.94h0a5.45,5.45,0,0,0-4.7-5.67l-5-.34a5.45,5.45,0,0,0-5.43,5h0Z"/><path class="cls-2" d="M35.39,20.38l5.49.37c.67,0,.83-.44.87-1.06h0c0-.62-.06-1.12-.72-1.17l-1.72-.12"/><path class="cls-2" d="M28.2,17.65l-1.72-.12c-.67,0-.83.44-.87,1.06h0c0,.62.06,1.12.72,1.17l5.49.37"/><line class="cls-2" x1="26.25" y1="16.17" x2="31.86" y2="20.14"/><polyline class="cls-2" points="31.86 20.14 33.55 21.33 41.48 17.21"/><line class="cls-2" x1="38.48" y1="13.75" x2="38.05" y2="13.94"/><line class="cls-2" x1="35.94" y1="13.93" x2="35.77" y2="13.47"/><line class="cls-2" x1="32.46" y1="12.74" x2="32.01" y2="12.8"/><line class="cls-2" x1="29.79" y1="13.41" x2="29.34" y2="13.29"/><polyline class="cls-2" points="34.29 12.38 34.95 5.92 30.93 5.47 31.98 7 30.72 8.44 34.52 8.91"/><path class="cls-2" d="M11.17,17.2,5.84,18.86l.32,1c.3.95,1.63.9,2.42.66l10.46-3.26c.79-.25,1.91-1,1.62-1.92l-.32-1-5.51,1.72"/><path class="cls-2" d="M19.12,10.65h0a5.45,5.45,0,0,0-6.44-3.58L7.88,8.57a5.45,5.45,0,0,0-3.26,6.61h0Z"/><path class="cls-2" d="M14.68,16.07l5.26-1.64c.64-.2.61-.72.43-1.3h0c-.18-.59-.46-1-1.1-.83l-1.65.51"/><path class="cls-2" d="M7,16.13l-1.64.51c-.64.2-.61.72-.43,1.3h0c.18.59.46,1,1.1.83l5.25-1.64"/><line class="cls-2" x1="4.64" y1="15.46" x2="11.3" y2="17.13"/><polyline class="cls-2" points="11.3 17.13 13.31 17.63 19.21 10.91"/><line class="cls-2" x1="15.16" y1="8.78" x2="14.83" y2="9.11"/><line class="cls-2" x1="12.86" y1="9.86" x2="12.53" y2="9.5"/><line class="cls-2" x1="9.18" y1="10.02" x2="8.78" y2="10.24"/><line class="cls-2" x1="6.93" y1="11.6" x2="6.47" y2="11.66"/><polyline class="cls-2" points="10.76 9.02 9.03 2.76 5.12 3.79 6.66 4.84 6.01 6.64 9.72 5.7"/></g></svg>