
<svg width="17px" height="24px" viewBox="0 0 17 24" version="1.1" xmlns="http://www.w3.org/2000/svg" xmlns:xlink="http://www.w3.org/1999/xlink">
    <!-- Generator: Sketch 50 (54983) - http://www.bohemiancoding.com/sketch -->
    <desc>Created with Sketch.</desc>
    <defs></defs>
    <g id="Page-1" stroke="none" stroke-width="1" fill="none" fill-rule="evenodd">
        <g id="Location" fill="#000000" fill-rule="nonzero">
            <g id="Layer_1">
                <path d="M14.269697,2.04282828 C12.8015152,0.724040404 10.7409091,0 8.5,0 C6.25909091,0 4.19848485,0.724040404 2.73030303,2.04282828 C0.927272727,3.64606061 0,6.05090909 0,9.05050505 C0,15.5410101 7.44393939,23.1692929 7.77878788,23.479596 C7.98484848,23.6864646 8.24242424,23.789899 8.5,23.789899 C8.75757576,23.789899 9.04090909,23.6864646 9.22121212,23.479596 C9.55606061,23.1692929 17,15.5410101 17,9.05050505 C17,6.05090909 16.0727273,3.64606061 14.269697,2.04282828 Z M8.5,21.229899 C7.80454545,20.4541414 6.6969697,19.1612121 5.61515152,17.609697 C3.2969697,14.299798 2.06060606,11.3519192 2.06060606,9.05050505 C2.06060606,2.58585859 6.98030303,2.06868687 8.5,2.06868687 C14.4757576,2.06868687 14.9393939,7.42141414 14.9393939,9.05050505 C14.9393939,13.6016162 10.3287879,19.2129293 8.5,21.229899 Z M8.5,4.47353535 C6.23333333,4.47353535 4.40454545,6.36121212 4.40454545,8.66262626 C4.40454545,10.9640404 6.23333333,12.8258586 8.5,12.8258586 C10.7666667,12.8258586 12.5954545,10.9381818 12.5954545,8.63676768 C12.5954545,6.33535354 10.7666667,4.47353535 8.5,4.47353535 Z M8.5,11.0157576 C7.23787879,11.0157576 6.20757576,9.95555556 6.20757576,8.63676768 C6.20757576,7.3179798 7.23787879,6.25777778 8.5,6.25777778 C9.76212121,6.25777778 10.7924242,7.3179798 10.7924242,8.63676768 C10.7924242,9.95555556 9.76212121,11.0157576 8.5,11.0157576 Z" id="XMLID_1054_"></path>
            </g>
        </g>
    </g>
</svg>