<svg id="Layer_1" data-name="Layer 1" xmlns="http://www.w3.org/2000/svg" viewBox="0 0 150 150"><defs><style>.cls-1{fill:none;stroke:#3f3e3e;stroke-linecap:round;stroke-linejoin:round;stroke-width:3px;}</style></defs><title>Artboard 70</title><path class="cls-1" d="M48.2,52.9l.2,53.6"/><path class="cls-1" d="M56.4,23.8l-6.8,3.5L38.9,32.5C35,55.6,31,78.7,27.1,101.9l21.3,4.7v28.1h53V52.9h.1"/><path class="cls-1" d="M101.6,106.5l21.3-4.7L110.7,32.7,93,24.9"/><path class="cls-1" d="M56.4,23.8V15.3H93v9.6"/><line class="cls-1" x1="56.4" y1="15.3" x2="68.3" y2="24.9"/><line class="cls-1" x1="93" y1="15.3" x2="81.1" y2="24.9"/><line class="cls-1" x1="62.3" y1="31.4" x2="62.3" y2="134.7"/><line class="cls-1" x1="68.3" y1="25.5" x2="68.3" y2="31.2"/><path class="cls-1" d="M81.1,25.5v6.9"/><line class="cls-1" x1="62.3" y1="32.4" x2="81.1" y2="32.4"/><circle class="cls-1" cx="68.4" cy="38.2" r="0.7"/><circle class="cls-1" cx="68.3" cy="61" r="0.7"/><circle class="cls-1" cx="81.1" cy="38.2" r="0.7"/><circle class="cls-1" cx="81.1" cy="61" r="0.7"/><circle class="cls-1" cx="68.4" cy="84.3" r="0.7"/><circle class="cls-1" cx="68.3" cy="107.1" r="0.7"/><circle class="cls-1" cx="81.1" cy="84.3" r="0.7"/><circle class="cls-1" cx="81.1" cy="107.1" r="0.7"/><path class="cls-1" d="M29.8,90.7l18.4,4"/><line class="cls-1" x1="120.6" y1="90.5" x2="101.5" y2="94.7"/><line class="cls-1" x1="56.4" y1="23.8" x2="62.3" y2="31.4"/><line class="cls-1" x1="93" y1="23.8" x2="87.1" y2="31.4"/></svg>