<svg id="Layer_1" data-name="Layer 1" xmlns="http://www.w3.org/2000/svg" viewBox="0 0 150 150"><defs><style>.cls-1{fill:#3f3e3e;}.cls-2{fill:none;stroke:#3f3e3e;stroke-linecap:round;stroke-linejoin:round;stroke-width:3px;}</style></defs><title>Artboard 67</title><path class="cls-1" d="M47.6,18.9H41.8V22a3.5,3.5,0,0,1,2.6-1.1c3,0,4.1,2.3,4.1,4.4a4.3,4.3,0,0,1-4.6,4.6c-2.8,0-4.4-1.6-4.6-3.7h2.4a2,2,0,0,0,2.2,1.5c1.5,0,2.1-1,2.1-2.4S45.3,23,43.9,23a2,2,0,0,0-2,1.4H39.5V16.7h8.1Z"/><path class="cls-1" d="M55.3,16.8c3.7,0,4.8,2.8,4.8,6.5s-1.1,6.5-4.8,6.5-4.9-2.8-4.9-6.5S51.5,16.8,55.3,16.8Zm0,2.3c-2.2,0-2.4,2-2.4,4.2s.2,4.2,2.4,4.2,2.3-2,2.3-4.2S57.4,19.1,55.3,19.1Z"/><path class="cls-1" d="M70,22.4v2.1H62.3V22.4Z"/><path class="cls-1" d="M72.2,19.4V17.1h4.3V29.9H74V19.4Z"/><path class="cls-1" d="M83.9,16.8c3.7,0,4.9,2.8,4.9,6.5s-1.2,6.5-4.9,6.5S79,27,79,23.3,80.2,16.8,83.9,16.8Zm0,2.3c-2.1,0-2.4,2-2.4,4.2s.3,4.2,2.4,4.2,2.4-2,2.4-4.2S86,19.1,83.9,19.1Z"/><path class="cls-1" d="M95.5,16.8c3.7,0,4.9,2.8,4.9,6.5s-1.2,6.5-4.9,6.5-4.8-2.8-4.8-6.5S91.8,16.8,95.5,16.8Zm0,2.3c-2.1,0-2.4,2-2.4,4.2s.3,4.2,2.4,4.2,2.4-2,2.4-4.2S97.6,19.1,95.5,19.1Z"/><path class="cls-1" d="M108.6,22.3H112v2.3h-3.4V28h-2.4V24.6h-3.4V22.3h3.4V18.9h2.4Z"/><path class="cls-2" d="M112.5,5.6H38.9A13.9,13.9,0,0,0,25,19.5v9.8A13.9,13.9,0,0,0,38.9,43.2H71.5l3.5,6,3.5-6h34a13.9,13.9,0,0,0,13.9-13.9V19.5A14,14,0,0,0,112.5,5.6Z"/><path class="cls-2" d="M45.9,103.3l.5-6.3a4.1,4.1,0,0,0-2-4,18.5,18.5,0,0,1,7.7-34.1,18.3,18.3,0,0,1,10.2,1.8"/><path class="cls-2" d="M43.7,100.4l-13.8,8a17,17,0,0,0-5.9,6c-3.2,5.7-5.3,14.1-4.9,15.9H35.5"/><path class="cls-2" d="M64.4,100.8c-1.7,3.7-6.2,5.9-10.5,5.8s-8.7-2.5-10.2-6.2"/><path class="cls-2" d="M105.2,103.3l-.5-6.3a4.2,4.2,0,0,1,2-4A18.5,18.5,0,0,0,88.8,60.7"/><path class="cls-2" d="M107.4,100.4l13.8,8a17,17,0,0,1,5.9,6c3.2,5.7,5.3,14.1,4.9,15.9H115.6"/><path class="cls-2" d="M86.7,100.8c1.7,3.7,6.2,5.9,10.5,5.8s8.8-2.5,10.2-6.2"/><path class="cls-2" d="M65.3,111l.7-7.6a5.4,5.4,0,0,0-2.5-4.8,22.3,22.3,0,1,1,23.6-.1,5.3,5.3,0,0,0-2.5,4.9l.7,7.6"/><path class="cls-2" d="M62.6,107.5l-16.5,9.7a19.1,19.1,0,0,0-7,7.1c-3.9,6.9-6.4,17-6,19.2h84.1c.4-2.1-2.1-12.3-5.8-19a17.5,17.5,0,0,0-7-7L87.6,108"/><path class="cls-2" d="M87.6,108c-2.1,4.4-7.5,7.1-12.6,7s-10.6-3-12.4-7.5"/><line class="cls-2" x1="98.1" y1="136.4" x2="98.1" y2="143.5"/><line class="cls-2" x1="53.1" y1="136.4" x2="53.1" y2="143.5"/></svg>