<svg xmlns="http://www.w3.org/2000/svg" viewBox="0 0 142 142"><defs><style>.cls-1{fill:#fdd749;}.cls-2{fill:#3e3d3d;}</style></defs><title>Artboard 1</title><g id="dots"><circle class="cls-1" cx="71" cy="71" r="65"/></g><g id="table_items" data-name="table items"><path class="cls-2" d="M91.18,131.57H53.7a1.5,1.5,0,0,1-1.5-1.5V62.33a1.5,1.5,0,0,1,1.5-1.5H91.18a1.5,1.5,0,0,1,1.5,1.5v67.74A1.5,1.5,0,0,1,91.18,131.57Zm-36-3H89.68V63.83H55.2Z"/><path class="cls-2" d="M53.7,131.57H19a1.5,1.5,0,0,1-1.5-1.5V42.89a1.5,1.5,0,0,1,1.5-1.5H53.7a1.5,1.5,0,0,1,1.5,1.5v87.18A1.5,1.5,0,0,1,53.7,131.57Zm-33.19-3H52.2V44.39H20.51Z"/><path class="cls-2" d="M125.39,131.57H91.18a1.5,1.5,0,0,1-1.5-1.5V52.73a1.5,1.5,0,0,1,1.5-1.5H93V30.61a1.5,1.5,0,0,1,.43-1.05l13.75-13.93a1.54,1.54,0,0,1,2.13,0L123.1,29.55a1.5,1.5,0,0,1,.43,1.05V51.25h1.86a1.5,1.5,0,0,1,1.5,1.5v77.32A1.5,1.5,0,0,1,125.39,131.57Zm-32.72-3h31.22V54.25H122a1.5,1.5,0,0,1-1.5-1.5V31.22L108.29,18.82,96,31.22V52.74a1.5,1.5,0,0,1-1.5,1.5H92.68Z"/><path class="cls-2" d="M108.29,18.18a1.5,1.5,0,0,1-1.5-1.5V5.93a1.5,1.5,0,0,1,3,0V16.68A1.5,1.5,0,0,1,108.29,18.18Z"/><path class="cls-2" d="M91.18,68H53.7a1.5,1.5,0,0,1,0-3H91.18a1.5,1.5,0,0,1,0,3Z"/><path class="cls-2" d="M91.18,75H53.7a1.5,1.5,0,0,1,0-3H91.18a1.5,1.5,0,0,1,0,3Z"/><path class="cls-2" d="M58,75a1.5,1.5,0,0,1-1.5-1.5v-7a1.5,1.5,0,0,1,3,0v7A1.5,1.5,0,0,1,58,75Z"/><path class="cls-2" d="M62.78,75a1.5,1.5,0,0,1-1.5-1.5v-7a1.5,1.5,0,0,1,3,0v7A1.5,1.5,0,0,1,62.78,75Z"/><path class="cls-2" d="M67.58,75a1.5,1.5,0,0,1-1.5-1.5v-7a1.5,1.5,0,0,1,3,0v7A1.5,1.5,0,0,1,67.58,75Z"/><path class="cls-2" d="M72.38,75a1.5,1.5,0,0,1-1.5-1.5v-7a1.5,1.5,0,0,1,3,0v7A1.5,1.5,0,0,1,72.38,75Z"/><path class="cls-2" d="M77.18,75a1.5,1.5,0,0,1-1.5-1.5v-7a1.5,1.5,0,0,1,3,0v7A1.5,1.5,0,0,1,77.18,75Z"/><path class="cls-2" d="M82,75a1.5,1.5,0,0,1-1.5-1.5v-7a1.5,1.5,0,0,1,3,0v7A1.5,1.5,0,0,1,82,75Z"/><path class="cls-2" d="M86.78,75a1.5,1.5,0,0,1-1.5-1.5v-7a1.5,1.5,0,0,1,3,0v7A1.5,1.5,0,0,1,86.78,75Z"/><path class="cls-2" d="M64,85.56H59a1.5,1.5,0,0,1-1.5-1.5V79.49A1.5,1.5,0,0,1,59,78H64a1.5,1.5,0,0,1,1.5,1.5v4.57A1.5,1.5,0,0,1,64,85.56Zm-3.58-3h2.08V81H60.46Z"/><path class="cls-2" d="M64,89.23H59a1.5,1.5,0,0,1,0-3H64a1.5,1.5,0,0,1,0,3Z"/><path class="cls-2" d="M74.59,85.56H69.52a1.5,1.5,0,0,1-1.5-1.5V79.49a1.5,1.5,0,0,1,1.5-1.5h5.08a1.5,1.5,0,0,1,1.5,1.5v4.57A1.5,1.5,0,0,1,74.59,85.56Zm-3.58-3h2.08V81H71Z"/><path class="cls-2" d="M74.59,89.23H69.52a1.5,1.5,0,0,1,0-3h5.08a1.5,1.5,0,0,1,0,3Z"/><path class="cls-2" d="M85.3,85.56H80.22a1.5,1.5,0,0,1-1.5-1.5V79.49a1.5,1.5,0,0,1,1.5-1.5H85.3a1.5,1.5,0,0,1,1.5,1.5v4.57A1.5,1.5,0,0,1,85.3,85.56Zm-3.58-3H83.8V81H81.72Z"/><path class="cls-2" d="M85.3,89.23H80.22a1.5,1.5,0,0,1,0-3H85.3a1.5,1.5,0,0,1,0,3Z"/><path class="cls-2" d="M64,98.37H59a1.5,1.5,0,0,1-1.5-1.5V92.3A1.5,1.5,0,0,1,59,90.8H64a1.5,1.5,0,0,1,1.5,1.5v4.57A1.5,1.5,0,0,1,64,98.37Zm-3.58-3h2.08V93.8H60.46Z"/><path class="cls-2" d="M64,102H59a1.5,1.5,0,0,1,0-3H64a1.5,1.5,0,0,1,0,3Z"/><path class="cls-2" d="M74.59,98.37H69.52a1.5,1.5,0,0,1-1.5-1.5V92.3a1.5,1.5,0,0,1,1.5-1.5h5.08a1.5,1.5,0,0,1,1.5,1.5v4.57A1.5,1.5,0,0,1,74.59,98.37Zm-3.58-3h2.08V93.8H71Z"/><path class="cls-2" d="M74.59,102H69.52a1.5,1.5,0,0,1,0-3h5.08a1.5,1.5,0,0,1,0,3Z"/><path class="cls-2" d="M85.3,98.37H80.22a1.5,1.5,0,0,1-1.5-1.5V92.3a1.5,1.5,0,0,1,1.5-1.5H85.3a1.5,1.5,0,0,1,1.5,1.5v4.57A1.5,1.5,0,0,1,85.3,98.37Zm-3.58-3H83.8V93.8H81.72Z"/><path class="cls-2" d="M85.3,102H80.22a1.5,1.5,0,0,1,0-3H85.3a1.5,1.5,0,0,1,0,3Z"/><path class="cls-2" d="M64,111.18H59a1.5,1.5,0,0,1-1.5-1.5V105.1a1.5,1.5,0,0,1,1.5-1.5H64a1.5,1.5,0,0,1,1.5,1.5v4.57A1.5,1.5,0,0,1,64,111.18Zm-3.58-3h2.08V106.6H60.46Z"/><path class="cls-2" d="M64,114.84H59a1.5,1.5,0,0,1,0-3H64a1.5,1.5,0,0,1,0,3Z"/><path class="cls-2" d="M74.59,111.18H69.52a1.5,1.5,0,0,1-1.5-1.5V105.1a1.5,1.5,0,0,1,1.5-1.5h5.08a1.5,1.5,0,0,1,1.5,1.5v4.57A1.5,1.5,0,0,1,74.59,111.18Zm-3.58-3h2.08V106.6H71Z"/><path class="cls-2" d="M74.59,114.84H69.52a1.5,1.5,0,0,1,0-3h5.08a1.5,1.5,0,0,1,0,3Z"/><path class="cls-2" d="M85.3,111.18H80.22a1.5,1.5,0,0,1-1.5-1.5V105.1a1.5,1.5,0,0,1,1.5-1.5H85.3a1.5,1.5,0,0,1,1.5,1.5v4.57A1.5,1.5,0,0,1,85.3,111.18Zm-3.58-3H83.8V106.6H81.72Z"/><path class="cls-2" d="M85.3,114.84H80.22a1.5,1.5,0,0,1,0-3H85.3a1.5,1.5,0,0,1,0,3Z"/><path class="cls-2" d="M64,124H59a1.5,1.5,0,0,1-1.5-1.5v-4.57a1.5,1.5,0,0,1,1.5-1.5H64a1.5,1.5,0,0,1,1.5,1.5v4.57A1.5,1.5,0,0,1,64,124Zm-3.58-3h2.08v-1.57H60.46Z"/><path class="cls-2" d="M64,127.64H59a1.5,1.5,0,0,1,0-3H64a1.5,1.5,0,0,1,0,3Z"/><path class="cls-2" d="M75.33,131.57H68.78a1.5,1.5,0,0,1-1.5-1.5v-10.3a1.5,1.5,0,0,1,1.5-1.5h6.55a1.5,1.5,0,0,1,1.5,1.5v10.3A1.5,1.5,0,0,1,75.33,131.57Zm-5.05-3h3.55v-7.3H70.28Z"/><path class="cls-2" d="M85.3,124H80.22a1.5,1.5,0,0,1-1.5-1.5v-4.57a1.5,1.5,0,0,1,1.5-1.5H85.3a1.5,1.5,0,0,1,1.5,1.5v4.57A1.5,1.5,0,0,1,85.3,124Zm-3.58-3H83.8v-1.57H81.72Z"/><path class="cls-2" d="M85.3,127.64H80.22a1.5,1.5,0,0,1,0-3H85.3a1.5,1.5,0,0,1,0,3Z"/><path class="cls-2" d="M122,32.11H94.54a1.5,1.5,0,0,1,0-3H122a1.5,1.5,0,1,1,0,3Z"/><path class="cls-2" d="M122,54.25H94.54a1.5,1.5,0,0,1,0-3H122a1.5,1.5,0,0,1,0,3Z"/><path class="cls-2" d="M103.45,131.57a1.5,1.5,0,0,1-1.5-1.5V58.27a1.5,1.5,0,1,1,3,0v71.8A1.5,1.5,0,0,1,103.45,131.57Z"/><path class="cls-2" d="M97.79,131.57a1.5,1.5,0,0,1-1.5-1.5V58.27a1.5,1.5,0,1,1,3,0v71.8A1.5,1.5,0,0,1,97.79,131.57Z"/><path class="cls-2" d="M113.12,131.57a1.5,1.5,0,0,1-1.5-1.5V58.27a1.5,1.5,0,1,1,3,0v71.8A1.5,1.5,0,0,1,113.12,131.57Z"/><path class="cls-2" d="M119.17,131.57a1.5,1.5,0,0,1-1.5-1.5V58.27a1.5,1.5,0,1,1,3,0v71.8A1.5,1.5,0,0,1,119.17,131.57Z"/><path class="cls-2" d="M104,54.25a1.5,1.5,0,0,1-1.5-1.5V36.32a1.5,1.5,0,1,1,3,0V52.75A1.5,1.5,0,0,1,104,54.25Z"/><path class="cls-2" d="M99.85,54.25a1.5,1.5,0,0,1-1.5-1.5V36.32a1.5,1.5,0,1,1,3,0V52.75A1.5,1.5,0,0,1,99.85,54.25Z"/><path class="cls-2" d="M112.63,54.25a1.5,1.5,0,0,1-1.5-1.5V36.32a1.5,1.5,0,0,1,3,0V52.75A1.5,1.5,0,0,1,112.63,54.25Z"/><path class="cls-2" d="M117.11,54.25a1.5,1.5,0,0,1-1.5-1.5V36.32a1.5,1.5,0,1,1,3,0V52.75A1.5,1.5,0,0,1,117.11,54.25Z"/><path class="cls-2" d="M28.29,57.72H23.64a1.5,1.5,0,0,1-1.5-1.5V50.79a1.5,1.5,0,0,1,1.5-1.5h4.65a1.5,1.5,0,0,1,1.5,1.5v5.43A1.5,1.5,0,0,1,28.29,57.72Zm-3.15-3h1.65V52.29H25.14Z"/><path class="cls-2" d="M38.67,57.72H34a1.5,1.5,0,0,1-1.5-1.5V50.79a1.5,1.5,0,0,1,1.5-1.5h4.65a1.5,1.5,0,0,1,1.5,1.5v5.43A1.5,1.5,0,0,1,38.67,57.72Zm-3.15-3h1.65V52.29H35.52Z"/><path class="cls-2" d="M49.06,57.72H44.41a1.5,1.5,0,0,1-1.5-1.5V50.79a1.5,1.5,0,0,1,1.5-1.5h4.65a1.5,1.5,0,0,1,1.5,1.5v5.43A1.5,1.5,0,0,1,49.06,57.72Zm-3.15-3h1.65V52.29H45.91Z"/><path class="cls-2" d="M56.09,44.39H16.61a1.5,1.5,0,0,1-1.5-1.5V38.51a1.5,1.5,0,0,1,1.5-1.5H56.09a1.5,1.5,0,0,1,1.5,1.5v4.38A1.5,1.5,0,0,1,56.09,44.39Zm-38-3H54.59V40H18.11Z"/><path class="cls-2" d="M52.8,48H19a1.5,1.5,0,0,1,0-3H52.8a1.5,1.5,0,0,1,0,3Z"/><path class="cls-2" d="M52.8,61.84H19a1.5,1.5,0,0,1,0-3H52.8a1.5,1.5,0,0,1,0,3Z"/><path class="cls-2" d="M52.8,65.67H19a1.5,1.5,0,0,1,0-3H52.8a1.5,1.5,0,0,1,0,3Z"/><path class="cls-2" d="M28.29,75H23.64a1.5,1.5,0,0,1-1.5-1.5V68.1a1.5,1.5,0,0,1,1.5-1.5h4.65a1.5,1.5,0,0,1,1.5,1.5v5.43A1.5,1.5,0,0,1,28.29,75Zm-3.15-3h1.65V69.6H25.14Z"/><path class="cls-2" d="M38.67,75H34a1.5,1.5,0,0,1-1.5-1.5V68.1A1.5,1.5,0,0,1,34,66.6h4.65a1.5,1.5,0,0,1,1.5,1.5v5.43A1.5,1.5,0,0,1,38.67,75Zm-3.15-3h1.65V69.6H35.52Z"/><path class="cls-2" d="M49.06,75H44.41a1.5,1.5,0,0,1-1.5-1.5V68.1a1.5,1.5,0,0,1,1.5-1.5h4.65a1.5,1.5,0,0,1,1.5,1.5v5.43A1.5,1.5,0,0,1,49.06,75Zm-3.15-3h1.65V69.6H45.91Z"/><path class="cls-2" d="M52.8,79.15H19a1.5,1.5,0,0,1,0-3H52.8a1.5,1.5,0,0,1,0,3Z"/><path class="cls-2" d="M52.8,83H19a1.5,1.5,0,0,1,0-3H52.8a1.5,1.5,0,0,1,0,3Z"/><path class="cls-2" d="M28.29,92.35H23.64a1.5,1.5,0,0,1-1.5-1.5V85.42a1.5,1.5,0,0,1,1.5-1.5h4.65a1.5,1.5,0,0,1,1.5,1.5v5.43A1.5,1.5,0,0,1,28.29,92.35Zm-3.15-3h1.65V86.92H25.14Z"/><path class="cls-2" d="M38.67,92.35H34a1.5,1.5,0,0,1-1.5-1.5V85.42a1.5,1.5,0,0,1,1.5-1.5h4.65a1.5,1.5,0,0,1,1.5,1.5v5.43A1.5,1.5,0,0,1,38.67,92.35Zm-3.15-3h1.65V86.92H35.52Z"/><path class="cls-2" d="M49.06,92.35H44.41a1.5,1.5,0,0,1-1.5-1.5V85.42a1.5,1.5,0,0,1,1.5-1.5h4.65a1.5,1.5,0,0,1,1.5,1.5v5.43A1.5,1.5,0,0,1,49.06,92.35Zm-3.15-3h1.65V86.92H45.91Z"/><path class="cls-2" d="M52.8,96.47H19a1.5,1.5,0,0,1,0-3H52.8a1.5,1.5,0,0,1,0,3Z"/><path class="cls-2" d="M52.8,100.31H19a1.5,1.5,0,1,1,0-3H52.8a1.5,1.5,0,1,1,0,3Z"/><path class="cls-2" d="M28.29,109.66H23.64a1.5,1.5,0,0,1-1.5-1.5v-5.43a1.5,1.5,0,0,1,1.5-1.5h4.65a1.5,1.5,0,0,1,1.5,1.5v5.43A1.5,1.5,0,0,1,28.29,109.66Zm-3.15-3h1.65v-2.43H25.14Z"/><path class="cls-2" d="M38.67,109.66H34a1.5,1.5,0,0,1-1.5-1.5v-5.43a1.5,1.5,0,0,1,1.5-1.5h4.65a1.5,1.5,0,0,1,1.5,1.5v5.43A1.5,1.5,0,0,1,38.67,109.66Zm-3.15-3h1.65v-2.43H35.52Z"/><path class="cls-2" d="M49.06,109.66H44.41a1.5,1.5,0,0,1-1.5-1.5v-5.43a1.5,1.5,0,0,1,1.5-1.5h4.65a1.5,1.5,0,0,1,1.5,1.5v5.43A1.5,1.5,0,0,1,49.06,109.66Zm-3.15-3h1.65v-2.43H45.91Z"/><path class="cls-2" d="M52.8,113.78H19a1.5,1.5,0,0,1,0-3H52.8a1.5,1.5,0,0,1,0,3Z"/><path class="cls-2" d="M52.8,117.62H19a1.5,1.5,0,1,1,0-3H52.8a1.5,1.5,0,0,1,0,3Z"/><path class="cls-2" d="M44,130.79a1.5,1.5,0,0,1-1.5-1.5v-8.07H30.33v8.07a1.5,1.5,0,0,1-3,0v-9.57a1.5,1.5,0,0,1,1.5-1.5H44a1.5,1.5,0,0,1,1.5,1.5v9.57A1.5,1.5,0,0,1,44,130.79Z"/><path class="cls-2" d="M52.8,131.06H19a1.5,1.5,0,0,1,0-3H52.8a1.5,1.5,0,0,1,0,3Z"/><path class="cls-2" d="M36.44,131.3a1.5,1.5,0,0,1-1.5-1.5v-9.59a1.5,1.5,0,0,1,3,0v9.59A1.5,1.5,0,0,1,36.44,131.3Z"/><path class="cls-2" d="M122,32.11a1.5,1.5,0,0,1-1.5-1.5V24.9a1.5,1.5,0,1,1,3,0v5.7A1.5,1.5,0,0,1,122,32.11Z"/><path class="cls-2" d="M94.54,32.11a1.5,1.5,0,0,1-1.5-1.5V24.9a1.5,1.5,0,0,1,3,0v5.7A1.5,1.5,0,0,1,94.54,32.11Z"/><path class="cls-2" d="M113.11,28H103a1.5,1.5,0,0,1,0-3h10.14a1.5,1.5,0,1,1,0,3Z"/><path class="cls-2" d="M109.86,24.33h-3.25a1.5,1.5,0,0,1,0-3h3.25a1.5,1.5,0,0,1,0,3Z"/></g></svg>