<svg xmlns="http://www.w3.org/2000/svg" viewBox="0 0 142 142"><defs><style>.cls-1{fill:#fdd749;}.cls-2{fill:#3e3d3d;}</style></defs><title>Artboard 4</title><g id="dots"><circle class="cls-1" cx="71" cy="71" r="65"/></g><g id="food"><path class="cls-2" d="M89.13,79a13.68,13.68,0,0,1-9.62-23.41h0a13.59,13.59,0,0,1,9.61-3.95h.09A13.68,13.68,0,0,1,89.13,79Zm0-24.36a10.61,10.61,0,0,0-7.5,3.08h0a10.68,10.68,0,1,0,7.57-3.08Zm-8.56,2h0Z"/><path class="cls-2" d="M88.83,73h0a7.69,7.69,0,1,1,5.45-2.22A7.64,7.64,0,0,1,88.78,73Zm0-12.38a4.69,4.69,0,0,0,0,9.38h0a4.69,4.69,0,1,0,0-9.38Z"/><path class="cls-2" d="M71.52,110.41a13.69,13.69,0,0,1-5.26-26.33h0a13.68,13.68,0,1,1,5.26,26.33Zm-4.1-23.56a10.68,10.68,0,1,0,14,5.76,10.61,10.61,0,0,0-14-5.76Z"/><path class="cls-2" d="M89.76,129.17A7.69,7.69,0,0,1,84.35,116h0a7.57,7.57,0,0,1,5.45-2.22,7.69,7.69,0,0,1,0,15.38Zm0-12.38a4.66,4.66,0,0,0-3.29,1.35h0a4.69,4.69,0,1,0,3.33-1.35Zm-4.35.29h0Z"/><path class="cls-2" d="M89.76,135.16a13.67,13.67,0,1,1,9.61-3.94A13.64,13.64,0,0,1,89.76,135.16Zm0-24.36a10.61,10.61,0,1,0,.07,0Z"/><path class="cls-2" d="M95.94,123h0L83.56,123a1.5,1.5,0,0,1,0-3h0l12.37.08a1.5,1.5,0,0,1,0,3Z"/><path class="cls-2" d="M114.9,120a8.28,8.28,0,0,1-8.22-7.38l-.77-7.1a1.5,1.5,0,1,1,3-.32l.77,7.1a5.28,5.28,0,0,0,5.81,4.67l5.51-.6a5.27,5.27,0,0,0,4.67-5.81l-.77-7.1a1.5,1.5,0,1,1,3-.32l.77,7.1a8.27,8.27,0,0,1-7.33,9.12l-5.51.6A8.28,8.28,0,0,1,114.9,120Z"/><path class="cls-2" d="M105.6,90.33A1.5,1.5,0,0,1,104.11,89l-.85-7.79a8.27,8.27,0,0,1,7.33-9.12l5.51-.6a8.28,8.28,0,0,1,9.12,7.33l.85,7.79a1.5,1.5,0,1,1-3,.32l-.85-7.79a5.27,5.27,0,0,0-5.81-4.67l-5.51.6a5.27,5.27,0,0,0-4.67,5.81l.85,7.79a1.5,1.5,0,0,1-1.33,1.65Z"/><path class="cls-2" d="M105.94,105.77a1.5,1.5,0,0,1-1.49-1.34l-1.53-14.06a1.5,1.5,0,0,1,1.33-1.65l21.84-2.38a1.5,1.5,0,0,1,1.65,1.33l1.53,14.06a1.5,1.5,0,0,1-1.33,1.65l-21.84,2.38Zm.12-14.23,1.21,11.08,18.85-2.05-1.21-11.08Z"/><path class="cls-2" d="M121.15,119.36a1.49,1.49,0,0,1-1-.35l-13.64-11.51a1.5,1.5,0,1,1,1.93-2.29l13.64,11.51a1.5,1.5,0,0,1-1,2.65Z"/><path class="cls-2" d="M126.66,115.47a1.49,1.49,0,0,1-.94-.33l-13.13-10.55a1.5,1.5,0,1,1,1.88-2.34L127.6,112.8a1.5,1.5,0,0,1-.94,2.67Z"/><path class="cls-2" d="M114.11,90.06a1.49,1.49,0,0,1-.94-.33l-9.35-7.52a1.5,1.5,0,1,1,1.88-2.34L115,87.39a1.5,1.5,0,0,1-.94,2.67Z"/><path class="cls-2" d="M122.88,89.7a1.49,1.49,0,0,1-.94-.33L106.36,76.85a1.5,1.5,0,1,1,1.88-2.34L123.82,87a1.5,1.5,0,0,1-.94,2.67Z"/><path class="cls-2" d="M123.45,82a1.49,1.49,0,0,1-.94-.33l-9.15-7.35A1.5,1.5,0,1,1,115.25,72l9.15,7.35a1.5,1.5,0,0,1-.94,2.67Z"/><path class="cls-2" d="M60.1,113.61a1.5,1.5,0,0,1-1.37-.9L34.07,56.46a1.5,1.5,0,0,1,2.75-1.21l24.06,54.91.74-.31L43.06,62.75a1.5,1.5,0,1,1,2.79-1.1l19.09,48.47a1.5,1.5,0,0,1-.82,1.93l-3.46,1.44A1.5,1.5,0,0,1,60.1,113.61Z"/><path class="cls-2" d="M40.22,53a1.5,1.5,0,0,1-1.4-1L26.64,21.08l-4.07,1.69L31.45,43a1.5,1.5,0,0,1-2.75,1.21L19.22,22.57a1.5,1.5,0,0,1,.8-2l6.89-2.87a1.5,1.5,0,0,1,2,.83L41.62,50.9a1.5,1.5,0,0,1-1.4,2Z"/><path class="cls-2" d="M86.29,91.65a1.5,1.5,0,0,1-.84-.26L4.14,35.93a1.5,1.5,0,0,1-.38-2.11l4.32-6.08a1.5,1.5,0,0,1,2.11-.34L89.35,85.89A1.5,1.5,0,0,1,89.68,88L87.52,91A1.5,1.5,0,0,1,86.29,91.65ZM7.09,34.31,85.92,88.08l.46-.65L9.64,30.72Z"/><path class="cls-2" d="M69.48,105.47a4,4,0,0,1-1.53-7.65h0a4,4,0,1,1,1.53,7.65Zm-.38-4.88a1,1,0,1,0,1.28.53,1,1,0,0,0-1.28-.53Z"/><path class="cls-2" d="M66,101.15a4,4,0,1,1,1.52-.31A4,4,0,0,1,66,101.15Zm0-5a1,1,0,0,0-.38.08h0a1,1,0,1,0,.38-.08Zm-1-1.31h0Z"/><path class="cls-2" d="M71.27,100.83a4,4,0,1,1,1.53-.31A4,4,0,0,1,71.27,100.83Zm0-5a1,1,0,0,0-.38.08h0a1,1,0,1,0,.38-.08Zm-1-1.31h0Z"/><path class="cls-2" d="M74.57,104.83a4,4,0,1,1,1.53-.31A4,4,0,0,1,74.57,104.83Zm0-5a1,1,0,0,0-.38.08h0a1,1,0,1,0,.38-.08Zm-1-1.31h0Z"/><path class="cls-2" d="M68.48,96.62a4,4,0,1,1,1.52-.3A4,4,0,0,1,68.48,96.62Zm0-5a1,1,0,0,0-.37.07h0a1,1,0,1,0,.37-.07Zm-1-1.31h0Z"/><path class="cls-2" d="M76.31,99.94a4,4,0,1,1,1.53-.31A4,4,0,0,1,76.31,99.94Zm0-5a1,1,0,0,0-.38.08h0a1,1,0,1,0,.38-.08Zm-1-1.31h0Z"/><path class="cls-2" d="M73.48,95.75A4,4,0,1,1,75,95.44,4,4,0,0,1,73.48,95.75Zm0-5a1,1,0,0,0-.37,1.88,1,1,0,0,0,.75,0,1,1,0,0,0-.38-1.88Z"/></g><g id="Layer_2" data-name="Layer 2"><path class="cls-2" d="M54.67,44.66a1.5,1.5,0,0,1-1.5-1.5l0-30.34a1.5,1.5,0,0,1,1.5-1.5h82.65a1.5,1.5,0,0,1,1.5,1.5V32.76a1.5,1.5,0,0,1-1.5,1.5H61.6L56,43.91A1.5,1.5,0,0,1,54.67,44.66ZM56.2,14.32l0,23.28L59.44,32a1.5,1.5,0,0,1,1.3-.74h75.11V14.32Z"/><path class="cls-2" d="M61.18,29.93a1.5,1.5,0,0,1-1.48-1.75l.57-3.31-2.4-2.34A1.5,1.5,0,0,1,58.69,20L62,19.49l1.49-3a1.5,1.5,0,0,1,1.35-.84h0a1.5,1.5,0,0,1,1.35.84l1.48,3L71,20a1.5,1.5,0,0,1,.83,2.56l-2.4,2.34L70,28.18a1.5,1.5,0,0,1-2.18,1.58l-3-1.56-3,1.56A1.5,1.5,0,0,1,61.18,29.93Zm1-7.43.79.77a1.5,1.5,0,0,1,.43,1.33l-.19,1.09,1-.51a1.51,1.51,0,0,1,1.4,0l1,.51-.19-1.09a1.5,1.5,0,0,1,.43-1.33l.79-.77-1.09-.16a1.5,1.5,0,0,1-1.13-.82l-.49-1-.49,1a1.5,1.5,0,0,1-1.13.82Z"/><path class="cls-2" d="M84.14,29.93a1.5,1.5,0,0,1-.7-.17l-3-1.56-3,1.56a1.5,1.5,0,0,1-2.18-1.58l.57-3.31-2.4-2.34A1.5,1.5,0,0,1,74.32,20l3.32-.48,1.49-3a1.5,1.5,0,0,1,1.35-.84h0a1.5,1.5,0,0,1,1.35.84l1.48,3,3.32.48a1.5,1.5,0,0,1,.83,2.56L85,24.87l.57,3.31a1.5,1.5,0,0,1-1.48,1.75ZM80.47,25a1.5,1.5,0,0,1,.7.17l1,.51L82,24.6a1.5,1.5,0,0,1,.43-1.33l.79-.77-1.09-.16A1.5,1.5,0,0,1,81,21.52l-.49-1-.49,1a1.5,1.5,0,0,1-1.13.82l-1.09.16.79.77A1.5,1.5,0,0,1,79,24.6l-.19,1.09,1-.51A1.5,1.5,0,0,1,80.47,25Z"/><path class="cls-2" d="M99.76,29.93a1.5,1.5,0,0,1-.7-.17l-3-1.56-3,1.56a1.5,1.5,0,0,1-2.18-1.58l.57-3.31-2.4-2.34A1.5,1.5,0,0,1,89.94,20l3.32-.48,1.49-3a1.5,1.5,0,0,1,1.35-.84h0a1.5,1.5,0,0,1,1.35.84l1.48,3,3.32.48a1.5,1.5,0,0,1,.83,2.56l-2.4,2.34.57,3.31a1.5,1.5,0,0,1-1.48,1.75ZM96.09,25a1.5,1.5,0,0,1,.7.17l1,.51-.19-1.09A1.5,1.5,0,0,1,98,23.27l.79-.77-1.09-.16a1.5,1.5,0,0,1-1.13-.82l-.49-1-.49,1a1.5,1.5,0,0,1-1.13.82l-1.09.16.79.77a1.5,1.5,0,0,1,.43,1.33l-.19,1.09,1-.51A1.5,1.5,0,0,1,96.09,25Z"/><path class="cls-2" d="M115.39,29.93a1.5,1.5,0,0,1-.7-.17l-3-1.56-3,1.56a1.5,1.5,0,0,1-2.18-1.58l.57-3.31-2.4-2.34a1.5,1.5,0,0,1,.83-2.56l3.32-.48,1.49-3a1.5,1.5,0,0,1,1.35-.84h0a1.5,1.5,0,0,1,1.35.84l1.48,3,3.32.48a1.5,1.5,0,0,1,.83,2.56l-2.4,2.34.57,3.31a1.5,1.5,0,0,1-1.48,1.75ZM111.72,25a1.5,1.5,0,0,1,.7.17l1,.51-.19-1.09a1.5,1.5,0,0,1,.43-1.33l.79-.77-1.09-.16a1.5,1.5,0,0,1-1.13-.82l-.49-1-.49,1a1.5,1.5,0,0,1-1.13.82L109,22.5l.79.77a1.5,1.5,0,0,1,.43,1.33L110,25.69l1-.51A1.5,1.5,0,0,1,111.72,25Z"/><path class="cls-2" d="M131,29.93a1.5,1.5,0,0,1-.7-.17l-3-1.56-3,1.56a1.5,1.5,0,0,1-2.18-1.58l.57-3.31-2.4-2.34a1.5,1.5,0,0,1,.83-2.56l3.32-.48,1.49-3a1.5,1.5,0,0,1,1.35-.84h0a1.5,1.5,0,0,1,1.35.84l1.48,3,3.32.48a1.5,1.5,0,0,1,.83,2.56l-2.4,2.34.57,3.31A1.5,1.5,0,0,1,131,29.93ZM127.34,25a1.5,1.5,0,0,1,.7.17l1,.51-.19-1.09a1.5,1.5,0,0,1,.43-1.33l.79-.77L129,22.34a1.5,1.5,0,0,1-1.13-.82l-.49-1-.49,1a1.5,1.5,0,0,1-1.13.82l-1.09.16.79.77a1.5,1.5,0,0,1,.43,1.33l-.19,1.09,1-.51A1.5,1.5,0,0,1,127.34,25Z"/></g></svg>