<svg xmlns="http://www.w3.org/2000/svg" viewBox="0 0 44 44"><defs><style>.cls-1{fill:#fdd749;}.cls-2{fill:none;stroke:#3e3d3d;stroke-linecap:round;stroke-linejoin:round;stroke-width:1.25px;}</style></defs><title>intro4V2</title><g id="dots"><circle class="cls-1" cx="22" cy="22" r="20.8"/></g><g id="food"><line class="cls-2" x1="9.54" y1="13.3" x2="7.76" y2="10.22"/><line class="cls-2" x1="12" y1="17.56" x2="11.14" y2="16.09"/><line class="cls-2" x1="15.61" y1="23.81" x2="14.66" y2="22.17"/><line class="cls-2" x1="18.16" y1="28.24" x2="17.22" y2="26.6"/><line class="cls-2" x1="20.82" y1="32.83" x2="19.58" y2="30.69"/><line class="cls-2" x1="23.81" y1="38.02" x2="22.43" y2="35.62"/><path class="cls-2" d="M8.62,6.94a2.36,2.36,0,1,0-.84,3.22"/><rect class="cls-2" x="18.57" y="32.6" width="6.17" height="3.21" transform="matrix(0.87, -0.5, 0.5, 0.87, -14.21, 15.42)"/><rect class="cls-2" x="7.28" y="13.07" width="6.17" height="3.21" transform="translate(-5.95 7.16) rotate(-30.02)"/><rect class="cls-2" x="13.36" y="23.58" width="6.17" height="3.21" transform="translate(-10.39 11.6) rotate(-30.02)"/><path class="cls-2" d="M14.95,36.23c.55-2.48,1.47-3.7,4.64-5.53s3.55-1.63,6.5-.9c0,0-3.65-4-7.82-1.61C13.42,31,14.95,36.23,14.95,36.23Z"/><circle class="cls-2" cx="13.33" cy="19.87" r="2.66" transform="matrix(0.87, -0.5, 0.5, 0.87, -8.15, 9.33)"/><line class="cls-2" x1="35.79" y1="31.31" x2="37.57" y2="34.39"/><line class="cls-2" x1="33.33" y1="27.05" x2="34.18" y2="28.53"/><line class="cls-2" x1="29.72" y1="20.8" x2="30.67" y2="22.44"/><line class="cls-2" x1="27.16" y1="16.38" x2="28.11" y2="18.02"/><line class="cls-2" x1="24.51" y1="11.78" x2="25.74" y2="13.92"/><line class="cls-2" x1="21.51" y1="6.6" x2="22.9" y2="9"/><path class="cls-2" d="M40.84,35.28a2.36,2.36,0,1,1-3.21-.88"/><rect class="cls-2" x="20.65" y="8.77" width="6.17" height="3.21" transform="translate(-2.01 13.26) rotate(-30.02)"/><polyline class="cls-2" points="34.18 28.53 31.54 30.06 33.15 32.84 38.49 29.75 36.89 26.97 34.18 28.53"/><rect class="cls-2" x="25.86" y="17.79" width="6.17" height="3.21" transform="translate(-5.82 17.08) rotate(-30.02)"/><path class="cls-2" d="M18.64,15.17c2.43.76,3.94.58,7.11-1.25s3.19-2.27,4-5.18c0,0,1.66,5.17-2.51,7.58C22.42,19.12,18.64,15.17,18.64,15.17Z"/><path class="cls-2" d="M30.67,22.44a2.66,2.66,0,1,0,3.64,1,2.66,2.66,0,0,0-3.64-1"/></g></svg>