<svg xmlns="http://www.w3.org/2000/svg" viewBox="0 0 44 44"><defs><style>.cls-1{fill:#fdd749;}.cls-2{fill:none;stroke:#3e3d3d;stroke-linecap:round;stroke-linejoin:round;stroke-width:1.25px;}</style></defs><title>intro2V2</title><g id="dots"><circle class="cls-1" cx="22" cy="22" r="20.8"/></g><g id="food"><path class="cls-2" d="M29.54,15.55a2.84,2.84,0,0,0-.68-5q-.05-.52-.16-1A10.37,10.37,0,0,0,8.39,13.66a10.47,10.47,0,0,0,.29,1.1,2.84,2.84,0,0,0,1.48,4.77"/><path class="cls-2" d="M29.76,15.41a2.86,2.86,0,0,0-3.26-4.68"/><path class="cls-2" d="M15.55,17.9l4-1.13,1.32.63,8.78-1.82L25.1,42a.33.33,0,0,1-.6.12L9.91,19.64l3.16-.94"/><line class="cls-2" x1="16.14" y1="20.79" x2="26.92" y2="26.21"/><line class="cls-2" x1="20.66" y1="17.31" x2="28.65" y2="21.32"/><line class="cls-2" x1="22.21" y1="37.12" x2="24.8" y2="38.42"/><line class="cls-2" x1="17.94" y1="30.52" x2="25.53" y2="34.34"/><line class="cls-2" x1="15.75" y1="24.98" x2="26.22" y2="30.25"/><line class="cls-2" x1="13.67" y1="23.93" x2="14.2" y2="24.2"/><line class="cls-2" x1="23.5" y1="20.05" x2="16.51" y2="28.36"/><line class="cls-2" x1="14.41" y1="24.69" x2="14.27" y2="24.85"/><line class="cls-2" x1="19.81" y1="18.27" x2="16.45" y2="22.27"/><line class="cls-2" x1="25.14" y1="36.52" x2="23.27" y2="38.75"/><line class="cls-2" x1="26.46" y1="28.78" x2="20.99" y2="35.29"/><line class="cls-2" x1="27.1" y1="21.86" x2="18.74" y2="31.8"/><line class="cls-2" x1="28.46" y1="18.68" x2="27" y2="20.41"/><line class="cls-2" x1="24.6" y1="17.17" x2="23.44" y2="18.55"/><path class="cls-2" d="M13,18.36l1.22,5.93a1.17,1.17,0,0,0,1.47.71c.7-.14,1.18-.7,1.07-1.23L15.55,17.9"/><line class="cls-2" x1="18.66" y1="6.04" x2="19.68" y2="6.85"/><line class="cls-2" x1="14.8" y1="8.07" x2="13.98" y2="9.1"/><line class="cls-2" x1="12.56" y1="7.09" x2="11.28" y2="6.83"/><line class="cls-2" x1="14.99" y1="4.54" x2="15.61" y2="5.69"/><line class="cls-2" x1="22.96" y1="4.84" x2="22.44" y2="6.03"/><line class="cls-2" x1="20.51" y1="3.78" x2="19.22" y2="4.01"/></g></svg>