<svg xmlns="http://www.w3.org/2000/svg" viewBox="0 0 44 44"><defs><style>.cls-1{fill:#fdd749;}.cls-2{fill:none;stroke:#3e3d3d;stroke-linecap:round;stroke-linejoin:round;stroke-width:1.25px;}</style></defs><title>intro3V2</title><g id="dots"><circle class="cls-1" cx="22" cy="22" r="20.8"/></g><g id="food"><polyline class="cls-2" points="15.88 38.38 15.88 40.44 26.83 40.44 26.83 38.26"/><path class="cls-2" d="M33.69,26.4a1.36,1.36,0,0,0,.23-.9,1.86,1.86,0,0,0-2.49-1.75,2.13,2.13,0,0,0-3-2.26A1.8,1.8,0,1,0,25,20.34a1.59,1.59,0,0,0-1.86-.82,1.53,1.53,0,0,0,0-.16,1.55,1.55,0,0,0-2.75-1,1.81,1.81,0,0,0-2.08-.62,1.51,1.51,0,0,0-2.64,1.37H15.6a1.8,1.8,0,0,0-1.71,2.38,2.12,2.12,0,0,0-3,2.26,1.86,1.86,0,0,0-2.24,2.69"/><path class="cls-2" d="M18.56,23.31a1.81,1.81,0,0,0,2.08.62A1.51,1.51,0,0,0,23.35,23"/><path class="cls-2" d="M17.88,19.78a1.59,1.59,0,0,0,1.86.82"/><path class="cls-2" d="M36.36,26.43c0,6.65-6.72,12-15,12s-15-5.39-15-12Z"/><path class="cls-2" d="M15,35.08a13.46,13.46,0,0,1-6.09-5.87"/><polyline class="cls-2" points="31.3 22.43 39.9 5.55 41.85 6.59 32.37 23.67"/><polyline class="cls-2" points="28.64 21.37 32.34 2.14 34.5 2.59 30.22 21.45"/></g></svg>