<svg id="Layer_1" data-name="Layer 1" xmlns="http://www.w3.org/2000/svg" viewBox="0 0 40 40"><title>Artboard 2 copy 3</title><path d="M10.19,29.43a7.4,7.4,0,0,1,2.29-4.32c1.42-1.41,2.8-2.84,4.23-4.23a4,4,0,0,1,4.93-.77,4.21,4.21,0,0,1,.85.66c1.61,1.61,3.23,3.21,4.81,4.84a5.49,5.49,0,0,1,1.6,3.15,4.39,4.39,0,0,1-4.09,4.83c-.44,0-.88,0-1.32,0H15.58c-2.77,0-4.09-.9-5.12-3.42-.54-.26-1.1-.47-1.61-.78s-.91-1-.71-1.36.92-.58,1.6-.2a1.12,1.12,0,0,1,.43.64A4.21,4.21,0,0,1,10.19,29.43Z"/><path d="M31,20.72a2.69,2.69,0,0,0-1.83-1.57,1,1,0,0,1-.56-.55,6,6,0,0,1-.45-1.83,9.71,9.71,0,0,1,1.25-4.42,4.54,4.54,0,0,1,.75-.82,1.68,1.68,0,0,1,1.51,1.32c.6,2.07,1,4.18.14,6.29C31.58,19.68,31.27,20.19,31,20.72Z"/><path d="M8.67,21A6.4,6.4,0,0,1,7.28,18a10.46,10.46,0,0,1,.37-4.81A3.14,3.14,0,0,1,8.3,12.1.78.78,0,0,1,9.62,12l.08.09c1,2,1.9,3.95,1.2,6.25a1.26,1.26,0,0,1-.92,1C9.23,19.51,8.78,20,8.67,21Z"/><path d="M28.35,13a10.65,10.65,0,0,1-5.3-5.74l.84.76a5.43,5.43,0,0,0,2.23,1.34c.91.25,1.54-.14,1.51-1.08a7.07,7.07,0,0,0-.45-1.84,12.14,12.14,0,0,0-.48-1.12c1.59.47,3.55,3.22,4,5.58C29.43,10.93,29,12,28.35,13Z"/><path d="M10.78,13A2.55,2.55,0,0,0,8.59,11c.06-1.85,2.17-4.92,4.16-6A9.26,9.26,0,0,0,11.64,8c-.16,1.34.48,1.82,1.7,1.29a14.63,14.63,0,0,0,2-1.23,4.76,4.76,0,0,1,.68-.46C14.86,9.87,13.39,11.89,10.78,13Z"/><path d="M13.92,22.87c-.71,1.31-1.12,1.42-2.37.77a4.14,4.14,0,0,1-2.16-2.12c-.3-.73-.24-1.14.23-1.49s.77-.25,1.36.29.88.92,1.36,1.34S13.34,22.43,13.92,22.87Z"/><path d="M25.29,22.88c1.13-1,2.11-1.83,3.11-2.67.55-.47,1-.48,1.36-.08a.82.82,0,0,1,.22,1,5,5,0,0,1-3.23,2.81,1.1,1.1,0,0,1-.85-.23A3.15,3.15,0,0,1,25.29,22.88Z"/><path d="M32.32,27.88a9.54,9.54,0,0,1,4.19,2.22.74.74,0,0,1,.22,1,1,1,0,0,1-.93.19,33.37,33.37,0,0,1-3.3-1.87C32,29.1,32.26,28.47,32.32,27.88Z"/><path d="M7.47,27.71c.49,1,.25,1.67-.6,2.11s-1.61.88-2.45,1.23a3.67,3.67,0,0,1-1.19.1A1,1,0,0,1,3.52,30,9.47,9.47,0,0,1,7.47,27.71Z"/><path d="M22.67,19.68a1.13,1.13,0,0,1-1.25-1.13,1.22,1.22,0,1,1,2.44,0A1.11,1.11,0,0,1,22.67,19.68Z"/><path d="M31.43,31.4c1.08,1,2.29,1.85,2.54,3.44a1.05,1.05,0,0,1-1.32-.33c-.5-.52-.95-1.08-1.42-1.62S30.83,32,31.43,31.4Z"/><path d="M5.85,35c-.52-.24-.56-.56-.37-.93A6.46,6.46,0,0,1,7.8,31.42c.46.27.65.66.38,1A6.88,6.88,0,0,1,5.85,35Z"/><path d="M16.68,19.68a1.17,1.17,0,0,1-1.24-1.17,1.35,1.35,0,0,1,1.21-1.25,1.23,1.23,0,0,1,1.22,1.23A1.11,1.11,0,0,1,16.68,19.68Z"/><path d="M29.36,29.89c0-.32,0-.63,0-.94,0-1,.59-1.45,1.52-1.29.23,0,.58.28.6.46a1.26,1.26,0,0,1-.24,1A2.53,2.53,0,0,1,29.36,29.89Z"/><path d="M10.54,32a2,2,0,0,1-1.74-.29.55.55,0,0,1,.1-1,.93.93,0,0,1,1.27.44A7.66,7.66,0,0,1,10.54,32Z"/><path d="M29.27,30.75c1-.1,1.39,0,1.42.48s-.47.74-1.15.87a7.12,7.12,0,0,1-.93,0Z"/></svg>