<svg id="Layer_1" data-name="Layer 1" xmlns="http://www.w3.org/2000/svg" viewBox="0 0 40 40"><title>Artboard 2 copy 5</title><path d="M9.61,34.93c-.45-.29-.82-.52-1.17-.78A3.45,3.45,0,0,1,8,33.68c.69-.9,1.33-1.8,2-2.66,1.79-2.16,1.8-2.16,1.8-4.92,0-3.64,0-7.28,0-10.92a3.54,3.54,0,0,1,.44-1.83c.66-1.19,1.26-2.41,1.92-3.59a4.15,4.15,0,0,0,.57-2.4c0-.55,0-1.1,0-1.62,1.15-.27,9.85.82,11.7,1.43l.13,2.25c1.5-1.36,2.36-3,3.76-4.35L32,6.24c-1.13,1.86-2.56,3.41-3.82,5.22.33.34.62.7,1,1a2.55,2.55,0,0,1,.88,2.12c0,5.31,0,10.63,0,16V31a.89.89,0,0,1-.68,1c-1.62.67-3.22,1.39-4.82,2.13a3.26,3.26,0,0,1-2,.19c-1.93-.29-3.84-.65-5.76-1-1.53-.26-3.06-.53-4.58-.81a.73.73,0,0,0-.82.32c-.33.45-.68.89-1,1.32C10.13,34.41,9.88,34.65,9.61,34.93Zm11.7-2.44c.05-.41.09-.6.09-.79q0-5.74,0-11.49a.14.14,0,0,0-.07-.1.59.59,0,0,0-.18,0c-.1.12-.22.26-.33.41-1.48,2.09-2.94,4.17-4.42,6.25-.69,1-1.4,1.94-2.08,2.92s-.39,1.39.62,1.59,2.09.45,3.15.66S20.13,32.28,21.31,32.49Zm.3-15.79L14,15.48V26.54Zm2.31-5.5-7.81-1.15-2.17,3.64c2.93.58,5.72,1,8.57,1.49Z"/></svg>