<svg id="Layer_1" data-name="Layer 1" xmlns="http://www.w3.org/2000/svg" viewBox="0 0 40 40"><title>Artboard 2 copy 4</title><path d="M13.85,9.71l1.94,1.35c-.82,1.32-1.94,2.35-2.73,3.74a9,9,0,0,0,4.17.65,7.85,7.85,0,0,0,4.16-.81,28.31,28.31,0,0,0,6.11,4,12.55,12.55,0,0,0,.27-5.43c-.11-.61-.21-1.14.44-1.57.9-.6,1-.65,1.9,0a12.66,12.66,0,0,1,5.68,8.91,10.64,10.64,0,0,1-.92,5.72,13.91,13.91,0,0,1-7.5,7.2,18.79,18.79,0,0,1-9.61,1.41A15.63,15.63,0,0,1,6.61,29a11,11,0,0,1-2.45-6.26c-.3-4.71,1.78-8.22,5.5-10.9A14.53,14.53,0,0,1,13.85,9.71ZM32.59,23.52c-3.45,5.78-8.67,8.57-15.41,9C24.3,35,31.58,29,32.59,23.52Z"/><path d="M21.55,12.42c-1.87,1.65-3,1.92-6.07,1.46a19.89,19.89,0,0,1,3.07-3.41c-2.21-.17-3.45-1.58-4.67-3.07a11.71,11.71,0,0,1,4-.36,3.5,3.5,0,0,1,2.6,1,3.18,3.18,0,0,0,.43.32,6.72,6.72,0,0,1,1.31-3.34L24.07,6c-.05.89-.86,1.48-.61,2.47,2.11-.92,3.93-.07,5.77.65l0,.28-3.93,2.1a11.11,11.11,0,0,1,.88,2.16,14,14,0,0,1,0,2.51A9.42,9.42,0,0,1,21.55,12.42Z"/></svg>