<svg id="Layer_1" data-name="Layer 1" xmlns="http://www.w3.org/2000/svg" viewBox="0 0 40 40"><title>Artboard 2</title><path d="M23.63,12.88c-1.46,1.6-3.13,2.89-4.05,4.8A19.39,19.39,0,0,0,18,23.91l-6.62-11-.18.13a.36.36,0,0,0,0,.11.49.49,0,0,0,0,.12,2,2,0,0,0,.07.23Q15.82,24,20.35,34.59s0,.08,0,.21a1.92,1.92,0,0,1-.63.05A41.89,41.89,0,0,1,9.11,31.21a12.86,12.86,0,0,1-5-4.84,8.27,8.27,0,0,1-.88-2.59,21.48,21.48,0,0,1-.62-4.48,16.42,16.42,0,0,1,1-5.63c.75-1.94,1.56-3.85,2.38-5.76.31-.73.71-1.42,1-2.15a1.09,1.09,0,0,1,1.38-.63q1,.21,2,.48A30.69,30.69,0,0,1,17.09,8a21.52,21.52,0,0,1,4.51,3.13C22.23,11.69,22.91,12.25,23.63,12.88Z"/><path d="M29.52,19.49a38.24,38.24,0,0,0-8.17,11.56,4.79,4.79,0,0,1-.58-.75,16.07,16.07,0,0,1-1.7-7.14,10.27,10.27,0,0,1,2.79-6.82,14,14,0,0,1,6.51-4.05c1.5-.42,3-.88,4.47-1.34a.87.87,0,0,1,1.17.51c1.27,2.53,2.67,5,3.16,7.85a13,13,0,0,1-.47,6.85,8.22,8.22,0,0,1-2.43,3.22,20.68,20.68,0,0,1-5.48,3.38c-1.66.69-3.34,1.3-5,1.93a6.7,6.7,0,0,1-1.05.22C24.87,29.58,27.23,24.55,29.52,19.49Z"/></svg>