<svg id="Layer_1" data-name="Layer 1" xmlns="http://www.w3.org/2000/svg" viewBox="0 0 40 40"><title>Artboard 2 copy 11</title><path d="M28.73,34.73c-4-.22-7.61-.94-10.85-3.07a15.37,15.37,0,0,1-3.71-3.53c-1.26-1.65-2.64-3.22-3.74-5a6,6,0,0,1-.9-4.8,4.45,4.45,0,0,1,2.69-3,2.84,2.84,0,0,1,3.13.47,9.51,9.51,0,0,1,2.45,3.07c.88,1.79,1.72,3.6,2.68,5.35a14.12,14.12,0,0,0,4.69,5.34c1.45.92,3,1.75,4.44,2.62a6.67,6.67,0,0,1,1.1.71c.76.68.61,1.41-.37,1.67A8.23,8.23,0,0,1,28.73,34.73Zm-7.28-3.34c-.52-.42-1-.82-1.54-1.26-1.48-1.27-3-2.5-4.4-3.86a13.34,13.34,0,0,1-3.11-4.35,3.28,3.28,0,0,0-.39-.46A14.33,14.33,0,0,0,21.45,31.39Z"/><path d="M12.24,13.28c.76.46,1.32.8,1.89,1.13-1,.44-2,.3-2.83.94s-1.4,1.26-2.15,1.94A1.32,1.32,0,0,1,9,15.7a9.61,9.61,0,0,0,.9-4c.15-2.29,1.49-4.09,2.88-5.81a2.32,2.32,0,0,1,.64-.52.76.76,0,0,1,1,.18.69.69,0,0,1,0,1,24.77,24.77,0,0,0-1.64,2.35A5.52,5.52,0,0,0,12.24,13.28Z"/></svg>