<svg xmlns="http://www.w3.org/2000/svg" viewBox="0 0 150 150"><defs><style>.cls-1{fill:#ffd73b;}.cls-2{fill:none;stroke:#fff;stroke-linecap:round;stroke-linejoin:round;stroke-width:3px;}</style></defs><title>Artboard 70white</title><g id="Layer_2" data-name="Layer 2"><circle class="cls-1" cx="75" cy="75" r="65"/></g><g id="Layer_1" data-name="Layer 1"><path class="cls-2" d="M46.2,49.9l.2,59.5"/><path class="cls-2" d="M55.3,17.5l-7.5,3.8L42.4,24a13.9,13.9,0,0,0-7.7,10.3q-6,35-11.9,70l23.6,5.2v31.3h59v-91h0"/><path class="cls-2" d="M105.6,109.4l23.6-5.2L117,34.8a14.1,14.1,0,0,0-8.2-10.4L96.1,18.7"/><path class="cls-2" d="M55.3,17.5V8H96.1V18.7"/><line class="cls-2" x1="55.3" y1="8" x2="68.5" y2="18.7"/><line class="cls-2" x1="96.1" y1="8" x2="82.8" y2="18.7"/><line class="cls-2" x1="61.9" y1="26" x2="61.9" y2="140.8"/><line class="cls-2" x1="68.5" y1="19.4" x2="68.5" y2="25.7"/><path class="cls-2" d="M82.8,19.4v7.7"/><line class="cls-2" x1="61.9" y1="27.1" x2="82.8" y2="27.1"/><circle class="cls-2" cx="68.7" cy="33.5" r="0.7"/><circle class="cls-2" cx="68.5" cy="58.8" r="0.7"/><circle class="cls-2" cx="82.8" cy="33.5" r="0.7"/><circle class="cls-2" cx="82.8" cy="58.8" r="0.7"/><circle class="cls-2" cx="68.7" cy="84.7" r="0.7"/><circle class="cls-2" cx="68.5" cy="110" r="0.7"/><circle class="cls-2" cx="82.8" cy="84.7" r="0.7"/><circle class="cls-2" cx="82.8" cy="110" r="0.7"/><path class="cls-2" d="M25.8,91.8l20.4,4.5"/><line class="cls-2" x1="126.7" y1="91.6" x2="105.4" y2="96.3"/><line class="cls-2" x1="55.3" y1="17.5" x2="61.9" y2="26"/><line class="cls-2" x1="96.1" y1="17.5" x2="89.4" y2="26"/></g></svg>