<?xml version="1.0" encoding="utf-8"?>
<!-- Generator: Adobe Illustrator 19.2.1, SVG Export Plug-In . SVG Version: 6.00 Build 0)  -->
<svg version="1.0" id="Layer_1" xmlns="http://www.w3.org/2000/svg" xmlns:xlink="http://www.w3.org/1999/xlink" x="0px" y="0px"
	 viewBox="0 0 150 150" style="enable-background:new 0 0 150 150;" xml:space="preserve">
<style type="text/css">
	.st0{fill:none;stroke:#3F3E3E;stroke-width:3;stroke-linecap:round;stroke-linejoin:round;stroke-miterlimit:10;}
	.st1{fill:#3F3E3E;}
	.st2{fill:#FFFFFF;}
	.st3{fill:#3F3D3E;}
	.st4{fill:#FFD83D;}
	.st5{fill:none;stroke:#3F3E3E;stroke-width:3;stroke-linecap:round;stroke-linejoin:round;}
	.st6{fill:none;stroke:#3F3E3E;stroke-width:3;stroke-linecap:round;stroke-linejoin:round;stroke-dasharray:6.7627,6.7627;}
	.st7{fill:none;stroke:#3F3E3E;stroke-width:3;stroke-linecap:round;stroke-linejoin:round;stroke-dasharray:4.828,9.6561;}
	.st8{fill:#FFFFFF;stroke:#3F3E3E;stroke-width:3;stroke-linecap:round;stroke-linejoin:round;stroke-miterlimit:10;}
	.st9{fill:none;stroke:#37383A;stroke-width:3;stroke-linecap:round;stroke-linejoin:round;stroke-miterlimit:10;}
	.st10{fill:none;stroke:#3F3E3E;stroke-width:3;stroke-linecap:round;stroke-linejoin:round;stroke-dasharray:7.2824,7.2824;}
</style>
<g>
	<path class="st0" d="M14.2,77.8c-0.2-0.3,1.2-1.3,1-1.7c-0.2-0.3-1.7,0.7-1.9,0.4c-0.2-0.3,1.2-1.3,1-1.7c-0.2-0.3-1.7,0.7-1.9,0.4
		c-0.2-0.3,1.2-1.3,1-1.7c-0.2-0.3-1.7,0.7-1.9,0.4c-0.2-0.3,1.2-1.3,1-1.7c-0.2-0.3-1.7,0.7-1.9,0.4c-0.2-0.3,1.1-0.6,1.2-1
		c1-3.2,0.6-6.7,2.2-9.6c1.6-2.9,5-4.5,7.1-7c2.1-2.5,3.3-6,5.9-8c2.6-2,6.3-2.3,9.2-3.9c2.9-1.5,5.2-4.5,8.3-5.6
		c3.1-1.1,6.7-0.2,10-0.8c3.2-0.6,6.2-2.7,9.6-2.9c3.2-0.1,6.5,1.7,9.8,2.1c3.2,0.3,6.7-0.9,10-0.2c3.4,0.8,6.1,3.5,9.2,4.7
		c3.2,1.2,7.1,1.1,10,2.7c3,1.7,4.9,5.1,7.5,7.1c2.7,2.1,5.6,2.9,7.9,5.3"/>
	<line class="st0" x1="38.7" y1="79.5" x2="33" y2="78.2"/>
	<line class="st0" x1="48.5" y1="72.8" x2="43.3" y2="71.6"/>
	<path class="st0" d="M82.9,39.1c0,0-0.1,0-0.1,0c0,0-0.1,0-0.1,0l0,0C53.6,32.4,24.2,50.7,15,80.5c-0.7,2.4,0.7,4.8,3.1,5.4
		l46.4,11.2l9,2.1l46.5,10.5c2.4,0.5,4.8-1.1,5.1-3.5C127.8,90.1,122.6,48.4,82.9,39.1z"/>
	<path class="st0" d="M127.1,104.2c0.3-0.2-0.5-1.8-0.2-2c0.3-0.2,1.2,1.4,1.6,1.2c0.3-0.2-0.5-1.8-0.2-2c0.3-0.2,1.2,1.4,1.6,1.2
		c0.3-0.2-0.5-1.8-0.2-2c0.3-0.2,1.2,1.4,1.6,1.2c0.3-0.2-0.5-1.8-0.2-2c0.3-0.2,1.2,1.4,1.6,1.2c0.3-0.2-0.7-1.1-0.6-1.5
		c0.5-3.3,2.4-6.3,2.2-9.6c-0.2-3.3-2.5-6.2-3.3-9.4c-0.8-3.1-0.3-6.9-1.7-9.8c-1.4-2.9-4.6-4.8-6.5-7.5c-1.9-2.6-2.6-6.3-5-8.7
		c-2.3-2.3-5.9-3.1-8.6-5.1c-2.6-1.9-4.4-5.2-7.3-6.8c-2.8-1.5-6.6-1.3-9.7-2.5c-3-1.1-5.6-3.8-8.9-4.6c-3.4-0.8-7,0.4-10.4,0.1
		c-3.4-0.3-6.8-2.2-10.2-2c-3.5,0.2-6.6,2.4-9.9,3.1c-3.4,0.7-6.3,0.1-9.4,1.3"/>
	<line class="st0" x1="104.4" y1="94.9" x2="110.1" y2="96.2"/>
	<line class="st0" x1="74.7" y1="57.8" x2="80.1" y2="59"/>
	<line class="st0" x1="82.3" y1="67.4" x2="86.2" y2="68.3"/>
	<line class="st0" x1="92.8" y1="57.7" x2="96.4" y2="58.5"/>
</g>
</svg>
