<?xml version="1.0" encoding="utf-8"?>
<!-- Generator: Adobe Illustrator 19.2.1, SVG Export Plug-In . SVG Version: 6.00 Build 0)  -->
<svg version="1.0" id="Layer_1" xmlns="http://www.w3.org/2000/svg" xmlns:xlink="http://www.w3.org/1999/xlink" x="0px" y="0px"
	 viewBox="0 0 150 150" style="enable-background:new 0 0 150 150;" xml:space="preserve">
<style type="text/css">
	.st0{fill:none;stroke:#3F3E3E;stroke-width:3;stroke-linecap:round;stroke-linejoin:round;stroke-miterlimit:10;}
	.st1{fill:#3F3E3E;}
	.st2{fill:#FFFFFF;}
	.st3{fill:#3F3D3E;}
	.st4{fill:#FFD83D;}
	.st5{fill:none;stroke:#3F3E3E;stroke-width:3;stroke-linecap:round;stroke-linejoin:round;}
	.st6{fill:none;stroke:#3F3E3E;stroke-width:3;stroke-linecap:round;stroke-linejoin:round;stroke-dasharray:6.7627,6.7627;}
	.st7{fill:none;stroke:#3F3E3E;stroke-width:3;stroke-linecap:round;stroke-linejoin:round;stroke-dasharray:4.828,9.6561;}
	.st8{fill:#FFFFFF;stroke:#3F3E3E;stroke-width:3;stroke-linecap:round;stroke-linejoin:round;stroke-miterlimit:10;}
	.st9{fill:none;stroke:#37383A;stroke-width:3;stroke-linecap:round;stroke-linejoin:round;stroke-miterlimit:10;}
	.st10{fill:none;stroke:#3F3E3E;stroke-width:3;stroke-linecap:round;stroke-linejoin:round;stroke-dasharray:7.2824,7.2824;}
</style>
<g>
	<g>
		<ellipse transform="matrix(0.7444 -0.6677 0.6677 0.7444 -45.9704 55.1115)" class="st0" cx="49" cy="87.6" rx="14.3" ry="14.3"/>
		<ellipse transform="matrix(0.7444 -0.6677 0.6677 0.7444 -45.8928 55.3527)" class="st0" cx="49.4" cy="87.6" rx="7.2" ry="7.2"/>
	</g>
	
		<ellipse transform="matrix(0.9407 -0.3393 0.3393 0.9407 -13.3823 27.2869)" class="st0" cx="71.4" cy="51.9" rx="14.3" ry="14.3"/>
	<g>
		<ellipse transform="matrix(0.7444 -0.6677 0.6677 0.7444 -1.5196 39.9539)" class="st0" cx="51.4" cy="22" rx="7.2" ry="7.2"/>
		<ellipse transform="matrix(0.7444 -0.6677 0.6677 0.7444 -1.5196 39.9539)" class="st0" cx="51.4" cy="22" rx="14.3" ry="14.3"/>
		<line class="st0" x1="58.7" y1="22.3" x2="44.2" y2="21.6"/>
	</g>
	<g>
		<path class="st0" d="M7.6,41.2l-0.5-8.3c-0.3-4.4,3.1-8.1,7.4-8.4L21,24c4.4-0.3,8.1,3.1,8.4,7.4l0.5,8.3"/>
		<path class="st0" d="M31.1,59.2l0.6,9.2c0.3,4.4-3.1,8.1-7.4,8.4l-6.5,0.4c-4.4,0.3-8.1-3.1-8.4-7.4l-0.6-9.2"/>
		
			<rect x="11" y="37.3" transform="matrix(6.045812e-02 0.9982 -0.9982 6.045812e-02 68.1658 27.972)" class="st0" width="16.5" height="25.7"/>
		<line class="st0" x1="29.8" y1="38.7" x2="14.5" y2="24.4"/>
		<line class="st0" x1="22.6" y1="41.7" x2="7.9" y2="28.7"/>
		<line class="st0" x1="31.6" y1="68.4" x2="21.1" y2="59.1"/>
		<line class="st0" x1="28.4" y1="74.5" x2="10.9" y2="59"/>
		<line class="st0" x1="20" y1="77" x2="9.8" y2="67.9"/>
	</g>
	<polyline class="st0" points="101,93.8 81.4,36.1 85.6,34.6 111.2,101.7 	"/>
	<polyline class="st0" points="116.8,116.3 126.7,142.1 118.5,145.1 105.4,106.6 	"/>
	<polygon class="st0" points="140.2,135 51,62.2 53.7,58.8 145.6,128.1 	"/>
	<g>
		<ellipse transform="matrix(0.9407 -0.3393 0.3393 0.9407 -11.372 27.8632)" class="st0" cx="74" cy="46.5" rx="2.9" ry="2.9"/>
		<ellipse transform="matrix(0.9407 -0.3393 0.3393 0.9407 -12.9257 29.4551)" class="st0" cx="77.8" cy="51.7" rx="2.9" ry="2.9"/>
		<ellipse transform="matrix(0.9407 -0.3393 0.3393 0.9407 -13.3164 27.3783)" class="st0" cx="71.6" cy="51.8" rx="2.9" ry="2.9"/>
		<ellipse transform="matrix(0.9407 -0.3393 0.3393 0.9407 -11.8858 25.8568)" class="st0" cx="68" cy="46.9" rx="2.9" ry="2.9"/>
		<ellipse transform="matrix(0.9407 -0.3393 0.3393 0.9407 -14.8581 28.7054)" class="st0" cx="74.7" cy="56.8" rx="2.9" ry="2.9"/>
		<ellipse transform="matrix(0.9407 -0.3393 0.3393 0.9407 -13.9259 25.4067)" class="st0" cx="65.7" cy="52.5" rx="2.9" ry="2.9"/>
		<ellipse transform="matrix(0.9407 -0.3393 0.3393 0.9407 -15.459 26.7488)" class="st0" cx="68.8" cy="57.6" rx="2.9" ry="2.9"/>
	</g>
</g>
</svg>
