<?xml version="1.0" encoding="utf-8"?>
<!-- Generator: Adobe Illustrator 19.2.1, SVG Export Plug-In . SVG Version: 6.00 Build 0)  -->
<svg version="1.0" id="Layer_1" xmlns="http://www.w3.org/2000/svg" xmlns:xlink="http://www.w3.org/1999/xlink" x="0px" y="0px"
	 viewBox="0 0 150 150" style="enable-background:new 0 0 150 150;" xml:space="preserve">
<style type="text/css">
	.st0{fill:none;stroke:#3F3E3E;stroke-width:3;stroke-linecap:round;stroke-linejoin:round;stroke-miterlimit:10;}
	.st1{fill:#3F3E3E;}
	.st2{fill:#FFFFFF;}
	.st3{fill:#3F3D3E;}
	.st4{fill:#FFD83D;}
	.st5{fill:none;stroke:#3F3E3E;stroke-width:3;stroke-linecap:round;stroke-linejoin:round;}
	.st6{fill:none;stroke:#3F3E3E;stroke-width:3;stroke-linecap:round;stroke-linejoin:round;stroke-dasharray:6.7627,6.7627;}
	.st7{fill:none;stroke:#3F3E3E;stroke-width:3;stroke-linecap:round;stroke-linejoin:round;stroke-dasharray:4.828,9.6561;}
	.st8{fill:#FFFFFF;stroke:#3F3E3E;stroke-width:3;stroke-linecap:round;stroke-linejoin:round;stroke-miterlimit:10;}
	.st9{fill:none;stroke:#37383A;stroke-width:3;stroke-linecap:round;stroke-linejoin:round;stroke-miterlimit:10;}
	.st10{fill:none;stroke:#3F3E3E;stroke-width:3;stroke-linecap:round;stroke-linejoin:round;stroke-dasharray:7.2824,7.2824;}
</style>
<g>
	<polygon class="st0" points="113.4,121.8 47.8,129.9 34.2,88.5 44.7,89.6 54.7,84.8 66.3,87 76.7,82.1 89.4,83.6 97.9,79.5 
		107.6,81.2 116.6,78.4 	"/>
	<line class="st0" x1="54.7" y1="84.8" x2="64.4" y2="126.1"/>
	<line class="st0" x1="76.7" y1="82.1" x2="82.6" y2="123.9"/>
	<line class="st0" x1="97.9" y1="79.5" x2="100.5" y2="121.9"/>
	<ellipse transform="matrix(0.9926 -0.1217 0.1217 0.9926 -4.1733 6.5444)" class="st0" cx="51.5" cy="37.4" rx="7.4" ry="7.4"/>
	<path class="st0" d="M30.9,22.8c0,0,6.4-3.9,13.2-1.3c5.8,2.2,6.5,8.6,6.5,8.6"/>
	<path class="st0" d="M46.4,42.9c-1.7,0.1-4.3,0.2-4.3,0.2c-6.3,0.8-10.7,6.4-10,12.6l0.1,0.5c0.8,6.2,6.9,10.3,9.1,10.3l-6,0.7
		c-6.3,0.8-10.7,6.4-10,12.6c0.7,5.8,5.6,8.8,8.6,8.4"/>
	<path class="st0" d="M116.8,77c2-2.3,3-5.4,2.6-8.7c-1.3-10.7-16.3-9.4-16.3-9.4c2.5-0.3,4.7-5.7,3.9-11.9l-0.1-0.5
		c-0.8-6.2-6.5-10.6-12.7-9.9l-7.5,0.9c0.2-2.7,0.5-7.9-1.6-11.8C81.8,19.7,68,19.6,68,19.6s3.3,7.6,0.4,13.6
		c-1.1,2.3-5.2,5.8-9.3,7.8c-0.2,0.1-0.5,0.2-0.9,0.3"/>
	<path class="st0" d="M58,61.4c0,0,17.9-4.1,23.7-11.3"/>
</g>
</svg>
