<?xml version="1.0" encoding="utf-8"?>
<!-- Generator: Adobe Illustrator 19.2.1, SVG Export Plug-In . SVG Version: 6.00 Build 0)  -->
<svg version="1.0" id="Layer_1" xmlns="http://www.w3.org/2000/svg" xmlns:xlink="http://www.w3.org/1999/xlink" x="0px" y="0px"
	 viewBox="0 0 150 150" style="enable-background:new 0 0 150 150;" xml:space="preserve">
<style type="text/css">
	.st0{fill:none;stroke:#3F3E3E;stroke-width:3;stroke-linecap:round;stroke-linejoin:round;stroke-miterlimit:10;}
	.st1{fill:#3F3E3E;}
	.st2{fill:#FFFFFF;}
	.st3{fill:#3F3D3E;}
	.st4{fill:#FFD83D;}
	.st5{fill:none;stroke:#3F3E3E;stroke-width:3;stroke-linecap:round;stroke-linejoin:round;}
	.st6{fill:none;stroke:#3F3E3E;stroke-width:3;stroke-linecap:round;stroke-linejoin:round;stroke-dasharray:6.7627,6.7627;}
	.st7{fill:none;stroke:#3F3E3E;stroke-width:3;stroke-linecap:round;stroke-linejoin:round;stroke-dasharray:4.828,9.6561;}
	.st8{fill:#FFFFFF;stroke:#3F3E3E;stroke-width:3;stroke-linecap:round;stroke-linejoin:round;stroke-miterlimit:10;}
	.st9{fill:none;stroke:#37383A;stroke-width:3;stroke-linecap:round;stroke-linejoin:round;stroke-miterlimit:10;}
	.st10{fill:none;stroke:#3F3E3E;stroke-width:3;stroke-linecap:round;stroke-linejoin:round;stroke-dasharray:7.2824,7.2824;}
</style>
<g>
	<rect x="39.9" y="43.6" class="st0" width="23.1" height="31.3"/>
	<g>
		<path class="st0" d="M44.2,50.8c1.2,0,1.2,4,2.3,4c1.2,0,1.2-4,2.3-4c1.2,0,1.2,4,2.3,4c1.2,0,1.2-4,2.3-4c1.2,0,1.2,4,2.3,4
			c1.2,0,1.2-4,2.3-4"/>
	</g>
	<path class="st1" d="M46.5,64.1c1.3,0,1.9,1.1,2.3,1.7c0,0,0,0,0,0c0,0,0,0,0,0c0.3-0.6,0.9-1.7,2.3-1.7c1.3,0,1.9,1.1,2.3,1.7
		c0.1,0.1,0.2,0.3,0.2,0.4c0.6,0.1,1.1,0.6,1.1,1.3c0,0.7-0.6,1.3-1.3,1.3c-1.3,0-1.9-1.1-2.3-1.7c0,0,0,0,0,0c0,0,0,0,0,0
		c-0.3,0.6-0.9,1.7-2.3,1.7c-1.3,0-1.9-1.1-2.3-1.7c0,0,0,0,0,0c0,0,0,0,0,0c-0.3,0.6-0.9,1.7-2.3,1.7c-0.7,0-1.3-0.6-1.3-1.3
		c0-0.6,0.5-1.2,1.1-1.3c0.1-0.1,0.2-0.3,0.2-0.4C44.6,65.2,45.2,64.1,46.5,64.1z M53.4,66.1L53.4,66.1L53.4,66.1z"/>
	<path class="st1" d="M44.2,57.4c1.4,0,2.1,1,2.5,1.6c0.1,0.1,0.2,0.3,0.3,0.4c0.1-0.1,0.2-0.3,0.3-0.4c0.4-0.6,1.1-1.6,2.5-1.6
		c1.4,0,2.1,1,2.5,1.6c0.1,0.1,0.2,0.3,0.3,0.4c0.1-0.1,0.2-0.3,0.3-0.4c0.4-0.6,1.1-1.6,2.5-1.6s2.1,1,2.5,1.6
		c0.1,0.2,0.3,0.4,0.3,0.5c0.7,0,1.3,0.6,1.3,1.3c0,0.7-0.6,1.3-1.3,1.3c-1.4,0-2.1-1-2.5-1.6c-0.1-0.1-0.2-0.3-0.3-0.4
		c-0.1,0.1-0.2,0.3-0.3,0.4C54.6,61,53.9,62,52.6,62c-1.4,0-2.1-1-2.5-1.6c-0.1-0.1-0.2-0.3-0.3-0.4c-0.1,0.1-0.2,0.3-0.3,0.4
		C49,61,48.4,62,47,62c-1.4,0-2.1-1-2.5-1.6c-0.1-0.2-0.3-0.4-0.3-0.5c-0.7,0-1.3-0.6-1.3-1.3C42.9,58,43.5,57.4,44.2,57.4z"/>
	<polyline class="st0" points="89,43.4 93.3,70.2 70.5,73.8 65.6,43.5 	"/>
	<g>
		<path class="st0" d="M70.9,50c1.1-0.2,1.8,3.8,2.9,3.6c1.1-0.2,0.5-4.1,1.7-4.3c1.1-0.2,1.8,3.8,2.9,3.6c1.1-0.2,0.5-4.1,1.7-4.3
			c1.1-0.2,1.8,3.8,2.9,3.6c1.1-0.2,0.5-4.1,1.7-4.3"/>
	</g>
	<path class="st1" d="M75.3,62.7c1.3-0.2,2.1,0.8,2.5,1.3c0,0,0,0,0,0c0,0,0,0,0,0c0.2-0.6,0.7-1.8,2-2c1.3-0.2,2.1,0.8,2.5,1.3
		c0.1,0.1,0.2,0.3,0.3,0.3c0.6,0,1.2,0.5,1.3,1.1c0.1,0.7-0.4,1.4-1.1,1.5c-1.3,0.2-2.1-0.8-2.5-1.3c0,0,0,0,0,0c0,0,0,0,0,0
		c-0.2,0.6-0.7,1.8-2,2c-1.3,0.2-2.1-0.8-2.5-1.3c0,0,0,0,0,0c0,0,0,0,0,0c-0.2,0.6-0.7,1.8-2,2c-0.7,0.1-1.4-0.4-1.5-1.1
		c-0.1-0.6,0.3-1.2,0.9-1.4c0.1-0.1,0.1-0.3,0.2-0.4C73.5,64.1,74,62.9,75.3,62.7z M82.4,63.6L82.4,63.6L82.4,63.6z"/>
	<path class="st1" d="M71.9,56.4c1.4-0.2,2.2,0.7,2.7,1.2c0.1,0.1,0.3,0.3,0.4,0.4c0.1-0.1,0.2-0.3,0.2-0.5c0.3-0.7,0.8-1.7,2.2-2
		c1.4-0.2,2.2,0.7,2.7,1.2c0.1,0.1,0.3,0.3,0.4,0.4c0.1-0.1,0.2-0.3,0.3-0.5c0.3-0.7,0.8-1.7,2.2-2c1.4-0.2,2.2,0.7,2.7,1.2
		c0.1,0.1,0.3,0.3,0.4,0.4c0.7-0.1,1.3,0.4,1.4,1.1c0.1,0.7-0.4,1.4-1.1,1.5c-1.4,0.2-2.2-0.7-2.7-1.2c-0.1-0.1-0.3-0.3-0.4-0.4
		c-0.1,0.1-0.2,0.3-0.3,0.5c-0.3,0.7-0.8,1.7-2.2,2c-1.4,0.2-2.2-0.7-2.7-1.2c-0.1-0.1-0.3-0.3-0.4-0.4c-0.1,0.1-0.2,0.3-0.2,0.5
		c-0.3,0.7-0.8,1.7-2.2,2c-1.4,0.2-2.2-0.7-2.7-1.2c-0.1-0.1-0.3-0.3-0.4-0.4c-0.7,0.1-1.3-0.4-1.4-1.1
		C70.8,57.2,71.2,56.6,71.9,56.4z"/>
	<polyline class="st0" points="20.1,72.7 20.1,121.6 12.1,121.6 12.1,69.6 	"/>
	<polyline class="st0" points="140,73.7 140,121.6 132,121.6 132,74.2 	"/>
	<line class="st0" x1="119.3" y1="43.5" x2="118.1" y2="69.2"/>
	<polyline class="st0" points="111.6,74.5 94.8,73.7 96.2,43.4 	"/>
	<polygon class="st0" points="118.6,69.2 112.4,68.9 112.1,74.5 	"/>
	<polyline class="st0" points="140.6,43.4 142.8,73.4 119.7,75 118.6,59.2 	"/>
	<g>
		<path class="st0" d="M122.3,50.8c1.2-0.1,1.4,3.9,2.6,3.8c1.2-0.1,0.9-4.1,2-4.2c1.2-0.1,1.4,3.9,2.6,3.8c1.2-0.1,0.9-4.1,2-4.2
			c1.2-0.1,1.4,3.9,2.6,3.8c1.2-0.1,0.9-4.1,2-4.2"/>
	</g>
	<path class="st1" d="M125.5,63.9c1.3-0.1,2,1,2.4,1.5c0,0,0,0,0,0c0,0,0,0,0,0c0.3-0.6,0.8-1.8,2.1-1.8c1.3-0.1,2,1,2.4,1.5
		c0.1,0.1,0.2,0.3,0.3,0.4c0.6,0.1,1.1,0.6,1.2,1.2c0.1,0.7-0.5,1.3-1.2,1.4c-1.3,0.1-2-1-2.4-1.5c0,0,0,0,0,0c0,0,0,0,0,0
		c-0.3,0.6-0.8,1.8-2.1,1.8c-1.3,0.1-2-1-2.4-1.5c0,0,0,0,0,0c0,0,0,0,0,0c-0.3,0.6-0.8,1.8-2.1,1.8c-0.7,0.1-1.3-0.5-1.4-1.2
		c0-0.6,0.4-1.2,1-1.3c0.1-0.1,0.1-0.3,0.2-0.4C123.7,65.1,124.2,64,125.5,63.9z M132.5,65.4L132.5,65.4L132.5,65.4z"/>
	<path class="st1" d="M122.7,57.3c1.4-0.1,2.1,0.9,2.6,1.4c0.1,0.1,0.3,0.3,0.4,0.4c0.1-0.1,0.2-0.3,0.3-0.5c0.4-0.6,1-1.7,2.3-1.8
		c1.4-0.1,2.1,0.9,2.6,1.4c0.1,0.1,0.3,0.3,0.4,0.4c0.1-0.1,0.2-0.3,0.3-0.5c0.4-0.6,1-1.7,2.3-1.8c1.4-0.1,2.1,0.9,2.6,1.4
		c0.1,0.1,0.3,0.4,0.4,0.4c0.7,0,1.3,0.5,1.3,1.2c0.1,0.7-0.5,1.3-1.2,1.4c-1.4,0.1-2.1-0.9-2.6-1.4c-0.1-0.1-0.3-0.3-0.4-0.4
		c-0.1,0.1-0.2,0.3-0.3,0.5c-0.4,0.6-1,1.7-2.3,1.8c-1.4,0.1-2.1-0.9-2.6-1.4c-0.1-0.1-0.3-0.3-0.4-0.4c-0.1,0.1-0.2,0.3-0.3,0.5
		c-0.4,0.6-1,1.7-2.3,1.8c-1.4,0.1-2.1-0.9-2.6-1.4c-0.1-0.1-0.3-0.4-0.4-0.4c-0.7,0-1.3-0.5-1.3-1.2C121.5,58,122,57.4,122.7,57.3z
		"/>
	<line class="st0" x1="11.4" y1="43.4" x2="8.6" y2="65.5"/>
	<polyline class="st0" points="14.1,71.9 30.8,74 34.6,44.3 	"/>
	<polygon class="st0" points="8.6,65.5 14.8,66.3 14.1,71.9 	"/>
	<g>
		<path class="st0" d="M16,47.2c1.1,0.2,0.6,4.1,1.7,4.3c1.1,0.2,1.7-3.8,2.9-3.6c1.1,0.2,0.6,4.1,1.7,4.3c1.1,0.2,1.7-3.8,2.9-3.6
			c1.1,0.2,0.6,4.1,1.7,4.3c1.1,0.2,1.7-3.8,2.9-3.6"/>
	</g>
	<path class="st1" d="M18.4,60.7c1.3,0.2,1.8,1.4,2,2c0,0,0,0,0,0c0,0,0,0,0,0c0.4-0.5,1.2-1.5,2.5-1.3c1.3,0.2,1.8,1.4,2,2
		c0,0.1,0.1,0.3,0.2,0.4c0.6,0.2,1,0.8,0.9,1.4c-0.1,0.7-0.8,1.2-1.5,1.1c-1.3-0.2-1.8-1.4-2-2c0,0,0,0,0,0c0,0,0,0,0,0
		c-0.4,0.5-1.2,1.5-2.5,1.3c-1.3-0.2-1.8-1.4-2-2c0,0,0,0,0,0c0,0,0,0,0,0c-0.4,0.5-1.2,1.5-2.5,1.3c-0.7-0.1-1.2-0.8-1.1-1.5
		c0.1-0.6,0.6-1.1,1.3-1.1c0.1-0.1,0.2-0.2,0.3-0.3C16.3,61.5,17.1,60.5,18.4,60.7z M24.9,63.7L24.9,63.7L24.9,63.7z"/>
	<path class="st1" d="M15,53.7c1.4,0.2,1.9,1.3,2.2,1.9c0.1,0.2,0.2,0.4,0.3,0.5c0.1-0.1,0.3-0.3,0.4-0.4c0.5-0.5,1.3-1.4,2.7-1.2
		c1.4,0.2,1.9,1.3,2.2,1.9c0.1,0.2,0.2,0.4,0.3,0.5c0.1-0.1,0.3-0.3,0.4-0.4c0.5-0.5,1.3-1.4,2.7-1.2c1.4,0.2,1.9,1.3,2.2,1.9
		c0.1,0.2,0.2,0.4,0.3,0.5c0.7,0.1,1.2,0.8,1.1,1.5c-0.1,0.7-0.8,1.2-1.5,1.1c-1.4-0.2-1.9-1.3-2.2-1.9c-0.1-0.2-0.2-0.4-0.3-0.5
		c-0.1,0.1-0.3,0.3-0.4,0.4c-0.5,0.5-1.3,1.4-2.7,1.2c-1.4-0.2-1.9-1.3-2.2-1.9c-0.1-0.2-0.2-0.4-0.3-0.5c-0.1,0.1-0.3,0.3-0.4,0.4
		c-0.5,0.5-1.3,1.4-2.7,1.2c-1.4-0.2-1.9-1.3-2.2-1.9c-0.1-0.2-0.2-0.4-0.3-0.5c-0.7-0.1-1.2-0.8-1.1-1.5
		C13.7,54.1,14.3,53.6,15,53.7z"/>
	<rect x="9" y="35.4" class="st0" width="133.6" height="8"/>
	<rect x="7.8" y="121.6" class="st0" width="136.6" height="13.6"/>
	<g>
		<path class="st0" d="M100.2,49.9c1.2,0.1,1,4,2.1,4.1c1.2,0.1,1.3-3.9,2.5-3.9c1.2,0.1,1,4,2.1,4.1c1.2,0.1,1.3-3.9,2.5-3.9
			c1.2,0.1,1,4,2.1,4.1c1.2,0.1,1.3-3.9,2.5-3.9"/>
	</g>
	<path class="st1" d="M103,63.3c1.3,0.1,1.9,1.2,2.2,1.8c0,0,0,0,0,0c0,0,0,0,0,0c0.4-0.6,1-1.6,2.3-1.6c1.3,0.1,1.9,1.2,2.2,1.8
		c0.1,0.1,0.1,0.3,0.2,0.4c0.6,0.1,1.1,0.7,1,1.3c0,0.7-0.6,1.3-1.3,1.2c-1.3-0.1-1.9-1.2-2.2-1.8c0,0,0,0,0,0c0,0,0,0,0,0
		c-0.4,0.6-1,1.6-2.3,1.6s-1.9-1.2-2.2-1.8c0,0,0,0,0,0c0,0,0,0,0,0c-0.4,0.6-1,1.6-2.4,1.6c-0.7,0-1.3-0.6-1.2-1.3
		c0-0.6,0.5-1.2,1.1-1.2c0.1-0.1,0.2-0.3,0.2-0.4C101,64.3,101.6,63.2,103,63.3z M109.8,65.7L109.8,65.7L109.8,65.7z"/>
	<path class="st1" d="M99.8,56.5c1.4,0.1,2,1.1,2.4,1.7c0.1,0.1,0.2,0.4,0.3,0.5c0.1-0.1,0.2-0.3,0.3-0.4c0.4-0.6,1.2-1.5,2.5-1.5
		c1.4,0.1,2,1.1,2.4,1.7c0.1,0.1,0.2,0.4,0.3,0.5c0.1-0.1,0.2-0.3,0.3-0.4c0.4-0.6,1.2-1.5,2.5-1.5s2,1.1,2.4,1.7
		c0.1,0.2,0.2,0.4,0.3,0.5c0.7,0,1.2,0.6,1.2,1.3c0,0.7-0.6,1.3-1.3,1.2c-1.4-0.1-2-1.1-2.4-1.7c-0.1-0.1-0.2-0.4-0.3-0.5
		c-0.1,0.1-0.2,0.3-0.3,0.4c-0.4,0.6-1.2,1.5-2.5,1.5c-1.4-0.1-2-1.1-2.4-1.7c-0.1-0.1-0.2-0.4-0.3-0.5c-0.1,0.1-0.2,0.3-0.3,0.4
		c-0.4,0.6-1.2,1.5-2.5,1.5c-1.4-0.1-2-1.1-2.4-1.7c-0.1-0.2-0.2-0.4-0.3-0.5c-0.7,0-1.2-0.6-1.2-1.3C98.5,57,99.1,56.4,99.8,56.5z"
		/>
	<path class="st0" d="M95.5,111.8c0.3-0.5,0.4-0.8,0.4-1.4c0-1.6-1.3-2.9-2.9-2.9c-0.3,0-0.7,0.1-1,0.2c0-0.2,0-0.3,0-0.5
		c0-1.8-1.5-3.3-3.3-3.3c-0.5,0-1,0.1-1.4,0.3c0.1-0.3,0.1-0.6,0.1-0.9c0-1.5-1.2-2.8-2.8-2.8c-1.2,0-2.3,0.8-2.6,1.9
		c-0.4-0.8-1.2-1.4-2.2-1.4c-0.2,0-0.4,0-0.6,0.1c0-0.1,0-0.2,0-0.2c0-1.3-1.1-2.4-2.4-2.4c-0.7,0-1.4,0.3-1.8,0.9
		c-0.5-0.7-1.3-1.1-2.2-1.1c-0.3,0-0.7,0.1-1,0.2c-0.4-0.6-1.1-0.9-1.8-0.9c-1.3,0-2.3,1-2.3,2.3c0,0.2,0,0.5,0.1,0.7
		c0,0-0.1,0-0.1,0c-1.5,0-2.8,1.2-2.8,2.8c0,0.3,0.1,0.6,0.1,0.9c-0.4-0.2-0.9-0.3-1.4-0.3c-1.8,0-3.3,1.5-3.3,3.3
		c0,0.2,0,0.3,0,0.5c-0.3-0.1-0.6-0.2-1-0.2c-1.6,0-2.9,1.3-2.9,2.9c0,0.5,0.1,1,0.4,1.4"/>
	<path class="st0" d="M72.9,106.4c0.5,0.7,1.3,1.1,2.2,1.1c0.3,0,0.7-0.1,1-0.2c0.4,0.6,1.1,0.9,1.8,0.9c1.3,0,2.3-1,2.3-2.3"/>
	<path class="st0" d="M71.8,101.6c0.4,0.8,1.2,1.4,2.2,1.4c0.2,0,0.4,0,0.6-0.1"/>
	<polyline class="st0" points="32.2,20.6 27.9,14.8 69.1,14.8 64.8,20.6 	"/>
	<line class="st0" x1="38.2" y1="20.6" x2="36.5" y2="15.6"/>
	<line class="st0" x1="45.2" y1="20.6" x2="44.4" y2="15.6"/>
	<line class="st0" x1="59.1" y1="20.6" x2="60.8" y2="15.6"/>
	<line class="st0" x1="52.2" y1="20" x2="52.9" y2="15.6"/>
	<polyline class="st0" points="32.5,26.7 27.9,20.6 69.1,20.6 64.5,26.7 	"/>
	<line class="st0" x1="38.3" y1="26.7" x2="36.5" y2="21.3"/>
	<line class="st0" x1="45.3" y1="26.7" x2="44.4" y2="21.3"/>
	<line class="st0" x1="58.9" y1="26.7" x2="60.8" y2="21.3"/>
	<line class="st0" x1="52" y1="26.7" x2="52.9" y2="21.3"/>
	<polygon class="st0" points="62.9,35 34.1,35 27.9,26.7 69.1,26.7 	"/>
	<line class="st0" x1="39.1" y1="35" x2="36.5" y2="27.4"/>
	<line class="st0" x1="45.5" y1="34.1" x2="44.4" y2="27.4"/>
	<line class="st0" x1="58.2" y1="35" x2="60.8" y2="27.4"/>
	<line class="st0" x1="51.8" y1="34.1" x2="52.9" y2="27.4"/>
	<polygon class="st0" points="91.6,121.1 60.1,121.1 53.3,112 98.5,112 	"/>
	<line class="st0" x1="65.6" y1="121.1" x2="62.8" y2="112.8"/>
	<line class="st0" x1="72.6" y1="120.2" x2="71.4" y2="112.8"/>
	<line class="st0" x1="86.5" y1="121.1" x2="89.3" y2="112.8"/>
	<line class="st0" x1="79.5" y1="120.2" x2="80.7" y2="112.8"/>
	<polyline class="st0" points="119.1,28.1 123.4,33.8 82.7,33.8 87,28.1 	"/>
	<polyline class="st0" points="118.9,22.1 123.4,28.1 82.7,28.1 87.2,22.1 	"/>
	<polygon class="st0" points="88.8,13.9 117.3,13.9 123.4,22.1 82.7,22.1 	"/>
</g>
</svg>
