<?xml version="1.0" encoding="utf-8"?>
<!-- Generator: Adobe Illustrator 19.2.1, SVG Export Plug-In . SVG Version: 6.00 Build 0)  -->
<svg version="1.0" id="Layer_1" xmlns="http://www.w3.org/2000/svg" xmlns:xlink="http://www.w3.org/1999/xlink" x="0px" y="0px"
	 viewBox="0 0 150 150" style="enable-background:new 0 0 150 150;" xml:space="preserve">
<style type="text/css">
	.st0{fill:none;stroke:#3F3E3E;stroke-width:3;stroke-linecap:round;stroke-linejoin:round;stroke-miterlimit:10;}
	.st1{fill:#3F3E3E;}
	.st2{fill:#FFFFFF;}
	.st3{fill:#3F3D3E;}
	.st4{fill:#FFD83D;}
	.st5{fill:none;stroke:#3F3E3E;stroke-width:3;stroke-linecap:round;stroke-linejoin:round;}
	.st6{fill:none;stroke:#3F3E3E;stroke-width:3;stroke-linecap:round;stroke-linejoin:round;stroke-dasharray:6.7627,6.7627;}
	.st7{fill:none;stroke:#3F3E3E;stroke-width:3;stroke-linecap:round;stroke-linejoin:round;stroke-dasharray:4.828,9.6561;}
	.st8{fill:#FFFFFF;stroke:#3F3E3E;stroke-width:3;stroke-linecap:round;stroke-linejoin:round;stroke-miterlimit:10;}
	.st9{fill:none;stroke:#37383A;stroke-width:3;stroke-linecap:round;stroke-linejoin:round;stroke-miterlimit:10;}
	.st10{fill:none;stroke:#3F3E3E;stroke-width:3;stroke-linecap:round;stroke-linejoin:round;stroke-dasharray:7.2824,7.2824;}
</style>
<g>
	<g>
		<path class="st0" d="M53.5,127.8l-19.1,0l0,3.7c0,3.4,4.4,4.6,7.2,4.6l37.5,0c2.8,0,7.2-1.2,7.2-4.6l0-3.7l-19.7,0"/>
		<path class="st0" d="M86.1,114.5L86.1,114.5c0-10.1-8.9-18.2-17.4-18.2l-17.2,0c-8.4,0-17.3,8.2-17.3,18.3v0L86.1,114.5z"/>
		<path class="st0" d="M66.1,127.7l18.8,0c2.3,0,2.7-1.7,2.7-3.8v0c0-2.1-0.5-3.8-2.7-3.8l-5.9,0"/>
		<path class="st0" d="M41,120.1l-5.9,0c-2.3,0-2.7,1.7-2.7,3.8v0c0,2.1,0.5,3.8,2.7,3.8l18.8,0"/>
		<line class="st0" x1="34" y1="115.5" x2="54" y2="127.7"/>
		<polyline class="st0" points="54,127.7 60.1,131.4 86.1,115.4 		"/>
		<line class="st0" x1="75.1" y1="104.4" x2="73.7" y2="105.1"/>
		<line class="st0" x1="66.5" y1="105.6" x2="65.8" y2="104"/>
		<line class="st0" x1="54.3" y1="102.3" x2="52.8" y2="102.7"/>
		<line class="st0" x1="45.4" y1="105.2" x2="43.8" y2="105"/>
		<polyline class="st0" points="60.5,100.7 61.2,78.5 47.4,77.9 51.3,82.9 47.4,88.1 60.4,88.8 		"/>
	</g>
	<g>
		<path class="st0" d="M110.1,68.1l-19-1.3l-0.3,3.7c-0.2,3.4,4.1,4.9,6.9,5.1l37.4,2.6c2.8,0.2,7.3-0.7,7.5-4.1l0.3-3.7L123.2,69"
			/>
		<path class="st0" d="M143.6,57.1L143.6,57.1c0.7-10.1-7.7-18.8-16.1-19.4l-17.2-1.2c-8.4-0.6-17.9,7-18.6,17v0L143.6,57.1z"/>
		<path class="st0" d="M122.7,68.8l18.8,1.3c2.3,0.2,2.8-1.5,3-3.6v0c0.1-2.1-0.2-3.8-2.5-4l-5.9-0.4"/>
		<path class="st0" d="M98.1,59.5l-5.9-0.4c-2.3-0.2-2.8,1.5-3,3.6v0c-0.1,2.1,0.2,3.8,2.5,4l18.8,1.3"/>
		<line class="st0" x1="91.5" y1="54.5" x2="110.6" y2="68"/>
		<polyline class="st0" points="110.6,68 116.4,72.1 143.5,58 		"/>
		<line class="st0" x1="133.3" y1="46.2" x2="131.8" y2="46.9"/>
		<line class="st0" x1="124.6" y1="46.8" x2="124" y2="45.2"/>
		<line class="st0" x1="112.7" y1="42.8" x2="111.1" y2="43"/>
		<line class="st0" x1="103.6" y1="45" x2="102" y2="44.6"/>
		<polyline class="st0" points="119,41.5 121.2,19.4 107.5,17.9 111.1,23.1 106.8,28 119.7,29.7 		"/>
	</g>
	<g>
		<path class="st0" d="M33.1,58l-18.2,5.7l1.1,3.5c1,3.2,5.6,3.1,8.3,2.2L60,58.3c2.7-0.8,6.5-3.3,5.5-6.5l-1.1-3.5l-18.8,5.9"/>
		<path class="st0" d="M60.3,35.6L60.3,35.6c-3-9.6-14-14.8-22-12.3l-16.4,5.1c-8,2.5-14.1,13-11.1,22.6l0,0L60.3,35.6z"/>
		<path class="st0" d="M45.1,54.1l18-5.6c2.2-0.7,2.1-2.4,1.5-4.5v0c-0.6-2-1.6-3.5-3.7-2.8L55.1,43"/>
		<path class="st0" d="M18.8,54.3l-5.6,1.8c-2.2,0.7-2.1,2.4-1.5,4.5l0,0c0.6,2,1.6,3.5,3.7,2.8l17.9-5.6"/>
		<line class="st0" x1="10.8" y1="52" x2="33.5" y2="57.7"/>
		<polyline class="st0" points="33.5,57.7 40.4,59.5 60.6,36.5 		"/>
		<line class="st0" x1="46.7" y1="29.2" x2="45.6" y2="30.3"/>
		<line class="st0" x1="38.9" y1="32.9" x2="37.7" y2="31.7"/>
		<line class="st0" x1="26.3" y1="33.4" x2="24.9" y2="34.2"/>
		<line class="st0" x1="18.6" y1="38.9" x2="17" y2="39.1"/>
		<polyline class="st0" points="31.7,30 25.8,8.6 12.4,12.2 17.7,15.7 15.4,21.9 28.1,18.7 		"/>
	</g>
</g>
</svg>
