<?xml version="1.0" encoding="utf-8"?>
<!-- Generator: Adobe Illustrator 19.2.1, SVG Export Plug-In . SVG Version: 6.00 Build 0)  -->
<svg version="1.0" id="Layer_1" xmlns="http://www.w3.org/2000/svg" xmlns:xlink="http://www.w3.org/1999/xlink" x="0px" y="0px"
	 viewBox="0 0 150 150" style="enable-background:new 0 0 150 150;" xml:space="preserve">
<style type="text/css">
	.st0{fill:none;stroke:#3F3E3E;stroke-width:3;stroke-linecap:round;stroke-linejoin:round;stroke-miterlimit:10;}
	.st1{fill:#3F3E3E;}
	.st2{fill:#FFFFFF;}
	.st3{fill:#3F3D3E;}
	.st4{fill:#FFD83D;}
	.st5{fill:none;stroke:#3F3E3E;stroke-width:3;stroke-linecap:round;stroke-linejoin:round;}
	.st6{fill:none;stroke:#3F3E3E;stroke-width:3;stroke-linecap:round;stroke-linejoin:round;stroke-dasharray:6.7627,6.7627;}
	.st7{fill:none;stroke:#3F3E3E;stroke-width:3;stroke-linecap:round;stroke-linejoin:round;stroke-dasharray:4.828,9.6561;}
	.st8{fill:#FFFFFF;stroke:#3F3E3E;stroke-width:3;stroke-linecap:round;stroke-linejoin:round;stroke-miterlimit:10;}
	.st9{fill:none;stroke:#37383A;stroke-width:3;stroke-linecap:round;stroke-linejoin:round;stroke-miterlimit:10;}
	.st10{fill:none;stroke:#3F3E3E;stroke-width:3;stroke-linecap:round;stroke-linejoin:round;stroke-dasharray:7.2824,7.2824;}
</style>
<g>
	<polygon class="st0" points="97.6,143.1 53.1,143.1 48.1,54.5 102.6,54.5 	"/>
	<rect x="44.4" y="47.2" class="st0" width="61.8" height="7.4"/>
	<line class="st0" x1="78.8" y1="55.4" x2="79.8" y2="63.8"/>
	<polyline class="st0" points="70.4,46.3 67.6,21.1 50.9,11.3 54.5,5 74.4,16.2 77.8,46.4 	"/>
	<line class="st0" x1="72.4" y1="64" x2="71.5" y2="55.7"/>
	<line class="st0" x1="50.1" y1="47.2" x2="50.1" y2="53.4"/>
	<line class="st0" x1="58.5" y1="47.2" x2="58.5" y2="53.4"/>
	<line class="st0" x1="66.9" y1="47.2" x2="66.9" y2="53.4"/>
	<line class="st0" x1="75.3" y1="47.2" x2="75.3" y2="53.4"/>
	<line class="st0" x1="83.6" y1="47.2" x2="83.6" y2="53.4"/>
	<line class="st0" x1="92" y1="47.2" x2="92" y2="53.4"/>
	<line class="st0" x1="100.4" y1="47.2" x2="100.4" y2="53.4"/>
	<path class="st0" d="M48.7,65.1c5.2,0,5.2,2,10.3,2c5.2,0,5.2-2,10.3-2c2.2,0,4.3,0.3,6.1,0.8c2.4,0.6,4.9-0.4,6.5-2.3
		c1.5-1.8,3.6-3.2,6.2-3.6c5.1-0.8,10.1,1.2,13.3,5.1"/>
	<path class="st0" d="M82.8,26.1c9.8,2.5,17.7,10,20.9,19.5"/>
	<path class="st0" d="M82.8,26.1c-3.2,1.1-6.6,1.8-10.2,1.8c-2.6,0-5.1-0.3-7.6-1"/>
	<path class="st0" d="M46.5,46.1C49.4,37.2,56.2,30,65,26.9"/>
	<line class="st0" x1="58.5" y1="79.9" x2="61" y2="79.9"/>
	<line class="st0" x1="88.5" y1="89.9" x2="91" y2="89.9"/>
	<line class="st0" x1="68.5" y1="119.9" x2="71" y2="119.9"/>
	<line class="st0" x1="75.5" y1="127.9" x2="78" y2="127.9"/>
</g>
</svg>
