<?xml version="1.0" encoding="utf-8"?>
<!-- Generator: Adobe Illustrator 19.2.1, SVG Export Plug-In . SVG Version: 6.00 Build 0)  -->
<svg version="1.0" id="Layer_1" xmlns="http://www.w3.org/2000/svg" xmlns:xlink="http://www.w3.org/1999/xlink" x="0px" y="0px"
	 viewBox="0 0 150 150" style="enable-background:new 0 0 150 150;" xml:space="preserve">
<style type="text/css">
	.st0{fill:none;stroke:#3F3E3E;stroke-width:3;stroke-linecap:round;stroke-linejoin:round;stroke-miterlimit:10;}
	.st1{fill:#3F3E3E;}
	.st2{fill:#FFFFFF;}
	.st3{fill:#3F3D3E;}
	.st4{fill:#FFD83D;}
	.st5{fill:none;stroke:#3F3E3E;stroke-width:3;stroke-linecap:round;stroke-linejoin:round;}
	.st6{fill:none;stroke:#3F3E3E;stroke-width:3;stroke-linecap:round;stroke-linejoin:round;stroke-dasharray:6.7627,6.7627;}
	.st7{fill:none;stroke:#3F3E3E;stroke-width:3;stroke-linecap:round;stroke-linejoin:round;stroke-dasharray:4.828,9.6561;}
	.st8{fill:#FFFFFF;stroke:#3F3E3E;stroke-width:3;stroke-linecap:round;stroke-linejoin:round;stroke-miterlimit:10;}
	.st9{fill:none;stroke:#37383A;stroke-width:3;stroke-linecap:round;stroke-linejoin:round;stroke-miterlimit:10;}
	.st10{fill:none;stroke:#3F3E3E;stroke-width:3;stroke-linecap:round;stroke-linejoin:round;stroke-dasharray:7.2824,7.2824;}
</style>
<g>
	<path class="st0" d="M45.6,23.2C36.7,30.7,30.4,40.5,27,51.3c-0.4,1.3-0.8,2.7-1.1,4"/>
	<path class="st0" d="M74.8,42.6c0.2-1.5,0.4-3.1,0.8-4.6c1.2-5.1,6-12,9.8-16.8c2.1-2.7,0.4-6.6-3-6.9c-3.5-0.3-7.1-0.3-10.6,0.1
		c-6.2,0.7-19.3,6.6-22.2,9.1"/>
	<path class="st0" d="M77.7,61c-1.3-5.2-1.6-10.6-1-15.8"/>
	<path class="st0" d="M92.1,78.4c-3.2-2.4-5.9-5.3-7.7-8.6c-1.7-3.4-3-6.8-3.9-10.3"/>
	<path class="st0" d="M100.4,85.9c-4-1.6-7.9-3.6-11.1-6"/>
	<path class="st0" d="M99.4,127.1c4.4-1,18.7-9.4,23-14.5c3-3.5,5.5-7.4,7.4-11.5c1.3-2.6-0.4-5.7-3.3-6c-3.9-0.4-9.4-1.1-15.2-2.4
		c-3.8-0.9-7.8-2-11.5-3.5"/>
	<path class="st0" d="M61.5,126.4c1.8,0.8,3.7,1.5,5.5,2.1c10.2,3.2,21.3,3.8,32.1,1.4"/>
	<path class="st0" d="M32.9,107.4c6.7,9.3,15.7,16.3,25.7,20.5"/>
	<path class="st0" d="M23,56.8c-3.4,13.9-2,29.1,5.1,42.9c1.4,2.7,3,5.3,4.8,7.7"/>
	<line class="st0" x1="77.7" y1="61" x2="23.2" y2="55.1"/>
	<line class="st0" x1="75.4" y1="45.1" x2="44.7" y2="23.9"/>
	<line class="st0" x1="87.9" y1="80.6" x2="60.8" y2="129"/>
	<line class="st0" x1="100.4" y1="85.9" x2="99.1" y2="128.9"/>
</g>
</svg>
