<?xml version="1.0" encoding="utf-8"?>
<!-- Generator: Adobe Illustrator 19.2.1, SVG Export Plug-In . SVG Version: 6.00 Build 0)  -->
<svg version="1.0" id="Layer_1" xmlns="http://www.w3.org/2000/svg" xmlns:xlink="http://www.w3.org/1999/xlink" x="0px" y="0px"
	 viewBox="0 0 150 150" style="enable-background:new 0 0 150 150;" xml:space="preserve">
<style type="text/css">
	.st0{fill:none;stroke:#3F3E3E;stroke-width:3;stroke-linecap:round;stroke-linejoin:round;stroke-miterlimit:10;}
	.st1{fill:#3F3E3E;}
	.st2{fill:#FFFFFF;}
	.st3{fill:#3F3D3E;}
	.st4{fill:#FFD83D;}
	.st5{fill:none;stroke:#3F3E3E;stroke-width:3;stroke-linecap:round;stroke-linejoin:round;}
	.st6{fill:none;stroke:#3F3E3E;stroke-width:3;stroke-linecap:round;stroke-linejoin:round;stroke-dasharray:6.7627,6.7627;}
	.st7{fill:none;stroke:#3F3E3E;stroke-width:3;stroke-linecap:round;stroke-linejoin:round;stroke-dasharray:4.828,9.6561;}
	.st8{fill:#FFFFFF;stroke:#3F3E3E;stroke-width:3;stroke-linecap:round;stroke-linejoin:round;stroke-miterlimit:10;}
	.st9{fill:none;stroke:#37383A;stroke-width:3;stroke-linecap:round;stroke-linejoin:round;stroke-miterlimit:10;}
	.st10{fill:none;stroke:#3F3E3E;stroke-width:3;stroke-linecap:round;stroke-linejoin:round;stroke-dasharray:7.2824,7.2824;}
</style>
<g>
	<polyline class="st0" points="63.8,126.3 63.8,132.6 97.4,132.6 97.4,125.9 	"/>
	<path class="st0" d="M118.4,91.4c0.6-0.9,0.7-1.6,0.7-2.8c0-3.2-2.6-5.7-5.7-5.7c-0.7,0-1.3,0.1-1.9,0.3c0.1-0.3,0.1-0.7,0.1-1
		c0-3.6-2.9-6.5-6.5-6.5c-1,0-2,0.2-2.8,0.6c0.2-0.6,0.3-1.2,0.3-1.8c0-3.1-2.5-5.5-5.5-5.5c-2.4,0-4.5,1.6-5.2,3.8
		c-0.8-1.6-2.5-2.7-4.4-2.7c-0.4,0-0.9,0.1-1.3,0.2c0-0.2,0.1-0.3,0.1-0.5c0-2.6-2.1-4.8-4.8-4.8c-1.5,0-2.8,0.7-3.6,1.7
		c-1-1.4-2.6-2.2-4.5-2.2c-0.7,0-1.3,0.1-1.9,0.3c-0.8-1.1-2.2-1.8-3.7-1.8c-2.6,0-4.7,2.1-4.7,4.7c0,0.5,0.1,1,0.2,1.4
		c-0.1,0-0.2,0-0.2,0c-3.1,0-5.5,2.5-5.5,5.5c0,0.6,0.1,1.2,0.3,1.8c-0.9-0.4-1.8-0.6-2.8-0.6c-3.6,0-6.5,2.9-6.5,6.5
		c0,0.4,0,0.7,0.1,1c-0.6-0.2-1.3-0.3-1.9-0.3c-3.2,0-5.7,2.6-5.7,5.7c0,1,0.3,2,0.8,2.9"/>
	<path class="st0" d="M72,83c1,1.4,2.6,2.2,4.5,2.2c0.7,0,1.3-0.1,1.9-0.3c0.8,1.1,2.2,1.8,3.7,1.8c2.6,0,4.7-2.1,4.7-4.7"/>
	<path class="st0" d="M70,71.1c0.8,1.6,2.5,2.7,4.4,2.7c0.4,0,0.9-0.1,1.3-0.2"/>
	<path class="st0" d="M126.6,91.5c0,20.4-20.6,36.9-46,36.9s-46-16.5-46-36.9H126.6z"/>
	<path class="st0" d="M60.2,119c-8.4-4.2-15-10.5-18.7-18"/>
	<polyline class="st0" points="111.1,79.2 137.5,27.5 143.4,30.7 114.4,83 	"/>
	<polyline class="st0" points="103,76 114.3,17 120.9,18.4 107.8,76.3 	"/>
	<polygon class="st0" points="8.1,42.5 85.5,42.5 91.6,53 91.6,36.1 91.6,22.3 8.1,22.3 	"/>
	<polygon class="st0" points="81.4,26.7 79.5,30.4 75.4,31 78.4,34 77.7,38.1 81.4,36.1 85.1,38.1 84.4,34 87.4,31 83.2,30.4 	"/>
	<polygon class="st0" points="65.6,26.7 63.7,30.4 59.6,31 62.6,34 61.9,38.1 65.6,36.1 69.3,38.1 68.6,34 71.6,31 67.4,30.4 	"/>
	<polygon class="st0" points="49.8,26.7 47.9,30.4 43.8,31 46.8,34 46.1,38.1 49.8,36.1 53.5,38.1 52.8,34 55.8,31 51.6,30.4 	"/>
	<polygon class="st0" points="34,26.7 32.2,30.4 28,31 31,34 30.3,38.1 34,36.1 37.7,38.1 37,34 40,31 35.9,30.4 	"/>
	<polygon class="st0" points="18.2,26.7 16.4,30.4 12.2,31 15.2,34 14.5,38.1 18.2,36.1 21.9,38.1 21.2,34 24.2,31 20.1,30.4 	"/>
</g>
</svg>
