<?xml version="1.0" encoding="utf-8"?>
<!-- Generator: Adobe Illustrator 19.2.1, SVG Export Plug-In . SVG Version: 6.00 Build 0)  -->
<svg version="1.0" id="Layer_1" xmlns="http://www.w3.org/2000/svg" xmlns:xlink="http://www.w3.org/1999/xlink" x="0px" y="0px"
	 viewBox="0 0 150 150" style="enable-background:new 0 0 150 150;" xml:space="preserve">
<style type="text/css">
	.st0{fill:none;stroke:#3F3E3E;stroke-width:3;stroke-linecap:round;stroke-linejoin:round;stroke-miterlimit:10;}
	.st1{fill:#3F3E3E;}
	.st2{fill:#FFFFFF;}
	.st3{fill:#3F3D3E;}
	.st4{fill:#FFD83D;}
	.st5{fill:none;stroke:#3F3E3E;stroke-width:3;stroke-linecap:round;stroke-linejoin:round;}
	.st6{fill:none;stroke:#3F3E3E;stroke-width:3;stroke-linecap:round;stroke-linejoin:round;stroke-dasharray:6.7627,6.7627;}
	.st7{fill:none;stroke:#3F3E3E;stroke-width:3;stroke-linecap:round;stroke-linejoin:round;stroke-dasharray:4.828,9.6561;}
	.st8{fill:#FFFFFF;stroke:#3F3E3E;stroke-width:3;stroke-linecap:round;stroke-linejoin:round;stroke-miterlimit:10;}
	.st9{fill:none;stroke:#37383A;stroke-width:3;stroke-linecap:round;stroke-linejoin:round;stroke-miterlimit:10;}
	.st10{fill:none;stroke:#3F3E3E;stroke-width:3;stroke-linecap:round;stroke-linejoin:round;stroke-dasharray:7.2824,7.2824;}
</style>
<g>
	<ellipse transform="matrix(0.9926 -0.1217 0.1217 0.9926 -4.2137 8.4372)" class="st0" cx="67" cy="38.7" rx="8.9" ry="8.9"/>
	<path class="st0" d="M39.3,21.1c0,0,7.6-4.7,15.8-1.6C62,22.2,63,29.9,63,29.9"/>
	<path class="st0" d="M13.6,65.1c20.6-2,20.8-0.1,41.5-2.1c20.6-2,20.5-3.8,41.1-5.8c11.7-1.1,12.5-1.8,18.5-1.9"/>
	<path class="st0" d="M133.2,55.1v61.4l-113,12.1c-3.7,0.4-7-2.5-7-6.3V64.1"/>
	<g>
		<path class="st0" d="M13.3,101.9c11.9-1.3,12,0.1,23.9-1.1c11.9-1.3,11.7-2.7,23.6-4c11.9-1.3,12,0.1,23.9-1.1
			c11.9-1.3,11.7-2.7,23.6-4c11.9-1.3,12,0.1,23.9-1.1"/>
	</g>
	<g>
		<path class="st0" d="M13.3,89c11.9-1.3,12,0.1,23.9-1.1c11.9-1.3,11.7-2.7,23.6-4c11.9-1.3,12,0.1,23.9-1.1
			c11.9-1.3,11.7-2.7,23.6-4s12,0.1,23.9-1.1"/>
	</g>
	<path class="st0" d="M57.8,40.5c-5.3,3.2-7.6,5.4-17,10c-13.2,6.5-14,4.8-27.2,11.2"/>
	<path class="st0" d="M81.3,29.8c-2.4,0.8-4.7,1.6-7.7,2.8"/>
	<path class="st0" d="M93.6,23c2.2,1.4,3.4,4.3,3.4,4.3s3.2-0.2,5.4,1.2c2.2,1.4,3.4,4.3,3.4,4.3s3.2-0.2,5.4,1.2
		c2.2,1.4,3.4,4.3,3.4,4.3s3.2-0.2,5.4,1.2c2.2,1.4,3.4,4.3,3.4,4.3s3.2-0.2,5.4,1.2c2.2,1.4,3.4,4.3,3.4,4.3s4.8-0.5,2.7,3.1"/>
	<g>
		<path class="st0" d="M115,52.4c-4.3-2.7-3.5-3.9-7.7-6.5c-4.3-2.6-5-1.4-9.3-4.1c-4.3-2.7-3.5-3.9-7.7-6.5c-4.3-2.7-5-1.4-9.3-4.1
			"/>
	</g>
	<path class="st0" d="M93.3,23.9c-1.6-0.5-2.8-2.5-4-2.6c-1.7,0-2.6,3.9-2.6,3.9S82,24.8,81.5,26c-1,2.1,0.8,2.4,0.8,4.6"/>
	<path class="st0" d="M135.6,50.5c-1.4,1.8-4.7,1.5-4.7,1.5s-1.8,3-3.5,3.3c-1.3,0.3-4.6-1.4-4.6-1.4s-3.1,1.5-4.7,1.1
		c-1.3-0.4-3.6-2.9-5.1-3.6"/>
</g>
</svg>
