<?xml version="1.0" encoding="utf-8"?>
<!-- Generator: Adobe Illustrator 19.2.1, SVG Export Plug-In . SVG Version: 6.00 Build 0)  -->
<svg version="1.0" id="Layer_1" xmlns="http://www.w3.org/2000/svg" xmlns:xlink="http://www.w3.org/1999/xlink" x="0px" y="0px"
	 viewBox="0 0 150 150" style="enable-background:new 0 0 150 150;" xml:space="preserve">
<style type="text/css">
	.st0{fill:none;stroke:#3F3E3E;stroke-width:3;stroke-linecap:round;stroke-linejoin:round;stroke-miterlimit:10;}
	.st1{fill:#3F3E3E;}
	.st2{fill:#FFFFFF;}
	.st3{fill:#3F3D3E;}
	.st4{fill:#FFD83D;}
	.st5{fill:none;stroke:#3F3E3E;stroke-width:3;stroke-linecap:round;stroke-linejoin:round;}
	.st6{fill:none;stroke:#3F3E3E;stroke-width:3;stroke-linecap:round;stroke-linejoin:round;stroke-dasharray:6.7627,6.7627;}
	.st7{fill:none;stroke:#3F3E3E;stroke-width:3;stroke-linecap:round;stroke-linejoin:round;stroke-dasharray:4.828,9.6561;}
	.st8{fill:#FFFFFF;stroke:#3F3E3E;stroke-width:3;stroke-linecap:round;stroke-linejoin:round;stroke-miterlimit:10;}
	.st9{fill:none;stroke:#37383A;stroke-width:3;stroke-linecap:round;stroke-linejoin:round;stroke-miterlimit:10;}
	.st10{fill:none;stroke:#3F3E3E;stroke-width:3;stroke-linecap:round;stroke-linejoin:round;stroke-dasharray:7.2824,7.2824;}
</style>
<g>
	<polygon class="st0" points="99.1,143.6 51.3,143.6 45.9,48.4 104.4,48.4 	"/>
	<rect x="41.9" y="40.4" class="st0" width="66.4" height="7.9"/>
	<polyline class="st0" points="74.2,38.9 72,17.9 49.9,5.1 	"/>
	<line class="st0" x1="75.1" y1="47.1" x2="84.1" y2="136.1"/>
	<line class="st0" x1="48.1" y1="40.4" x2="48.1" y2="47.1"/>
	<line class="st0" x1="57.1" y1="40.4" x2="57.1" y2="47.1"/>
	<line class="st0" x1="66.1" y1="40.4" x2="66.1" y2="47.1"/>
	<line class="st0" x1="75.1" y1="40.4" x2="75.1" y2="47.1"/>
	<line class="st0" x1="84.1" y1="40.4" x2="84.1" y2="47.1"/>
	<line class="st0" x1="93.1" y1="40.4" x2="93.1" y2="47.1"/>
	<line class="st0" x1="102.1" y1="40.4" x2="102.1" y2="47.1"/>
	<path class="st0" d="M65.3,99.1h-4.4c-2.1,0-3.8-1.7-3.8-3.8v-4.4c0-2.1,1.7-3.8,3.8-3.8h4.4c2.1,0,3.8,1.7,3.8,3.8v4.4
		C69.1,97.4,67.4,99.1,65.3,99.1z"/>
	<path class="st0" d="M66.1,136.9l-4.3,0.9c-2.1,0.5-4.1-0.9-4.6-2.9l-0.9-4.3c-0.5-2.1,0.9-4.1,2.9-4.6l4.3-0.9
		c2.1-0.5,4.1,0.9,4.6,2.9l0.9,4.3C69.5,134.4,68.2,136.5,66.1,136.9z"/>
	<path class="st0" d="M71.6,121.7l-3.1-3.1c-1.5-1.5-1.5-3.9,0-5.4l3.1-3.1c1.5-1.5,3.9-1.5,5.4,0l3.1,3.1c1.5,1.5,1.5,3.9,0,5.4
		l-3.1,3.1C75.5,123.2,73.1,123.2,71.6,121.7z"/>
	<path class="st0" d="M87.8,82.1L84.7,79c-1.5-1.5-1.5-3.9,0-5.4l3.1-3.1c1.5-1.5,3.9-1.5,5.4,0l3.1,3.1c1.5,1.5,1.5,3.9,0,5.4
		l-3.1,3.1C91.7,83.6,89.3,83.6,87.8,82.1z"/>
	<g>
		<path class="st0" d="M46.5,58.8c5.6,0,5.6,2,11.1,2c5.6,0,5.6-2,11.1-2c5.6,0,5.6,2,11.1,2c5.6,0,5.6-2,11.1-2c5.6,0,5.6,2,11.1,2
			"/>
	</g>
</g>
</svg>
