<?xml version="1.0" encoding="utf-8"?>
<!-- Generator: Adobe Illustrator 19.2.1, SVG Export Plug-In . SVG Version: 6.00 Build 0)  -->
<svg version="1.0" id="Layer_1" xmlns="http://www.w3.org/2000/svg" xmlns:xlink="http://www.w3.org/1999/xlink" x="0px" y="0px"
	 viewBox="0 0 150 150" style="enable-background:new 0 0 150 150;" xml:space="preserve">
<style type="text/css">
	.st0{fill:none;stroke:#3F3E3E;stroke-width:3;stroke-linecap:round;stroke-linejoin:round;stroke-miterlimit:10;}
	.st1{fill:#3F3E3E;}
	.st2{fill:#FFFFFF;}
	.st3{fill:#3F3D3E;}
	.st4{fill:#FFD83D;}
	.st5{fill:none;stroke:#3F3E3E;stroke-width:3;stroke-linecap:round;stroke-linejoin:round;}
	.st6{fill:none;stroke:#3F3E3E;stroke-width:3;stroke-linecap:round;stroke-linejoin:round;stroke-dasharray:6.7627,6.7627;}
	.st7{fill:none;stroke:#3F3E3E;stroke-width:3;stroke-linecap:round;stroke-linejoin:round;stroke-dasharray:4.828,9.6561;}
	.st8{fill:#FFFFFF;stroke:#3F3E3E;stroke-width:3;stroke-linecap:round;stroke-linejoin:round;stroke-miterlimit:10;}
	.st9{fill:none;stroke:#37383A;stroke-width:3;stroke-linecap:round;stroke-linejoin:round;stroke-miterlimit:10;}
	.st10{fill:none;stroke:#3F3E3E;stroke-width:3;stroke-linecap:round;stroke-linejoin:round;stroke-dasharray:7.2824,7.2824;}
</style>
<g>
	<polyline class="st0" points="46.4,129.1 46.4,136 83.3,136 83.3,128.7 	"/>
	<path class="st0" d="M106.5,88.8c0.7-1,0.8-1.7,0.8-3c0-3.5-2.8-6.3-6.3-6.3c-0.7,0-1.5,0.1-2.1,0.4c0.1-0.4,0.1-0.7,0.1-1.1
		c0-4-3.2-7.2-7.2-7.2c-1.1,0-2.2,0.3-3.1,0.7c0.2-0.6,0.3-1.3,0.3-2c0-3.4-2.7-6.1-6.1-6.1c-2.7,0-5,1.7-5.8,4.2
		c-0.9-1.8-2.7-3-4.9-3c-0.5,0-1,0.1-1.4,0.2c0-0.2,0.1-0.4,0.1-0.5c0-2.9-2.4-5.3-5.3-5.3c-1.6,0-3,0.7-4,1.9
		c-1.1-1.5-2.9-2.5-4.9-2.5c-0.7,0-1.4,0.1-2.1,0.4c-0.9-1.2-2.4-2-4.1-2c-2.8,0-5.1,2.3-5.1,5.1c0,0.5,0.1,1,0.3,1.5
		c-0.1,0-0.2,0-0.3,0c-3.4,0-6.1,2.7-6.1,6.1c0,0.7,0.1,1.3,0.3,2c-0.9-0.4-2-0.7-3.1-0.7c-4,0-7.2,3.2-7.2,7.2c0,0.4,0,0.8,0.1,1.1
		c-0.7-0.2-1.4-0.4-2.1-0.4c-3.5,0-6.3,2.8-6.3,6.3c0,1.2,0.3,2.2,0.9,3.2"/>
	<path class="st0" d="M55.4,79.6c1.1,1.5,2.9,2.5,4.9,2.5c0.7,0,1.4-0.1,2.1-0.4c0.9,1.2,2.4,2,4.1,2c2.8,0,5.1-2.3,5.1-5.1"/>
	<path class="st0" d="M53.2,66.5c0.9,1.8,2.7,3,4.9,3c0.5,0,1-0.1,1.4-0.2"/>
	<path class="st0" d="M115.5,88.9c0,22.4-22.7,40.6-50.6,40.6s-50.6-18.2-50.6-40.6H115.5z"/>
	<path class="st0" d="M43.5,118.1c-9.2-4.7-16.4-11.6-20.5-19.8"/>
	<polyline class="st0" points="98.4,75.4 127.4,18.5 134,22 102,79.6 	"/>
	<polyline class="st0" points="89.4,71.8 101.9,7 109.2,8.5 94.8,72.1 	"/>
</g>
</svg>
