<?xml version="1.0" encoding="utf-8"?>
<!-- Generator: Adobe Illustrator 19.2.1, SVG Export Plug-In . SVG Version: 6.00 Build 0)  -->
<svg version="1.0" id="Layer_1" xmlns="http://www.w3.org/2000/svg" xmlns:xlink="http://www.w3.org/1999/xlink" x="0px" y="0px"
	 viewBox="0 0 150 150" style="enable-background:new 0 0 150 150;" xml:space="preserve">
<style type="text/css">
	.st0{fill:none;stroke:#3F3E3E;stroke-width:3;stroke-linecap:round;stroke-linejoin:round;stroke-miterlimit:10;}
	.st1{fill:#3F3E3E;}
	.st2{fill:#FFFFFF;}
	.st3{fill:#3F3D3E;}
	.st4{fill:#FFD83D;}
	.st5{fill:none;stroke:#3F3E3E;stroke-width:3;stroke-linecap:round;stroke-linejoin:round;}
	.st6{fill:none;stroke:#3F3E3E;stroke-width:3;stroke-linecap:round;stroke-linejoin:round;stroke-dasharray:6.7627,6.7627;}
	.st7{fill:none;stroke:#3F3E3E;stroke-width:3;stroke-linecap:round;stroke-linejoin:round;stroke-dasharray:4.828,9.6561;}
	.st8{fill:#FFFFFF;stroke:#3F3E3E;stroke-width:3;stroke-linecap:round;stroke-linejoin:round;stroke-miterlimit:10;}
	.st9{fill:none;stroke:#37383A;stroke-width:3;stroke-linecap:round;stroke-linejoin:round;stroke-miterlimit:10;}
	.st10{fill:none;stroke:#3F3E3E;stroke-width:3;stroke-linecap:round;stroke-linejoin:round;stroke-dasharray:7.2824,7.2824;}
</style>
<g>
	<circle class="st0" cx="74.3" cy="74.3" r="58.9"/>
	<g>
		<path class="st0" d="M124.2,74.8c0,6.6-3.2,12.6-5.6,18.4c-2.5,6-4.5,12.5-9,17c-4.5,4.5-11,6.5-17,9c-5.8,2.4-11.7,5.6-18.4,5.6
			c-6.6,0-12.6-3.2-18.4-5.6c-6-2.5-12.5-4.5-17-9c-4.5-4.5-6.5-11-9-17c-2.4-5.8-5.6-11.7-5.6-18.4c0-6.6,3.2-12.6,5.6-18.4
			c2.5-6,4.5-12.5,9-17c4.5-4.5,11-6.5,17-9c5.8-2.4,11.7-5.6,18.4-5.6c6.6,0,12.6,3.2,18.4,5.6c6,2.5,12.5,4.5,17,9
			c4.5,4.5,6.5,11,9,17C121,62.2,124.2,68.2,124.2,74.8z"/>
	</g>
	<g>
		<circle class="st0" cx="74.3" cy="73.7" r="17.3"/>
	</g>
	<line class="st0" x1="112.6" y1="74.5" x2="115.2" y2="77"/>
	<line class="st0" x1="100.2" y1="62.9" x2="103.6" y2="61.7"/>
	<line class="st0" x1="94.2" y1="43.2" x2="92.6" y2="45.9"/>
	<line class="st0" x1="56.4" y1="101" x2="56" y2="104.5"/>
	<line class="st0" x1="75.3" y1="111.8" x2="75" y2="115.4"/>
	<line class="st0" x1="79.6" y1="101.7" x2="76.1" y2="101.1"/>
	<line class="st0" x1="101.3" y1="81.4" x2="97.7" y2="86.2"/>
	<line class="st0" x1="102.6" y1="98.9" x2="99.1" y2="103.8"/>
	<line class="st0" x1="43.9" y1="88.6" x2="47.3" y2="87.4"/>
	<line class="st0" x1="35.1" y1="74.3" x2="33.5" y2="76.9"/>
	<line class="st0" x1="50.3" y1="42.9" x2="47.5" y2="47"/>
	<line class="st0" x1="76.4" y1="34.9" x2="72.2" y2="35.1"/>
	<line class="st0" x1="67.7" y1="47.4" x2="64.7" y2="44.3"/>
	<line class="st0" x1="47.8" y1="64.3" x2="44.6" y2="62.1"/>
</g>
</svg>
