<?xml version="1.0" encoding="utf-8"?>
<!-- Generator: Adobe Illustrator 22.1.0, SVG Export Plug-In . SVG Version: 6.00 Build 0)  -->
<svg version="1.1" id="Layer_1" xmlns="http://www.w3.org/2000/svg" xmlns:xlink="http://www.w3.org/1999/xlink" x="0px" y="0px"
	 viewBox="0 0 24 24" style="enable-background:new 0 0 24 24;" xml:space="preserve">
<style type="text/css">
	.st0{fill:#FFFFFF;stroke:#000000;stroke-width:2;stroke-linecap:round;stroke-linejoin:round;}
	.st1{fill:none;stroke:#000000;stroke-width:2;stroke-linecap:round;stroke-linejoin:round;}
	.st2{display:none;fill:#FDD749;}
	.st3{fill:none;stroke:#000000;stroke-width:2;stroke-linecap:round;stroke-miterlimit:10;}
	.st4{fill:none;stroke:#000000;stroke-width:2;stroke-miterlimit:10;}
	.st5{fill:none;stroke:#000000;stroke-width:2;stroke-linecap:round;stroke-linejoin:round;stroke-miterlimit:10;}
	.st6{fill:none;stroke:#0F0F0F;stroke-width:2;stroke-linecap:round;stroke-linejoin:round;}
	.st7{fill:none;stroke:#000000;stroke-width:2;stroke-linejoin:round;}
	.st8{fill:none;stroke:#000000;stroke-width:2.0112;stroke-linecap:round;stroke-linejoin:round;}
	.st9{fill:none;stroke:#000000;stroke-width:2.3562;stroke-linecap:round;stroke-linejoin:round;}
</style>
<path class="st1" d="M17,18c0-2.8-2.2-5-5-5s-5,2.2-5,5"/>
<line class="st1" x1="12" y1="9" x2="12" y2="2"/>
<line class="st1" x1="4.2" y1="10.2" x2="5.6" y2="11.6"/>
<line class="st1" x1="1" y1="18" x2="3" y2="18"/>
<line class="st1" x1="21" y1="18" x2="23" y2="18"/>
<line class="st1" x1="18.4" y1="11.6" x2="19.8" y2="10.2"/>
<line class="st1" x1="23" y1="22" x2="1" y2="22"/>
<polyline class="st1" points="16,5 12,9 8,5 "/>
<path class="st1" d="M9,22c-1.2-0.9-2-2.4-2-4c0-2.8,2.2-5,5-5s5,2.2,5,5c0,1.6-0.8,3.1-2,4"/>
</svg>
