<?xml version="1.0" encoding="utf-8"?>
<!-- Generator: Adobe Illustrator 22.1.0, SVG Export Plug-In . SVG Version: 6.00 Build 0)  -->
<svg version="1.1" id="Layer_1" xmlns="http://www.w3.org/2000/svg" xmlns:xlink="http://www.w3.org/1999/xlink" x="0px" y="0px"
	 viewBox="0 0 24 24" style="enable-background:new 0 0 24 24;" xml:space="preserve">
<style type="text/css">
	.st0{fill:#FFFFFF;stroke:#000000;stroke-width:2;stroke-linecap:round;stroke-linejoin:round;}
	.st1{fill:none;stroke:#000000;stroke-width:2;stroke-linecap:round;stroke-linejoin:round;}
	.st2{display:none;fill:#FDD749;}
	.st3{fill:none;stroke:#000000;stroke-width:2;stroke-linecap:round;stroke-miterlimit:10;}
	.st4{fill:none;stroke:#000000;stroke-width:2;stroke-miterlimit:10;}
	.st5{fill:none;stroke:#000000;stroke-width:2;stroke-linecap:round;stroke-linejoin:round;stroke-miterlimit:10;}
	.st6{fill:none;stroke:#0F0F0F;stroke-width:2;stroke-linecap:round;stroke-linejoin:round;}
	.st7{fill:none;stroke:#000000;stroke-width:2;stroke-linejoin:round;}
	.st8{fill:none;stroke:#000000;stroke-width:2.0112;stroke-linecap:round;stroke-linejoin:round;}
	.st9{fill:none;stroke:#000000;stroke-width:2.3562;stroke-linecap:round;stroke-linejoin:round;}
</style>
<path class="st1" d="M9.6,4.6c0.8-0.8,2-0.8,2.8,0c0.8,0.8,0.8,2,0,2.8C12,7.8,11.5,8,11,8H2 M12.6,19.4c0.8,0.8,2,0.8,2.8,0
	c0.8-0.8,0.8-2,0-2.8C15,16.2,14.5,16,14,16H2 M17.7,7.7c1-1,2.6-1,3.5,0c1,1,1,2.6,0,3.5c-0.5,0.5-1.1,0.7-1.8,0.7H2"/>
</svg>
