<?xml version="1.0" encoding="utf-8"?>
<!-- Generator: Adobe Illustrator 19.2.1, SVG Export Plug-In . SVG Version: 6.00 Build 0)  -->
<svg version="1.0" id="Layer_1" xmlns="http://www.w3.org/2000/svg" xmlns:xlink="http://www.w3.org/1999/xlink" x="0px" y="0px"
	 viewBox="0 0 150 150" style="enable-background:new 0 0 150 150;" xml:space="preserve">
<style type="text/css">
	.st0{fill:none;stroke:#3F3E3E;stroke-width:3;stroke-linecap:round;stroke-linejoin:round;stroke-miterlimit:10;}
	.st1{fill:#3F3E3E;}
	.st2{fill:#FFFFFF;}
	.st3{fill:#3F3D3E;}
	.st4{fill:#FFD83D;}
	.st5{fill:none;stroke:#3F3E3E;stroke-width:3;stroke-linecap:round;stroke-linejoin:round;}
	.st6{fill:none;stroke:#3F3E3E;stroke-width:3;stroke-linecap:round;stroke-linejoin:round;stroke-dasharray:6.7627,6.7627;}
	.st7{fill:none;stroke:#3F3E3E;stroke-width:3;stroke-linecap:round;stroke-linejoin:round;stroke-dasharray:4.828,9.6561;}
	.st8{fill:#FFFFFF;stroke:#3F3E3E;stroke-width:3;stroke-linecap:round;stroke-linejoin:round;stroke-miterlimit:10;}
	.st9{fill:none;stroke:#37383A;stroke-width:3;stroke-linecap:round;stroke-linejoin:round;stroke-miterlimit:10;}
	.st10{fill:none;stroke:#3F3E3E;stroke-width:3;stroke-linecap:round;stroke-linejoin:round;stroke-dasharray:7.2824,7.2824;}
</style>
<g>
	<g>
		<path class="st0" d="M90.7,135.8H20.2c-5.5,0-10-4.5-10-10V21.1c0-5.5,4.5-10,10-10h82.2c5.5,0,10,4.5,10,10v93"/>
	</g>
	<g>
		<path class="st0" d="M90.7,135.8v-11.7c0-5.5,4.5-10,10-10h11.7"/>
	</g>
	<g>
		<path class="st0" d="M90.7,135.8h11.7c5.5,0,10-4.5,10-10v-11.7"/>
	</g>
	<line class="st0" x1="90.7" y1="135.8" x2="112.4" y2="114.1"/>
	<circle class="st0" cx="19.4" cy="20.5" r="2.5"/>
	<circle class="st0" cx="103.2" cy="20.5" r="2.5"/>
	<g>
		<g>
			<line class="st5" x1="18.1" y1="32.7" x2="20.6" y2="32.7"/>
			<line class="st7" x1="30.2" y1="32.7" x2="97.8" y2="32.7"/>
			<line class="st5" x1="102.6" y1="32.7" x2="105.1" y2="32.7"/>
		</g>
	</g>
	<rect x="18.2" y="44.3" class="st0" width="9.8" height="9.8"/>
	<rect x="18.2" y="67.8" class="st0" width="9.8" height="9.8"/>
	<rect x="18.2" y="90.5" class="st0" width="9.8" height="9.8"/>
	<rect x="18.2" y="113.3" class="st0" width="9.8" height="9.8"/>
	<ellipse class="st0" cx="69.6" cy="54.1" rx="35.6" ry="0"/>
	<ellipse class="st0" cx="69.6" cy="77.6" rx="35.6" ry="0"/>
	<ellipse class="st0" cx="69.6" cy="101" rx="35.6" ry="0"/>
	<path class="st0" d="M90.7,124.5c0,0-1.5,0-21.2,0s-35.6,0-35.6,0s15.9,0,35.6,0S90.7,124.5,90.7,124.5z"/>
	<polygon class="st0" points="132.8,108.4 125.5,122 122.7,106.8 134.2,32.4 144.3,34 	"/>
	<polyline class="st0" points="122.7,106.8 127.6,109 132.8,108.4 	"/>
	<line class="st0" x1="132.8" y1="41.2" x2="142.9" y2="42.7"/>
	<line class="st0" x1="132.1" y1="45.9" x2="142.2" y2="47.5"/>
	<line class="st0" x1="127.6" y1="109" x2="137" y2="47.6"/>
</g>
</svg>
