<?xml version="1.0" encoding="utf-8"?>
<!-- Generator: Adobe Illustrator 19.2.1, SVG Export Plug-In . SVG Version: 6.00 Build 0)  -->
<svg version="1.0" id="Layer_1" xmlns="http://www.w3.org/2000/svg" xmlns:xlink="http://www.w3.org/1999/xlink" x="0px" y="0px"
	 viewBox="0 0 150 150" style="enable-background:new 0 0 150 150;" xml:space="preserve">
<style type="text/css">
	.st0{fill:none;stroke:#3F3E3E;stroke-width:3;stroke-linecap:round;stroke-linejoin:round;stroke-miterlimit:10;}
	.st1{fill:#3F3E3E;}
	.st2{fill:#FFFFFF;}
	.st3{fill:#3F3D3E;}
	.st4{fill:#FFD83D;}
	.st5{fill:none;stroke:#3F3E3E;stroke-width:3;stroke-linecap:round;stroke-linejoin:round;}
	.st6{fill:none;stroke:#3F3E3E;stroke-width:3;stroke-linecap:round;stroke-linejoin:round;stroke-dasharray:6.7627,6.7627;}
	.st7{fill:none;stroke:#3F3E3E;stroke-width:3;stroke-linecap:round;stroke-linejoin:round;stroke-dasharray:4.828,9.6561;}
	.st8{fill:#FFFFFF;stroke:#3F3E3E;stroke-width:3;stroke-linecap:round;stroke-linejoin:round;stroke-miterlimit:10;}
	.st9{fill:none;stroke:#37383A;stroke-width:3;stroke-linecap:round;stroke-linejoin:round;stroke-miterlimit:10;}
	.st10{fill:none;stroke:#3F3E3E;stroke-width:3;stroke-linecap:round;stroke-linejoin:round;stroke-dasharray:7.2824,7.2824;}
</style>
<g>
	<path class="st1" d="M65.5,69c2.1,0.5,4.4,0.8,6.6,0.8c10.1,0,19.3-5.6,24-14.5c0.4-0.9,0.1-1.9-0.7-2.4c-0.9-0.4-1.9-0.1-2.4,0.7
		c-4.1,7.8-12.1,12.7-20.9,12.7c-2,0-3.9-0.2-5.8-0.7c-0.9-0.2-1.9,0.3-2.1,1.3C64,67.9,64.5,68.8,65.5,69z"/>
	<path class="st1" d="M40.9,107.1c-1,0-1.7,0.8-1.7,1.7c0,1,0.8,1.7,1.7,1.7h62.3c1,0,1.7-0.8,1.7-1.7c0-1-0.8-1.7-1.7-1.7H40.9z"/>
	<path class="st1" d="M125.9,51c0-12.5-10.2-22.7-22.7-22.7c-2.8,0-5.5,0.5-8.1,1.5C90,22,81.1,17.2,71.7,17.2
		c-9.4,0-18.2,4.8-23.4,12.5c-2.6-1-5.2-1.5-8-1.5c-12.5,0-22.7,10.2-22.7,22.7c0,0,0,0,0,0c0,0,0,0,0,0c0,0.6,0,1.1,0.1,1.7
		c0,0.1,0,0.2,0,0.3c0,0.6,0.1,1.1,0.2,1.7c0,0.1,0,0.1,0,0.2c0.1,0.5,0.2,1,0.3,1.5c0,0.1,0,0.1,0,0.2c0.1,0.5,0.3,1,0.4,1.5
		c0,0.1,0.1,0.3,0.1,0.4c0.1,0.4,0.3,0.8,0.5,1.2c0.1,0.2,0.2,0.4,0.3,0.6c0.1,0.3,0.2,0.5,0.4,0.8c0.1,0.2,0.2,0.5,0.4,0.7
		c0.1,0.2,0.2,0.4,0.4,0.6c0.2,0.4,0.5,0.8,0.7,1.1c0.1,0.1,0.1,0.2,0.2,0.3c0.4,0.5,0.7,1,1.1,1.5c0,0,0.1,0.1,0.1,0.1
		c0.6,0.8,1.3,1.5,2.1,2.2c0.1,0.1,0.3,0.2,0.4,0.3c0.3,0.2,0.5,0.5,0.8,0.7c0.3,0.2,0.6,0.4,0.8,0.6c0.1,0.1,0.3,0.2,0.4,0.3
		c0.4,0.3,0.9,0.6,1.3,0.8c0,0,0,0,0,0c1.6,0.9,3.2,1.7,5,2.2v52.2c0,1,0.8,1.7,1.7,1.7h73.3c1,0,1.7-0.8,1.7-1.7V72.5
		c9-3,15.4-11.5,15.4-21.4C125.9,51,125.9,51,125.9,51C125.9,51,125.9,51,125.9,51z M107,123.1H37.2V73.4c1,0.1,2.1,0.2,3.1,0.2
		c1,0,1.7-0.8,1.7-1.7c0-1-0.8-1.7-1.7-1.7c-1.5,0-3-0.2-4.4-0.5c0,0,0,0,0,0c-1.9-0.5-3.7-1.2-5.4-2.2c-0.2-0.1-0.5-0.3-0.7-0.4
		c-0.2-0.1-0.4-0.2-0.5-0.4c-0.3-0.2-0.6-0.5-1-0.7c-0.1-0.1-0.2-0.2-0.4-0.3c-0.4-0.3-0.7-0.6-1-0.9c-0.1-0.1-0.2-0.1-0.2-0.2
		c-0.4-0.4-0.7-0.8-1.1-1.2c0,0-0.1-0.1-0.1-0.1c-1.1-1.4-2.1-2.9-2.8-4.6c-0.1-0.2-0.1-0.3-0.2-0.5c-0.2-0.4-0.3-0.8-0.4-1.1
		c-0.1-0.2-0.1-0.4-0.2-0.7c-0.1-0.3-0.2-0.7-0.3-1c-0.1-0.2-0.1-0.5-0.2-0.7c-0.1-0.4-0.1-0.7-0.2-1.1c0-0.2-0.1-0.5-0.1-0.7
		c0-0.5-0.1-1.1-0.1-1.6c0-0.1,0-0.1,0-0.2c0-10.6,8.6-19.2,19.2-19.2c4.9,0,9.5,1.8,13.1,5.1c0.7,0.7,1.8,0.6,2.5-0.1
		c0.7-0.7,0.6-1.8-0.1-2.5c-1.3-1.2-2.7-2.2-4.3-3.1c4.6-6.6,12.2-10.6,20.3-10.6c8.7,0,16.8,4.7,21.3,12.1c0.5,0.8,1.4,1.1,2.2,0.7
		c2.5-1.2,5.2-1.8,8-1.8c10.6,0,19.2,8.6,19.2,19.2c0,0.2,0,0.4,0,0.6c0,0.4,0,0.8-0.1,1.1c0,0.4-0.1,0.8-0.2,1.3c0,0.1,0,0.2,0,0.3
		c-1.3,7.2-6.6,13.3-13.9,15.2c0,0-0.1,0-0.1,0c-1.6,0.4-3.2,0.7-4.9,0.7c-1,0-1.7,0.8-1.7,1.7c0,1,0.8,1.7,1.7,1.7
		c1.3,0,2.5-0.1,3.7-0.3V123.1z"/>
	<path class="st1" d="M70.3,80.3v21.5c0,1,0.8,1.7,1.7,1.7c1,0,1.7-0.8,1.7-1.7V80.3c0-1-0.8-1.7-1.7-1.7
		C71.1,78.5,70.3,79.3,70.3,80.3z"/>
	<path class="st1" d="M54.4,103.6c1,0,1.7-0.8,1.7-1.7V80.3c0-1-0.8-1.7-1.7-1.7c-1,0-1.7,0.8-1.7,1.7v21.5
		C52.7,102.8,53.4,103.6,54.4,103.6z"/>
	<path class="st1" d="M88,80.3v21.5c0,1,0.8,1.7,1.7,1.7c1,0,1.7-0.8,1.7-1.7V80.3c0-1-0.8-1.7-1.7-1.7C88.8,78.5,88,79.3,88,80.3z"
		/>
</g>
</svg>
