<?xml version="1.0" encoding="utf-8"?>
<!-- Generator: Adobe Illustrator 19.2.1, SVG Export Plug-In . SVG Version: 6.00 Build 0)  -->
<svg version="1.0" id="Layer_1" xmlns="http://www.w3.org/2000/svg" xmlns:xlink="http://www.w3.org/1999/xlink" x="0px" y="0px"
	 viewBox="0 0 150 150" style="enable-background:new 0 0 150 150;" xml:space="preserve">
<style type="text/css">
	.st0{fill:none;stroke:#3F3E3E;stroke-width:3;stroke-linecap:round;stroke-linejoin:round;stroke-miterlimit:10;}
	.st1{fill:#3F3E3E;}
	.st2{fill:#FFFFFF;}
	.st3{fill:#3F3D3E;}
	.st4{fill:#FFD83D;}
	.st5{fill:none;stroke:#3F3E3E;stroke-width:3;stroke-linecap:round;stroke-linejoin:round;}
	.st6{fill:none;stroke:#3F3E3E;stroke-width:3;stroke-linecap:round;stroke-linejoin:round;stroke-dasharray:6.7627,6.7627;}
	.st7{fill:none;stroke:#3F3E3E;stroke-width:3;stroke-linecap:round;stroke-linejoin:round;stroke-dasharray:4.828,9.6561;}
	.st8{fill:#FFFFFF;stroke:#3F3E3E;stroke-width:3;stroke-linecap:round;stroke-linejoin:round;stroke-miterlimit:10;}
	.st9{fill:none;stroke:#37383A;stroke-width:3;stroke-linecap:round;stroke-linejoin:round;stroke-miterlimit:10;}
	.st10{fill:none;stroke:#3F3E3E;stroke-width:3;stroke-linecap:round;stroke-linejoin:round;stroke-dasharray:7.2824,7.2824;}
</style>
<g>
	<line class="st0" x1="60.2" y1="114.5" x2="60.2" y2="99.1"/>
	<line class="st0" x1="94.9" y1="99.1" x2="94.9" y2="115.2"/>
	<path class="st0" d="M60.2,98.9c-16.7-6.8-28.5-23.2-28.5-42.3c0-25.2,20.5-45.7,45.7-45.7c19.8,0,36.6,12.6,43,30.2"/>
	<path class="st0" d="M122.9,52.5c0.1,1.3,0.2,2.7,0.2,4.1c0,25.2-20.5,45.7-45.7,45.7c-2.5,0-5-0.2-7.5-0.6"/>
	<path class="st0" d="M122.5,48.8c0.7,3.8,0.8,7.6,0.5,11.3"/>
	<path class="st0" d="M34.4,41c0,0-8.4-8-16.6-4.1c-18.8,8.9-1.1,39.1-3.3,53.5C13.1,98.9,1,107.2,1,107.2s15.5-0.6,25-13.7
		c8.6-11.9,8.7-20.8,8.7-20.8"/>
	<path class="st0" d="M48.4,40.3c2.4-14.5,13.7-26.6,29-29.4"/>
	<path class="st0" d="M94.9,115.2c25.6,2,42,13.3,51,28.8L5,144c9.7-15.6,27.3-26.7,55.2-29.5"/>
	<line class="st0" x1="34.4" y1="41" x2="144.5" y2="41"/>
	<path class="st0" d="M144.5,41c0,4.4-15.4,7.9-34.5,7.9S75.6,45.4,75.6,41"/>
	<polyline class="st0" points="91.9,62.5 96.3,73.5 89,73.5 	"/>
	<path class="st0" d="M96.3,80.3c-1.6,3.7-5.2,6.3-9.4,6.3c-4.9,0-9-3.4-10-8"/>
	<path class="st0" d="M69.8,59.4c0.6-1.9,2.3-3.3,4.3-3.5c2.4-0.2,4.6,1.3,5.3,3.5"/>
	<path class="st0" d="M98.7,59.4c0.6-1.9,2.3-3.3,4.3-3.5c2.4-0.2,4.6,1.3,5.3,3.5"/>
	<path class="st0" d="M54.7,69.6c-1.2,1.6-2.8,2.5-4.6,2.5c-3.6,0-6.4-3.9-6.4-8.7s2.9-8.7,6.4-8.7c1.7,0,3.2,0.8,4.3,2.2"/>
	<g>
		<path class="st1" d="M82,27.1c-0.5,0.1-1-0.1-1.3-0.5c-0.8,0.7-1.7,0.8-2.7,0.6c-0.8-0.2-1.4-0.6-1.9-1.3c-1-1.3-0.8-3.1,0.3-4.3
			c1.1-1.1,3.1-1.4,4.3-0.3c0.3-0.4,0.8-0.5,1.3-0.5C82,22.9,82,25,82,27.1z M80.5,23.9c0-0.9-0.7-1.7-1.7-1.7
			c-0.9,0-1.7,0.8-1.7,1.7c0,0.9,0.8,1.7,1.7,1.7C79.8,25.6,80.5,24.9,80.5,23.9z"/>
		<path class="st1" d="M89.2,24.5c0.2,0.6,0.6,1,1.2,1.1c0.6,0.1,1.1,0,1.6-0.5c0.1-0.1,0.1-0.1,0.2-0.1c0.5,0,1,0,1.5,0
			c0.1,0,0.1,0,0.2,0.1c0,0.1,0,0.2-0.1,0.2c-0.6,1.3-2,2.1-3.4,2c-1.4-0.1-2.7-1.3-2.9-2.7c-0.4-2,1.1-3.9,3.1-4
			c1.1,0,2.1,0.4,2.7,1.3c0.4,0.5,0.5,1,0.4,1.6c-0.1,0.5-0.5,0.9-1,0.9c-0.7,0-1.5,0-2.2,0C90.1,24.5,89.7,24.5,89.2,24.5z
			 M89.2,23.3c0.9,0,1.8,0,2.7,0c0.2,0,0.3-0.1,0.2-0.3c0-0.1-0.1-0.1-0.1-0.2c-0.4-0.5-0.9-0.6-1.5-0.5
			C89.9,22.4,89.5,22.7,89.2,23.3z"/>
		<path class="st1" d="M74.4,24.9c0.1,0,0.1,0.1,0.1,0.2c0,0.4,0,0.9,0,1.3c0,0.4-0.1,0.6-0.5,0.7c-2.8,0.9-5.4-0.9-5.9-3.4
			c-0.4-2.3,0.9-4.5,3.1-5.2c1-0.3,2.3-0.2,3.3,0.3c0,0.6,0,1.3,0,1.9c-0.1,0.1-0.2,0-0.3-0.1c-1.5-1.2-3.8-0.4-4.3,1.4
			c-0.4,1.2,0.1,2.4,1.1,3.2c0.9,0.7,2.3,0.6,3.2-0.1C74.3,25,74.3,24.9,74.4,24.9z"/>
		<path class="st1" d="M85.1,20.8c0.5,0,1,0,1.6,0c0,0.5,0,0.9,0,1.3c0,0.2-0.3,0.3-0.5,0.3c-0.3,0-0.6,0-1,0c-0.1,0.1,0,0.1,0,0.2
			c0,0.8,0,1.5,0,2.3c0,0.4,0.2,0.6,0.6,0.7c0.3,0.1,0.6,0,1-0.2c0.1,0.6,0,1.2,0,1.7c-1.3,0.4-3.2-0.2-3.2-2.1c0-1.9,0-3.9,0-5.8
			c0,0,0-0.1,0-0.1c0.5-0.1,0.9,0,1.3,0.4C85,19.9,85.1,20.3,85.1,20.8z"/>
		<path class="st1" d="M98.1,20.7c0,0.6,0,1.1,0,1.7c-0.1,0.1-0.1,0-0.2,0c-0.3-0.1-0.5-0.1-0.8-0.1c-0.4,0.1-0.5,0.3-0.5,0.7
			c0,1,0,2,0,2.9c0,0.3,0,0.6,0,1c0,0.1,0,0.1,0,0.2c-0.5,0-1,0-1.6,0c-0.1,0,0-0.1,0-0.2c0-1.3,0-2.7,0-4c0-1.2,1-2.2,2.2-2.2
			C97.5,20.6,97.8,20.6,98.1,20.7z"/>
		<path class="st1" d="M73,35.2c0.6,0,1.2,0,1.8,0c0.4,0,0.6,0.2,0.6,0.6c0,0.4,0,0.7,0,1.1c-0.1,0.1-0.2,0.1-0.2,0.1
			c-1.6,0-3.2,0-4.8,0c-0.2,0-0.4,0-0.5-0.2c-0.1-0.2,0-0.3,0.1-0.5c1.2-1.6,2.3-3.1,3.5-4.7c0.2-0.3,0.4-0.5,0.3-0.9
			c-0.1-0.5-0.4-0.8-0.9-0.9c-0.5,0-0.9,0.3-1,0.7c0,0.1,0,0.1-0.1,0.2c-0.6,0-1.1,0-1.7,0c-0.1-0.3,0-0.5,0.1-0.7
			c0.4-1.3,1.5-2,2.8-1.9c1.4,0.1,2.4,1.1,2.6,2.4c0.1,0.8-0.2,1.5-0.6,2.2c-0.6,0.8-1.2,1.6-1.8,2.5C73.1,35.1,73.1,35.1,73,35.2z"
			/>
		<path class="st1" d="M81.2,35.5c-0.5,0-1,0-1.6,0c-0.1-0.1-0.1-0.1-0.1-0.2c0-1.3,0-2.6,0-3.9c0-1.1,0.6-2,1.7-2.3
			c1.1-0.3,2.1-0.2,3.1,0.4C85.1,29,86,28.9,87,29c1.3,0.2,2.1,1.1,2.2,2.5c0,1.3,0,2.6,0,3.8c0,0.1,0,0.1-0.1,0.2
			c-0.4,0-0.8,0-1.2,0c-0.2,0-0.4-0.2-0.4-0.4c0-0.1,0-0.2,0-0.3c0-1.1,0-2.2,0-3.2c0-0.6-0.1-0.8-0.7-0.9c-0.3-0.1-0.6,0-1,0
			c-0.4,0.1-0.6,0.3-0.6,0.8c0,1.3,0,2.5,0,3.8c0,0.1,0,0.2,0,0.3c-0.5,0-1,0-1.6,0c-0.1-0.1,0-0.2,0-0.3c0-1.2,0-2.4,0-3.6
			c0-0.6-0.2-0.8-0.8-0.9c-0.3-0.1-0.7-0.1-1,0.1c-0.3,0.1-0.5,0.3-0.5,0.7c0,1.3,0,2.5,0,3.8C81.3,35.3,81.3,35.4,81.2,35.5z"/>
		<path class="st1" d="M91.9,32.9c0.4,1.2,1.9,1.5,2.8,0.7c0.1-0.1,0.2-0.2,0.4-0.2c0.4,0,0.9,0,1.3,0c0.1,0,0.2,0,0.2,0.1
			c0,0.1,0,0.2,0,0.2c-0.5,1.3-2,2.2-3.5,2c-1.4-0.1-2.7-1.4-3-2.7c-0.4-2,1.1-4,3.2-4c1.1,0,2.1,0.4,2.8,1.3c0.4,0.5,0.5,1,0.4,1.6
			c-0.1,0.5-0.5,0.9-1.1,1c-1,0-2,0-2.9,0C92.3,32.9,92.1,32.9,91.9,32.9z M91.9,31.7c0.9,0,1.8,0,2.7,0c0.2,0,0.3-0.2,0.2-0.3
			c0-0.1-0.1-0.1-0.1-0.2c-0.4-0.4-0.9-0.6-1.5-0.5C92.6,30.8,92.2,31.1,91.9,31.7z"/>
		<circle class="st2" cx="77.5" cy="34.2" r="1.3"/>
	</g>
	<path class="st0" d="M75.1,9.7c0-2.3,1.9-4.2,4.2-4.2c2.3,0,4.2,1.9,4.2,4.2"/>
	<path class="st0" d="M103.3,117.1c0,7.2-11.7,12.4-26.1,12.4S51,123.6,51,116.4"/>
	<path class="st0" d="M51.1,72.7c-0.2,1-0.6,2-1.1,3c-2.1,4-5.9,6.4-10,6.9"/>
	<path class="st0" d="M55,56.8c0.1-1.5,0.5-2.9,1-4.4c2.1-5.8,6.9-9.9,12.5-11.4"/>
</g>
</svg>
