<?xml version="1.0" encoding="utf-8"?>
<!-- Generator: Adobe Illustrator 19.2.1, SVG Export Plug-In . SVG Version: 6.00 Build 0)  -->
<svg version="1.0" id="Layer_1" xmlns="http://www.w3.org/2000/svg" xmlns:xlink="http://www.w3.org/1999/xlink" x="0px" y="0px"
	 viewBox="0 0 150 150" style="enable-background:new 0 0 150 150;" xml:space="preserve">
<style type="text/css">
	.st0{fill:none;stroke:#3F3E3E;stroke-width:3;stroke-linecap:round;stroke-linejoin:round;stroke-miterlimit:10;}
	.st1{fill:#3F3E3E;}
	.st2{fill:#FFFFFF;}
	.st3{fill:#3F3D3E;}
	.st4{fill:#FFD83D;}
	.st5{fill:none;stroke:#3F3E3E;stroke-width:3;stroke-linecap:round;stroke-linejoin:round;}
	.st6{fill:none;stroke:#3F3E3E;stroke-width:3;stroke-linecap:round;stroke-linejoin:round;stroke-dasharray:6.7627,6.7627;}
	.st7{fill:none;stroke:#3F3E3E;stroke-width:3;stroke-linecap:round;stroke-linejoin:round;stroke-dasharray:4.828,9.6561;}
	.st8{fill:#FFFFFF;stroke:#3F3E3E;stroke-width:3;stroke-linecap:round;stroke-linejoin:round;stroke-miterlimit:10;}
	.st9{fill:none;stroke:#37383A;stroke-width:3;stroke-linecap:round;stroke-linejoin:round;stroke-miterlimit:10;}
	.st10{fill:none;stroke:#3F3E3E;stroke-width:3;stroke-linecap:round;stroke-linejoin:round;stroke-dasharray:7.2824,7.2824;}
</style>
<g>
	<path class="st0" d="M44,83c-1.8-0.8-4-0.1-4.8,1.8l-1.7,4.1c-0.8,1.8-0.1,4,1.8,4.8c1.8,0.8,4,0.1,4.8-1.8l1.7-4.1
		C46.6,86,45.8,83.8,44,83z"/>
	<path class="st0" d="M56,84.5c-1.8-0.8-4-0.1-4.8,1.8l-3.4,8.3c-0.8,1.8-0.1,4,1.8,4.8c1.8,0.8,4,0.1,4.8-1.8l3.4-8.3
		C58.6,87.5,57.8,85.3,56,84.5z"/>
	<path class="st0" d="M66.5,88.7c-1.8-0.8-4-0.1-4.8,1.8l-3.6,8.8c-0.8,1.8-0.1,4,1.8,4.8c1.8,0.8,4,0.1,4.8-1.8l3.6-8.8
		C69.1,91.7,68.3,89.5,66.5,88.7z"/>
	<path class="st0" d="M90.8,95.6l8.4,4.4c1.7,1,4.2,0.2,5.5-2c1.3-2.2,1-4.8-0.7-5.8l-8.4-4.9"/>
	<path class="st0" d="M86.2,103.4l3.7,2.1c1.7,1,4.2,0.2,5.5-2c1.3-2.2,1-4.8-0.7-5.8"/>
	<path class="st0" d="M103.6,92l3.7,2.1c1.7,1,4.5-0.7,5.8-2.8c1.3-2.2-0.5-5.8-2.2-6.9"/>
	<path class="st0" d="M75.2,107.2l6.4,4c1.7,1,4.2,0.2,5.5-2c1.3-2.2,1-4.8-0.7-5.8"/>
	<path class="st0" d="M74.6,98c-1.8-0.8-4-0.1-4.8,1.8l-1.7,4.1c-0.8,1.8-0.1,4,1.8,4.8c1.8,0.8,4,0.1,4.8-1.8l1.7-4.1
		C77.2,101.1,76.5,98.9,74.6,98z"/>
	<path class="st0" d="M53.8,74.9l3.2-14.3l17-3.6l19,3.8l14.5-4.2l9.2,27l-4.2,1.8l-23.2-11c0,0-7-0.5-9.2-1.9
		c-2.2-1.4-5.1-4.8-5.1-4.8l-9,0.6c0,0-1.4,6.1-3.8,7.4C60.1,76.8,53.8,74.9,53.8,74.9z"/>
	<polyline class="st0" points="41.1,57.7 60.2,51.2 77.6,52.4 79.4,56 	"/>
	<polygon class="st0" points="21.2,47.6 8.9,83.3 28.9,90.3 42.1,55 	"/>
	<polygon class="st0" points="107.5,55.1 120.9,90.4 140.7,83 128.3,47.5 	"/>
	<line class="st0" x1="32.3" y1="85.7" x2="37.5" y2="88.8"/>
</g>
</svg>
