<?xml version="1.0" encoding="utf-8"?>
<!-- Generator: Adobe Illustrator 19.2.1, SVG Export Plug-In . SVG Version: 6.00 Build 0)  -->
<svg version="1.0" id="Layer_1" xmlns="http://www.w3.org/2000/svg" xmlns:xlink="http://www.w3.org/1999/xlink" x="0px" y="0px"
	 viewBox="0 0 150 150" style="enable-background:new 0 0 150 150;" xml:space="preserve">
<style type="text/css">
	.st0{fill:none;stroke:#3F3E3E;stroke-width:3;stroke-linecap:round;stroke-linejoin:round;stroke-miterlimit:10;}
	.st1{fill:#3F3E3E;}
	.st2{fill:#FFFFFF;}
	.st3{fill:#3F3D3E;}
	.st4{fill:#FFD83D;}
	.st5{fill:none;stroke:#3F3E3E;stroke-width:3;stroke-linecap:round;stroke-linejoin:round;}
	.st6{fill:none;stroke:#3F3E3E;stroke-width:3;stroke-linecap:round;stroke-linejoin:round;stroke-dasharray:6.7627,6.7627;}
	.st7{fill:none;stroke:#3F3E3E;stroke-width:3;stroke-linecap:round;stroke-linejoin:round;stroke-dasharray:4.828,9.6561;}
	.st8{fill:#FFFFFF;stroke:#3F3E3E;stroke-width:3;stroke-linecap:round;stroke-linejoin:round;stroke-miterlimit:10;}
	.st9{fill:none;stroke:#37383A;stroke-width:3;stroke-linecap:round;stroke-linejoin:round;stroke-miterlimit:10;}
	.st10{fill:none;stroke:#3F3E3E;stroke-width:3;stroke-linecap:round;stroke-linejoin:round;stroke-dasharray:7.2824,7.2824;}
</style>
<g>
	<path class="st0" d="M129.3,120.7H23.7c-3.3,0-5.9-2.7-5.9-5.9V50.1c0-3.3,2.7-5.9,5.9-5.9h105.6c3.3,0,5.9,2.7,5.9,5.9v64.7
		C135.2,118.1,132.5,120.7,129.3,120.7z"/>
	<path class="st0" d="M114.3,111.3H38.6c-6,0-10.8-4.8-10.8-10.8V64.4c0-6,4.8-10.8,10.8-10.8h75.7c6,0,10.8,4.8,10.8,10.8v36.1
		C125.2,106.5,120.3,111.3,114.3,111.3z"/>
	<g>
		<path class="st0" d="M52,43.9V33.7c0-7.4,6-13.3,13.3-13.3h22.4c7.4,0,13.3,6,13.3,13.3v10.1 M91.5,43.9v-8.1
			c0-3.5-2.8-6.3-6.3-6.3H67.8c-3.5,0-6.3,2.8-6.3,6.3v8.1"/>
	</g>
	<polygon class="st0" points="95.7,75.3 84.5,75.3 84.5,64.1 68.5,64.1 68.5,75.3 57.2,75.3 57.2,91.3 68.5,91.3 68.5,102.6 
		84.5,102.6 84.5,91.3 95.7,91.3 	"/>
</g>
</svg>
