<?xml version="1.0" encoding="utf-8"?>
<!-- Generator: Adobe Illustrator 19.2.1, SVG Export Plug-In . SVG Version: 6.00 Build 0)  -->
<svg version="1.0" id="Layer_1" xmlns="http://www.w3.org/2000/svg" xmlns:xlink="http://www.w3.org/1999/xlink" x="0px" y="0px"
	 viewBox="0 0 150 150" style="enable-background:new 0 0 150 150;" xml:space="preserve">
<style type="text/css">
	.st0{fill:none;stroke:#3F3E3E;stroke-width:3;stroke-linecap:round;stroke-linejoin:round;stroke-miterlimit:10;}
	.st1{fill:#3F3E3E;}
	.st2{fill:#FFFFFF;}
	.st3{fill:#3F3D3E;}
	.st4{fill:#FFD83D;}
	.st5{fill:none;stroke:#3F3E3E;stroke-width:3;stroke-linecap:round;stroke-linejoin:round;}
	.st6{fill:none;stroke:#3F3E3E;stroke-width:3;stroke-linecap:round;stroke-linejoin:round;stroke-dasharray:6.7627,6.7627;}
	.st7{fill:none;stroke:#3F3E3E;stroke-width:3;stroke-linecap:round;stroke-linejoin:round;stroke-dasharray:4.828,9.6561;}
	.st8{fill:#FFFFFF;stroke:#3F3E3E;stroke-width:3;stroke-linecap:round;stroke-linejoin:round;stroke-miterlimit:10;}
	.st9{fill:none;stroke:#37383A;stroke-width:3;stroke-linecap:round;stroke-linejoin:round;stroke-miterlimit:10;}
	.st10{fill:none;stroke:#3F3E3E;stroke-width:3;stroke-linecap:round;stroke-linejoin:round;stroke-dasharray:7.2824,7.2824;}
</style>
<g>
	<path class="st0" d="M41.8,137.2c0,0,0.2-28.2,5.5-51C51.5,68,64.5,45.7,64.5,45.7s-5.7,26.8-7.2,44.8c-1.2,14.8,7.2,46.7,7.2,46.7
		"/>
	<path class="st0" d="M128.9,94.2c1.4-11.3-7.4-21.8-19.7-23.4s-23.5,6.4-24.9,17.7L128.9,94.2z"/>
	<path class="st0" d="M108.8,71.2c-6.2,3.3-10.8,9-12.2,16"/>
	<path class="st0" d="M109.2,71.3c5.3,4.7,8.5,11.3,8.3,18.3"/>
	<line class="st0" x1="106.8" y1="91.4" x2="100.7" y2="135.3"/>
	<polyline class="st0" points="42.6,134.4 61.3,123.5 44.6,116.6 57.3,108.2 45.8,99.6 56.3,93.2 49.3,84.4 57.3,78.5 53.1,70.7 
		61.1,63.3 	"/>
	<path class="st0" d="M18.4,45.7c0-6.8,10.1-12.4,22.5-12.4s22.5,5.5,22.5,12.4h-6.7l-7.2-3l0,3h-3.9l-6.8-3l0,3h-5.4l-5.9-3l0,3
		H18.4z"/>
	<path class="st0" d="M108.2,54.7c1.5-6.7-7.1-14.3-19.2-17s-23.2,0.4-24.7,7.1l6.5,1.5l7.7-1.3l-0.7,2.9l3.8,0.9l7.3-1.4l-0.6,2.9
		l5.3,1.2l6.4-1.6l-0.7,2.9L108.2,54.7z"/>
	<path class="st0" d="M60.2,49.1c-5-4.7-15.9-1.1-24.4,8S24.5,77.4,29.5,82l4.5-4.9l2.7-7.3l2.2,2.1l2.6-2.8l2.5-7l2.2,2l3.7-4
		l1.8-6.3l2.2,2L60.2,49.1z"/>
	<path class="st0" d="M100.4,14.5c-4-5.6-15.4-4.2-25.5,3S59.8,35.1,63.7,40.6l5.4-3.9l4.1-6.6l1.7,2.5l3.2-2.3l3.8-6.4l1.8,2.4
		l4.4-3.2l3-5.9l1.7,2.4L100.4,14.5z"/>
	<g>
		<path class="st0" d="M90.9,136.4c3.3-0.2,3.4,1.8,6.7,1.5c3.3-0.2,3.1-2.2,6.4-2.5c3.3-0.2,3.4,1.8,6.7,1.5"/>
	</g>
	<g>
		<path class="st0" d="M38,137.7c5.8-0.1,5.8,1.9,11.6,1.8c5.8-0.1,5.7-2.1,11.5-2.2c5.8-0.1,5.8,1.9,11.6,1.8"/>
	</g>
	<circle class="st0" cx="70.7" cy="55.2" r="6.2"/>
	<path class="st0" d="M74.2,60.6c0.7,0.8,1.1,1.8,1.3,2.9c0.6,3.4-1.6,6.6-5,7.2c-3.4,0.6-6.6-1.6-7.2-5c-0.4-2.2,0.4-4.3,2-5.7"/>
</g>
</svg>
