<?xml version="1.0" encoding="utf-8"?>
<!-- Generator: Adobe Illustrator 19.2.1, SVG Export Plug-In . SVG Version: 6.00 Build 0)  -->
<svg version="1.0" id="Layer_1" xmlns="http://www.w3.org/2000/svg" xmlns:xlink="http://www.w3.org/1999/xlink" x="0px" y="0px"
	 viewBox="0 0 150 150" style="enable-background:new 0 0 150 150;" xml:space="preserve">
<style type="text/css">
	.st0{fill:none;stroke:#3F3E3E;stroke-width:3;stroke-linecap:round;stroke-linejoin:round;stroke-miterlimit:10;}
	.st1{fill:#3F3E3E;}
	.st2{fill:#FFFFFF;}
	.st3{fill:#3F3D3E;}
	.st4{fill:#FFD83D;}
	.st5{fill:none;stroke:#3F3E3E;stroke-width:3;stroke-linecap:round;stroke-linejoin:round;}
	.st6{fill:none;stroke:#3F3E3E;stroke-width:3;stroke-linecap:round;stroke-linejoin:round;stroke-dasharray:6.7627,6.7627;}
	.st7{fill:none;stroke:#3F3E3E;stroke-width:3;stroke-linecap:round;stroke-linejoin:round;stroke-dasharray:4.828,9.6561;}
	.st8{fill:#FFFFFF;stroke:#3F3E3E;stroke-width:3;stroke-linecap:round;stroke-linejoin:round;stroke-miterlimit:10;}
	.st9{fill:none;stroke:#37383A;stroke-width:3;stroke-linecap:round;stroke-linejoin:round;stroke-miterlimit:10;}
	.st10{fill:none;stroke:#3F3E3E;stroke-width:3;stroke-linecap:round;stroke-linejoin:round;stroke-dasharray:7.2824,7.2824;}
</style>
<g>
	<path class="st0" d="M108.2,68.8v55.9c0,4.5-3.6,8.1-8.1,8.1H51.3c-4.5,0-8.1-3.6-8.1-8.1V91.1"/>
	<path class="st0" d="M43.1,62.1V25.7c0-4.5,3.6-8.1,8.1-8.1H100c4.5,0,8.1,3.6,8.1,8.1v12.5"/>
	<polyline class="st0" points="102.2,69.3 102.2,114.5 49.2,114.5 49.2,93.4 	"/>
	<polyline class="st0" points="49.2,68.8 49.2,32.2 102.2,32.2 102.2,45.8 	"/>
	<line class="st0" x1="62.5" y1="24.9" x2="88.8" y2="24.9"/>
	<circle class="st0" cx="75.7" cy="124.1" r="3.6"/>
	<path class="st0" d="M27.7,57.3c13,0,23.5,8.6,23.5,19.3c0,2.8-0.7,5.5-2.1,7.9l6.6,11.4l-12.6-4.8c-4.1,3-9.5,4.8-15.5,4.8
		c-13,0-23.5-8.6-23.5-19.3S14.7,57.3,27.7,57.3z"/>
	<path class="st0" d="M120.4,46.9c0-2.5,2-4.5,4.5-4.5c2.5,0,4.5,2,4.5,4.5c0,2.5-2,4.5-4.5,4.5V55"/>
	<circle class="st0" cx="124.9" cy="61.1" r="0.7"/>
	<path class="st0" d="M124.3,32.9c-13,0-23.5,8.6-23.5,19.3c0,2.8,0.7,5.5,2.1,7.9l-6.6,11.4l12.6-4.8c4.1,3,9.5,4.8,15.5,4.8
		c13,0,23.5-8.6,23.5-19.3S137.2,32.9,124.3,32.9z"/>
	<polygon class="st0" points="96.2,59.1 55.2,59.1 60.9,54 60.9,42.7 96.2,42.7 	"/>
	<polygon class="st0" points="96.2,104.5 55.2,104.5 60.9,99.5 60.9,88.4 96.2,88.4 	"/>
	<polygon class="st0" points="55.2,82 96.2,82 90.4,76.9 90.4,65.7 55.2,65.7 	"/>
	<line class="st0" x1="66.6" y1="48.2" x2="90.5" y2="48.2"/>
	<line class="st0" x1="66.6" y1="53.3" x2="86.7" y2="53.3"/>
	<line class="st0" x1="66.6" y1="93.8" x2="90.5" y2="93.8"/>
	<line class="st0" x1="66.6" y1="99" x2="78.5" y2="99"/>
	<line class="st0" x1="60.8" y1="71.8" x2="84.7" y2="71.8"/>
	<line class="st0" x1="60.8" y1="77" x2="69.1" y2="77"/>
	<g>
		<circle class="st0" cx="18.3" cy="76.9" r="0.5"/>
		<circle class="st0" cx="27.2" cy="76.9" r="0.5"/>
		<circle class="st0" cx="36" cy="76.9" r="0.5"/>
	</g>
</g>
</svg>
