<svg id="Layer_1" data-name="Layer 1" xmlns="http://www.w3.org/2000/svg" viewBox="0 0 45 45"><title>Artboard 2 copy 14</title><path d="M20.4,33.4V35c-.88-.11-1.7-.22-2.46-.34s-1.54-.27-2.34-.46l-.8-.2v-.2l-2,2.6-1.6-1.2,3.6-4.6V16.8l3-5.2V8.4l11,1.6v2.6l3.6-4.4,1.4,1.2-3.6,4.8L31.8,16v5.2a.23.23,0,0,1-.2-.1.23.23,0,0,0-.2-.1c-.59-.11-1.19-.2-1.82-.28a15.72,15.72,0,0,0-2-.12H24.4l-.7,0a1.65,1.65,0,0,0-.7.18l1.2-1.6L16.8,18V28.4L20.2,24v3l-3.4,4.8v.8l3.4.8ZM16.6,16.2l8,1.4h.2L26.2,14l-7.4-1.2Zm17,11a10,10,0,0,1-.52-.9,3.68,3.68,0,0,0-.68-.9,4,4,0,0,0-1.8-1,13.2,13.2,0,0,0-1.32-.28A9,9,0,0,0,27.8,24H24.6a.51.51,0,0,0-.28.08l-.12.12c-.11.08-.17.15-.18.2a1,1,0,0,0,0,.2V36.2a.38.38,0,0,0,.12.28l.08.12q0,.16.12.18l.28,0h3.8q.77,0,1.44-.06A2.59,2.59,0,0,0,31,36.4a7.74,7.74,0,0,0,.88-.62,3.79,3.79,0,0,0,.72-.78,4.25,4.25,0,0,0,.48-.92c.12-.32.23-.68.34-1.08a7.26,7.26,0,0,1,.1-1.22,8.28,8.28,0,0,0,.1-1.38Zm-3.4,4.6c0,.19,0,.35,0,.5a1.17,1.17,0,0,1-.18.5l-.6.6a1.73,1.73,0,0,0-.58.1,1.87,1.87,0,0,1-.62.1h-.6V26.8H28a1.56,1.56,0,0,1,.68.12l.52.28a2.34,2.34,0,0,1,.6.8,1.73,1.73,0,0,0,.1.58,1.87,1.87,0,0,1,.1.62v1.4A1.94,1.94,0,0,0,30.2,31.8ZM28,16.6l1.4-.6-.4-.6Z"/></svg>