<svg id="Layer_1" data-name="Layer 1" xmlns="http://www.w3.org/2000/svg" viewBox="0 0 45 45"><title>Artboard 2 copy 13</title><path d="M15.63,17.64c-1.44-2.34-2.2-3.56-2.28-3.64q.17.45,3.1,7.5t6.7,15.3a51.08,51.08,0,0,1-8.52-2.52A13.66,13.66,0,0,1,7.15,28a17.43,17.43,0,0,1,.2-13q2.6-6.36,3.2-6.84.43-.12,5.66,1.4A22.29,22.29,0,0,1,26,15.8a26.16,26.16,0,0,0-2.08,2A14.61,14.61,0,0,0,22,20.2a17.16,17.16,0,0,0-1,3,10.77,10.77,0,0,0-.24,3.16Q17.8,21.17,15.63,17.64Zm22.2,1.22a13.28,13.28,0,0,1,.52,9.54,13.48,13.48,0,0,1-6.22,5.44,37.41,37.41,0,0,1-7,2.76q2.52-5.91,4.6-10.44T32,21.4a26.43,26.43,0,0,0-2.74,2.94A42.25,42.25,0,0,0,23.75,33a16.43,16.43,0,0,1-2-5.2,10.68,10.68,0,0,1,.76-6.4,12.66,12.66,0,0,1,7.38-6.14q4.86-1.57,5.42-1.46A28.44,28.44,0,0,1,37.83,18.86Z"/></svg>