<svg id="Layer_1" data-name="Layer 1" xmlns="http://www.w3.org/2000/svg" viewBox="0 0 45 45"><title>Artboard 2 copy 22</title><path d="M20.72,33.5A6.81,6.81,0,0,0,21.8,36l-3-1.68A4.22,4.22,0,0,1,16.6,32.2a.23.23,0,0,0-.1-.2.23.23,0,0,1-.1-.2l-3.8,5-1.6-1L16.2,29a4.27,4.27,0,0,1,.12-1.16l.08-.44.8.4.8-1.2c-.4-.29-.73-.56-1-.8a1.06,1.06,0,0,1-.4-.8,9.45,9.45,0,0,1-.32-3.1c0-1.16.09-1.79.12-1.9l2.2,1.4c.32.19.7.4,1.14.64A5.54,5.54,0,0,1,21,23l.8-1.2c-.88-.59-1.9-1.2-3.06-1.84A5.4,5.4,0,0,1,16.4,17.8a13,13,0,0,1-.16-3.28c.08-1.17.13-1.81.16-1.92l.88.52a8.38,8.38,0,0,0,1.32.68,11.9,11.9,0,0,0,1.48.78A2.83,2.83,0,0,1,21.4,15.8a9.13,9.13,0,0,1,.42,3c0,1.29,0,2.15,0,2.58l.8-1.2c0-.75,0-1.55.06-2.42a6.06,6.06,0,0,1,.34-2,4.06,4.06,0,0,1,1.4-1.22c.51-.25,1-.51,1.42-.76l1.5-.86.88-.56.12.16a.9.9,0,0,1,.08.44l3.8-4.8,1.4,1.2-5.2,6.8a2.67,2.67,0,0,1-.2,1.2,2.6,2.6,0,0,1-.94,1.36,8.18,8.18,0,0,1-1.66,1l-1.4,1.8a10.09,10.09,0,0,0-1,.74,5,5,0,0,0-.82.86,6.38,6.38,0,0,0-1,1.54,13.88,13.88,0,0,0-.64,1.86,3.47,3.47,0,0,0-.2.62c-.05.23-.12.49-.2.78a.53.53,0,0,1-.32-.12l-.48-.28-.8,1.2.72.32a6.37,6.37,0,0,1,.88.48v.8A14.33,14.33,0,0,0,20.72,33.5Zm.36-19.4a9.5,9.5,0,0,0-1.48-.7,5.17,5.17,0,0,1,.12-1c.08-.39.17-.78.28-1.18a4.41,4.41,0,0,1,1.6-1.86,6.88,6.88,0,0,1,1-.54,5.78,5.78,0,0,1,.9.54A4.73,4.73,0,0,1,25,11.2c.11.4.2.79.28,1.18a5.17,5.17,0,0,1,.12,1,15,15,0,0,0-1.38.7,3.21,3.21,0,0,0-1.22,1.3.23.23,0,0,1-.1.2.23.23,0,0,0-.1.2,1,1,0,0,0,0-.2s-.07-.12-.18-.2A4.17,4.17,0,0,0,21.08,14.1ZM33.62,35.18c.07,0,.19,0,.38.22V30.2c-.08-.11-.15-.17-.2-.18l-.2,0h-4a.51.51,0,0,0-.28.08l-.12.12c-.11.08-.17.15-.18.2a1,1,0,0,0,0,.2v2.2h1.8v1.6l-.12.08a.38.38,0,0,1-.28.12H30a1.37,1.37,0,0,1-.58-.12A1.47,1.47,0,0,1,29,34.2l-.3-.5-.3-.5a1.87,1.87,0,0,0-.1-.62,1.73,1.73,0,0,1-.1-.58,2.67,2.67,0,0,1-.2-1.2c0-.29,0-.58,0-.86a1.72,1.72,0,0,1,.18-.74,1.37,1.37,0,0,1,.12-.58,1.47,1.47,0,0,1,.28-.42,1.31,1.31,0,0,1,.3-.38l.3-.24a.68.68,0,0,1,.4-.16l.4,0a2.68,2.68,0,0,1,.78.1,2.1,2.1,0,0,0,.62.1,1.14,1.14,0,0,1,.52.12l.48.28,0,.08c0,.08.05.12.16.12l.12,0c.05,0,.08-.05.08-.16l1-2a1,1,0,0,0,0-.2c0-.05-.07-.12-.18-.2a2.34,2.34,0,0,0-.8-.6,1.68,1.68,0,0,0-.34-.2L32,24.6a1.15,1.15,0,0,1-.5-.1,1.15,1.15,0,0,0-.5-.1,1.17,1.17,0,0,0-.5-.18l-.5,0c-.51,0-1,0-1.36.06a2.29,2.29,0,0,0-1,.34l-.88.52a2.43,2.43,0,0,0-.72.68,7.92,7.92,0,0,0-.58.92A5.28,5.28,0,0,0,25,27.8c-.11.4-.2.81-.28,1.22a7.24,7.24,0,0,0-.12,1.38,10.1,10.1,0,0,0,.3,2.6,6.51,6.51,0,0,0,.9,2,4,4,0,0,0,1.52,1.18,5.46,5.46,0,0,0,2.28.42,5.76,5.76,0,0,0,1.8-.2,1.91,1.91,0,0,0,.8-.16,6,6,0,0,0,.8-.44l.2-.2.2-.2A.75.75,0,0,1,33.62,35.18Z"/></svg>