<svg id="Layer_1" data-name="Layer 1" xmlns="http://www.w3.org/2000/svg" viewBox="0 0 45 45"><title>Artboard 2 copy 21</title><path d="M5.8,31.64A2,2,0,0,1,5,32a4.14,4.14,0,0,1-2,.76c-.32,0-.46-.11-.44-.16-.13-.32,0-.66.44-1A5.25,5.25,0,0,1,3.82,31a10.12,10.12,0,0,1,1.72-.92c.54-.21,1-.37,1.28-.48a.66.66,0,0,0-.06.46,1.06,1.06,0,0,1,.06.34v.2l.2.2C6.6,31.12,6.19,31.4,5.8,31.64Zm1.82,2H8c-.32.4-.6.73-.84,1l-.36.4c-.58.75-1,1.15-1.24,1.2s-.36,0-.36,0c-.16-.13-.14-.39,0-.76a4.51,4.51,0,0,1,.36-.64,5.06,5.06,0,0,1,1-1.12c.34-.27.61-.49.82-.68A.84.84,0,0,0,7.62,33.6ZM8,22.28c-.14.43-.15.67,0,.72a6.55,6.55,0,0,1-1.3-4.76,13.16,13.16,0,0,1,.5-2.64,3.25,3.25,0,0,1,.66-1c.42-.49.93-.17,1.54,1A13.55,13.55,0,0,1,10,17.48l.24,1.12a4,4,0,0,1-.08,1.64,3.38,3.38,0,0,1-.52,1.16h-.2C8.65,21.56,8.19,21.85,8,22.28Zm1.44,8.66a.69.69,0,0,0,.34.46,5.14,5.14,0,0,1-1.14-.46,2.72,2.72,0,0,1-.86-.74.75.75,0,0,1,0-.32q0-.28.42-.48a7.56,7.56,0,0,0,1.2.4v.4A3.88,3.88,0,0,0,9.48,30.94ZM9.4,14.3a1.2,1.2,0,0,0-1.18-.5h-.4a7.68,7.68,0,0,1,.64-1.74A11.38,11.38,0,0,1,9.82,10c.3-.4.6-.77.9-1.12a2.37,2.37,0,0,1,.9-.68,6.29,6.29,0,0,0-1.16,2.38,1.47,1.47,0,0,0,.38,1.6,1.71,1.71,0,0,0,1.78-.08A7.7,7.7,0,0,0,15,10.2a4.75,4.75,0,0,1-.58,1.48,6.47,6.47,0,0,1-1,1.32,10.19,10.19,0,0,1-1.62,1.6,6,6,0,0,1-1.78,1l-.08,0c-.08,0-.12-.05-.12-.16A1.9,1.9,0,0,0,9.4,14.3ZM9.22,32.8a2.12,2.12,0,0,1,.6.8,8.31,8.31,0,0,1-1-.06A1.49,1.49,0,0,1,8,33.2,1,1,0,0,1,8,32.88a.54.54,0,0,1,.26-.48l.28-.12a2.86,2.86,0,0,1,.72-.08Zm3.6-7.8s.07,0,.12.08,0,.23-.32.52q0,.07-.3.36c-.2.19-.5.2-.9,0a7.86,7.86,0,0,1-1.24-.62,3.35,3.35,0,0,1-1.56-2,1.87,1.87,0,0,1-.06-.46,1.05,1.05,0,0,1,.26-.74.23.23,0,0,0,.2-.1.3.3,0,0,1,.2-.12.71.71,0,0,1,.4.16,5.88,5.88,0,0,1,1,1.06Zm6.6,10.6H14A4.58,4.58,0,0,1,9.82,33Q8.62,30.52,11,27.8l3.6-4A4.27,4.27,0,0,1,16,22.52a5.06,5.06,0,0,1,1.4-.52h1.2a3.13,3.13,0,0,1,1.8.6.53.53,0,0,1-.12.32L20,23.4a9.38,9.38,0,0,0-.6,3.4,7.18,7.18,0,0,0,.28,2,11.88,11.88,0,0,0,.72,1.82l0,.12a.43.43,0,0,1-.16.28.23.23,0,0,1-.1.2.26.26,0,0,0-.1.2l-.6,2.4a2.81,2.81,0,0,0-.2,1.2A2.22,2.22,0,0,0,19.42,35.6ZM14.72,20a1.1,1.1,0,0,1,.9-.36,1.19,1.19,0,1,1-1.2,1.2A1.27,1.27,0,0,1,14.72,20Zm5.52,1.62a4.84,4.84,0,0,1-.62-.58,1.23,1.23,0,0,1,1.2-1.2,1.22,1.22,0,0,1,1.2,1,6.69,6.69,0,0,0-.5.58A6.48,6.48,0,0,1,21,22,3.23,3.23,0,0,1,20.24,21.58Zm4.46-7A15.08,15.08,0,0,1,22.82,13a8.8,8.8,0,0,1-1-1.48l-.64-1.32a7.93,7.93,0,0,0,2.4,1.9c.78.36,1.37.39,1.78.08s.54-.84.38-1.6A6.14,6.14,0,0,0,24.62,8.2a5.51,5.51,0,0,1,2,1.8A7.53,7.53,0,0,1,28,11.9a6.87,6.87,0,0,1,.64,1.9h-.4a1.43,1.43,0,0,0-1.1.66,4.65,4.65,0,0,0-.5.94l-.08,0c-.08,0-.12.05-.12.16A9.57,9.57,0,0,1,24.7,14.6Zm7.66,17A2.13,2.13,0,0,0,32,30.8a1.14,1.14,0,0,0-.12-.52l-.28-.48a.6.6,0,0,0-.24-.48L31,29a2.25,2.25,0,0,0-.8-.6.56.56,0,0,1-.32-.12L29.42,28a1,1,0,0,1-.48-.12l-.52-.28A4.08,4.08,0,0,1,27.2,27a1.06,1.06,0,0,1-.38-.58c0-.08,0-.11-.06-.1s0,0,.06-.1a1.14,1.14,0,0,0,.42-.1,1.57,1.57,0,0,1,.58-.1l.4,0a.58.58,0,0,1,.4.18l.4,0a.66.66,0,0,1,.4.16,1.18,1.18,0,0,0,.4.22,1.25,1.25,0,0,1,.4.2c.22,0,.42.24.6.8H31l.12,0c.06,0,.08,0,.08-.16L32,25c.08-.08.1-.15.06-.2a.32.32,0,0,1-.06-.2l0,0-.16-.16a1.45,1.45,0,0,0-.34-.2L31,24c-.18-.08-.35-.15-.5-.2l-.5-.2a1.77,1.77,0,0,1-.58-.1,1.83,1.83,0,0,0-.62-.1,3,3,0,0,0-1.2-.22l-1.08,0a2.89,2.89,0,0,0-.92.18,5.45,5.45,0,0,0-1,.34,2.42,2.42,0,0,0-.64.46,5.89,5.89,0,0,0-1,1.2,4.79,4.79,0,0,0-.28.74,3.13,3.13,0,0,0-.12.86,7.78,7.78,0,0,0,.06,1,1.37,1.37,0,0,0,.34.74c.19.2.36.4.52.6a3.51,3.51,0,0,0,.68.62.51.51,0,0,1,.32.12l.48.28a.51.51,0,0,1,.32.12l.48.28a6.91,6.91,0,0,1,.68.28l.52.32a3.11,3.11,0,0,0,.3.2,1.74,1.74,0,0,1,.3.2.23.23,0,0,1,.2.12l.2.28a.72.72,0,0,1,.2.58,1,1,0,0,1-.4.62.69.69,0,0,0-.34.1.9.9,0,0,1-.46.1.69.69,0,0,1-.34-.1.9.9,0,0,0-.46-.1l-.34,0a1.19,1.19,0,0,1-.46-.18,1.45,1.45,0,0,0-.34-.2l-.46-.2a1,1,0,0,1-.4-.12,1.5,1.5,0,0,1-.4-.28l-.2,0c-.05,0-.12.07-.2.18l-.6,2.4v.2l0,0,.16.16a.51.51,0,0,1,.32.12l.48.28a6.31,6.31,0,0,0,.62.2,3.6,3.6,0,0,1,.58.2,1.83,1.83,0,0,1,.62.1,1.77,1.77,0,0,0,.58.1,2.64,2.64,0,0,0,.68.18l.52,0a4.46,4.46,0,0,0,1.08-.12,8.24,8.24,0,0,0,.92-.28,5.45,5.45,0,0,0,1-.34A2.7,2.7,0,0,0,31,35.4a4.75,4.75,0,0,0,.56-.62A2.66,2.66,0,0,0,32,34a5.42,5.42,0,0,0,.4-1.8A3.59,3.59,0,0,0,32.36,31.58Zm-5.2-12.76a1.76,1.76,0,0,0-.74.18v-.4l.24-1.2a9.9,9.9,0,0,1,.56-1.8c.54-1.15,1-1.47,1.48-1a2.81,2.81,0,0,1,.72,1,7.43,7.43,0,0,1,.3,1A9.87,9.87,0,0,1,30,19h-.6a1.28,1.28,0,0,0-.62-.18l-.78,0Zm15.26,5v-.4q0-.16-.12-.18l-.28,0h-7.6a.54.54,0,0,0-.28.08L34,23.4a.16.16,0,0,0-.18.12,2.16,2.16,0,0,0,0,.28V36.2a.38.38,0,0,0,.12.28l.08.12q0,.16.12.18l.28,0H37a.38.38,0,0,0,.28-.12l.12-.08q.16,0,.18-.12a1.19,1.19,0,0,0,0-.28V31.4h3a.38.38,0,0,0,.28-.12L41,31.2q.16,0,.18-.12a1.19,1.19,0,0,0,0-.28V28.6a1.19,1.19,0,0,0,0-.28q0-.12-.18-.12c-.08-.11-.14-.17-.2-.18l-.2,0h-3V25.8h4.2l.12,0c.06,0,.08-.05.08-.16Z"/></svg>