<?xml version="1.0" encoding="utf-8"?>
<!-- Generator: Adobe Illustrator 22.1.0, SVG Export Plug-In . SVG Version: 6.00 Build 0)  -->
<svg version="1.1" id="Layer_1" xmlns="http://www.w3.org/2000/svg" xmlns:xlink="http://www.w3.org/1999/xlink" x="0px" y="0px"
	 viewBox="0 0 24 24" style="enable-background:new 0 0 24 24;" xml:space="preserve">
<style type="text/css">
	.st0{fill:#FFFFFF;stroke:#000000;stroke-width:2;stroke-linecap:round;stroke-linejoin:round;}
	.st1{fill:none;stroke:#000000;stroke-width:2;stroke-linecap:round;stroke-linejoin:round;}
	.st2{display:none;fill:#FDD749;}
	.st3{fill:none;stroke:#000000;stroke-width:2;stroke-linecap:round;stroke-miterlimit:10;}
	.st4{fill:none;stroke:#000000;stroke-width:2;stroke-miterlimit:10;}
	.st5{fill:none;stroke:#000000;stroke-width:2;stroke-linecap:round;stroke-linejoin:round;stroke-miterlimit:10;}
	.st6{fill:none;stroke:#0F0F0F;stroke-width:2;stroke-linecap:round;stroke-linejoin:round;}
	.st7{fill:none;stroke:#000000;stroke-width:2;stroke-linejoin:round;}
	.st8{fill:none;stroke:#000000;stroke-width:2.0112;stroke-linecap:round;stroke-linejoin:round;}
	.st9{fill:none;stroke:#000000;stroke-width:2.3562;stroke-linecap:round;stroke-linejoin:round;}
</style>
<path class="st1" d="M23,19c0,1.1-0.9,2-2,2H3c-1.1,0-2-0.9-2-2V8c0-1.1,0.9-2,2-2h3.1c0.5,0,1-0.3,1.3-0.7L8.3,4
	c0.4-0.6,1.1-1,1.9-1h3.6c0.8,0,1.5,0.4,1.9,1l0.9,1.3C16.8,5.7,17.3,6,17.9,6H21c1.1,0,2,0.9,2,2V19z"/>
<circle class="st1" cx="12" cy="13" r="4"/>
</svg>
