<?xml version="1.0" encoding="utf-8"?>
<!-- Generator: Adobe Illustrator 22.1.0, SVG Export Plug-In . SVG Version: 6.00 Build 0)  -->
<svg version="1.1" id="Layer_1" xmlns="http://www.w3.org/2000/svg" xmlns:xlink="http://www.w3.org/1999/xlink" x="0px" y="0px"
	 viewBox="0 0 24 24" style="enable-background:new 0 0 24 24;" xml:space="preserve">
<style type="text/css">
	.st0{fill:#FFFFFF;stroke:#000000;stroke-width:2;stroke-linecap:round;stroke-linejoin:round;}
	.st1{fill:none;stroke:#000000;stroke-width:2;stroke-linecap:round;stroke-linejoin:round;}
	.st2{display:none;fill:#FDD749;}
	.st3{fill:none;stroke:#000000;stroke-width:2;stroke-linecap:round;stroke-miterlimit:10;}
	.st4{fill:none;stroke:#000000;stroke-width:2;stroke-miterlimit:10;}
	.st5{fill:none;stroke:#000000;stroke-width:2;stroke-linecap:round;stroke-linejoin:round;stroke-miterlimit:10;}
	.st6{fill:none;stroke:#0F0F0F;stroke-width:2;stroke-linecap:round;stroke-linejoin:round;}
	.st7{fill:none;stroke:#000000;stroke-width:2;stroke-linejoin:round;}
	.st8{fill:none;stroke:#000000;stroke-width:2.0112;stroke-linecap:round;stroke-linejoin:round;}
	.st9{fill:none;stroke:#000000;stroke-width:2.3562;stroke-linecap:round;stroke-linejoin:round;}
</style>
<line class="st1" x1="6.3" y1="18.7" x2="6.3" y2="18.7"/>
<line class="st1" x1="3.7" y1="21.7" x2="3.7" y2="21.7"/>
<line class="st1" x1="12.3" y1="18.7" x2="12.3" y2="18.7"/>
<line class="st1" x1="9.7" y1="21.7" x2="9.7" y2="21.7"/>
<line class="st1" x1="18.3" y1="18.7" x2="18.3" y2="18.7"/>
<line class="st1" x1="15.7" y1="21.7" x2="15.7" y2="21.7"/>
<path class="st1" d="M17.9,15c2.4,0,4.3-1.9,4.3-4.3c0-2.1-1.5-3.8-3.5-4.2c0,0,0-0.1,0-0.1c0-2.4-1.9-4.3-4.3-4.3
	c-1.5,0-2.9,0.8-3.7,2c-0.9-0.6-2-0.9-3.2-0.9C4.3,3.1,1.6,5.7,1.6,9c0,3.3,2.7,5.9,5.9,5.9H17.9z"/>
</svg>
