<svg id="Layer_1" data-name="Layer 1" xmlns="http://www.w3.org/2000/svg" viewBox="0 0 40 40"><title>Artboard 2 copy 10</title><path d="M27.88,34.18a3.49,3.49,0,0,1-.76.37c-1.1.18-2.2.38-3.31.48s-2.47.19-3.7.19-2.71-.07-4.06-.19c-1.15-.1-2.29-.31-3.42-.49a2.68,2.68,0,0,1-.64-.31c.1-.66.61-.88,1.07-1.07,1.5-.65,3-1.31,4.54-1.86A1.17,1.17,0,0,0,18.5,30c0-1.72-.05-3.44,0-5.16a1.41,1.41,0,0,0-.95-1.56,11.91,11.91,0,0,1-4-2.84A11.26,11.26,0,0,1,10.5,13c-.13-2.7.94-5.06,2-7.45a1.1,1.1,0,0,1,.93-.66,4.57,4.57,0,0,1,.83,0c3.92,0,7.84,0,11.76,0a1.45,1.45,0,0,1,1.55,1,19,19,0,0,1,2,7,2.41,2.41,0,0,1,0,.6c-.6,3.29-1.6,6.37-4.51,8.42l-3.55,2.51a4,4,0,0,0-.07.62c0,1.8,0,3.6,0,5.4,0,.64.14,1,.82,1.23,1.25.39,2.49.86,3.7,1.37C26.58,33.18,27.41,33.33,27.88,34.18Zm-.67-20.1c.43-2.4-.36-4.39-1.28-6.36a.82.82,0,0,0-.87-.48H21.83c-2.36,0-4.71,0-7.07,0a1.12,1.12,0,0,0-1.25.84c-.27.8-.61,1.56-.84,2.37a9.14,9.14,0,0,0-.11,3.65Z"/></svg>