<svg id="Layer_1" data-name="Layer 1" xmlns="http://www.w3.org/2000/svg" viewBox="0 0 40 40"><title>Artboard 2 copy</title><path d="M9.64,34.79,8,33.49l4.58-5.94c-.38-1-.78-1.95-1.1-2.93a14.62,14.62,0,0,1-.78-4.82c0-.85.13-1,1-1H12c2.31-.07,4.62-.18,6.93-.21.76,0,1-.44,1.34-1.09a5.07,5.07,0,0,0-.72-.13c-2.28,0-4.56,0-6.84,0-.78,0-1.57.33-2.34,0a5.73,5.73,0,0,1-1.45-.82,2.1,2.1,0,0,1-.78-2.35,2.75,2.75,0,0,1,2.57-1.85c1.52,0,3,0,4.56,0h2.16a2.45,2.45,0,0,0-.25-2.2,5.17,5.17,0,0,0-.67-1A7.8,7.8,0,0,1,16,8.29a1.87,1.87,0,0,1,.32-2.4,2,2,0,0,1,2.74,0,8.33,8.33,0,0,1,2.41,4.2c.15.65.22,1.32.34,2a7.64,7.64,0,0,0,2.61.08,1.64,1.64,0,0,0,.94-.64c1.37-1.76,2.7-3.55,4.06-5.32.26-.35.56-.66.92-1.07L32,6.3l-4.39,5.83c.46.07.75.13,1,.15a2.88,2.88,0,0,1,1.93.83A2.09,2.09,0,0,1,31,15.84a3.54,3.54,0,0,1-3.37,1.59c-1.31-.11-2.64-.08-3.95-.08-.63,0-.86.48-1.12,1.08,2.12.29,4.21.23,6.18.51.48,1,.05,1.79,0,2.6a21.85,21.85,0,0,1-1.24,5.33,11.22,11.22,0,0,1-4.16,5.27c-.81.58-1.68,1.08-2.48,1.67a1.34,1.34,0,0,1-1.55.06A15.52,15.52,0,0,1,14.4,30l-.4-.47C12.31,31.1,11.2,33.1,9.64,34.79Z"/></svg>