<svg id="Layer_1" data-name="Layer 1" xmlns="http://www.w3.org/2000/svg" viewBox="0 0 40 40"><title>Artboard 2 copy 2</title><path d="M5.8,26.88a3.85,3.85,0,0,0,.91,0c3.35-.92,5.91-2.73,7.05-6.19a8,8,0,0,0,.6-3.84c-.19-1.25.65-2.08,1.39-3a4.55,4.55,0,0,1,.31-3.33,1.56,1.56,0,0,0,.07-.91,6.36,6.36,0,0,0-.65-2.39c-.41-.59-1.28-.85-2.07-1.32l.53-.77a8,8,0,0,1,4,3.38,16.2,16.2,0,0,1,1.88-.29,20,20,0,0,1,2,.14c1.12-1.13,2.09-2.68,4-3.16l.4.59a1.1,1.1,0,0,1-.13.25.51.51,0,0,1-.2.12c-1.61.41-2.17,1.61-2.32,3.09a2.23,2.23,0,0,0,.1,1A5.92,5.92,0,0,1,24.1,14c1.26.89,1.4,2.28,1.57,3.75.51,4.23,2.79,7.86,7.49,9.08,1,.27,1.27.05,1.37-1a13.34,13.34,0,0,0-.68-6.1A8.32,8.32,0,0,0,29.25,15a9.81,9.81,0,0,0-4.09-.78V12.23a4.86,4.86,0,0,1,3.2.14,10.32,10.32,0,0,1,7.92,8,10.28,10.28,0,0,1,.24,4.14,24,24,0,0,1-.5,3.66c-.32.95-.28,1-1.31,1a10.71,10.71,0,0,1-6.34-2.21c-.54-.4-1.05-.84-1.66-1.32-.12.37-.26.69-.33,1a8.72,8.72,0,0,1-4.63,6.21c-.6.32-.67.85-.88,1.35s-.71.9-1.17.64a1.35,1.35,0,0,1-.55-.73,2.08,2.08,0,0,0-1.34-1.35,7.31,7.31,0,0,1-3.66-3.94c-.4-.93-.64-1.94-1-3a5.65,5.65,0,0,0-.64.49,12.62,12.62,0,0,1-6.9,3.06,4.7,4.7,0,0,1-.84,0A.72.72,0,0,1,4,28.69,14.18,14.18,0,0,1,5.72,16.43a9.31,9.31,0,0,1,6.71-4.18A7,7,0,0,1,15,12.14v1.93c-.79.12-1.62.21-2.42.37a8.16,8.16,0,0,0-5.7,4.18A10.39,10.39,0,0,0,5.7,25.9C5.75,26.17,5.76,26.45,5.8,26.88ZM16,23.59c0,.49,0,.84,0,1.18s.28.62.68.7a25.49,25.49,0,0,0,5.59.22,4.22,4.22,0,0,0,1-.23,1.06,1.06,0,0,0,.78-1.17,5.09,5.09,0,0,0-.3-.91A21.16,21.16,0,0,1,16,23.59ZM17,27.7c.51,1.63,1.09,2.09,2.56,2.11h.84c1.6,0,2.14-.4,2.75-2A30.86,30.86,0,0,1,17,27.7Zm6.5-6.39c-.14-.55-.31-.86-.82-.85H17.51c-.5,0-.81.25-1,.86A13.24,13.24,0,0,0,23.46,21.31Z"/></svg>