<svg id="Layer_1" data-name="Layer 1" xmlns="http://www.w3.org/2000/svg" viewBox="0 0 40 40"><title>Artboard 2 copy 7</title><path d="M38.64,11,39,12.16l-1.92.91c.39.36.68.61.94.89a1.37,1.37,0,0,1-.21,2.16,1.46,1.46,0,0,1-2.28-.31,9.45,9.45,0,0,1-.43-1.05,18.19,18.19,0,0,1-1,7,.89.89,0,0,0,.25,1c1.14,1,.94,2.1.39,3.33s-1,2.53-1.42,3.81-.51,1.36-1.87,1.29c-.16,0-.31-.05-.59-.1a8.85,8.85,0,0,1,0-1c.14-1.15.25-2.3.47-3.43a1.48,1.48,0,0,0-.41-1.41c-.27-.29-.52-.59-.84-1-3.92,1.38-8,1-12.1.84.22,2,.43,4.08.67,6.28-.79,0-1.45.06-2.11,0s-.69-.6-.82-1c-.51-1.72-1-3.45-1.48-5.18a2.06,2.06,0,0,0-.1-.25c-.91-.05-1.78-.07-2.63-.16A6.55,6.55,0,0,1,7,22.35,1.43,1.43,0,0,0,5.8,21.8c-1,0-1.92,0-2.88,0-.35,0-.7,0-1.11-.07-.27-1.26-.54-2.45-.77-3.66a1.28,1.28,0,0,1,1.48-1.29c.28,0,.5.16.76-.07,1-.88,2-1.74,2.93-2.6C4.67,12,4.45,10.86,5.3,9.25l1.85,1.42c-.07-.68-.37-1.3.12-2,.71.26,1.46.48,2.17.8a9,9,0,0,0,3.94.78c6-.05,12,0,18,0a2.17,2.17,0,0,1,2.22,1c.27.49.61.93.91,1.4.39.63.69.69,1.16.11A5,5,0,0,1,38.08,11,3.24,3.24,0,0,1,38.64,11Z"/><path d="M30,30.62H27.43a7,7,0,0,1,.07-.86c.27-1.28.56-2.56.85-3.83a1.07,1.07,0,0,1,1-.93,1.7,1.7,0,0,1,1.16,1.07,3.38,3.38,0,0,1,0,.84C30.38,28.12,30.2,29.33,30,30.62Z"/><path d="M15.07,30.59H12.58c-.32-1.68-.65-3.34-1-5a3.89,3.89,0,0,1,2-.14C14.1,27.07,14.56,28.73,15.07,30.59Z"/></svg>