<svg id="Layer_1" data-name="Layer 1" xmlns="http://www.w3.org/2000/svg" viewBox="0 0 40 40"><title>Artboard 2 copy 9</title><path d="M32.15,6.38c-1.27,1.64-2.43,3.2-3.68,4.7A1.44,1.44,0,0,0,28.26,13a15.75,15.75,0,0,1,1.5,4c-.54-.49-1-.93-1.5-1.36a1.46,1.46,0,0,0-2.38,0c-1.3,1.29-2.59,2.58-3.87,3.89a8.11,8.11,0,0,0-.69,1,7.41,7.41,0,0,0,.59.68,1.41,1.41,0,0,0,2.22,0c.71-.64,1.36-1.35,2.05-2,.28-.27.57-.53.93-.86,1.16,1.14,2.28,2.22,3.36,3.33a.94.94,0,0,1,.21.66c-.05,2.89-.34,5.75-2.08,8.21a8.56,8.56,0,0,1-6.9,3.72,11.83,11.83,0,0,1-3.8-.34,8.32,8.32,0,0,1-4.61-3.27l-3.75,4.3L7.85,33.63,12,28.3a16.73,16.73,0,0,1-.55-9.23,6.7,6.7,0,0,1,.69.48c.55.52,1.07,1.09,1.63,1.6s.95.61,1.7.15a5.56,5.56,0,0,0,.93-.75l2.38-2.38.82.57,1.54-1.82a5.65,5.65,0,0,0-1.57-1.62c-.66-.49-1.23-.41-1.93.23s-1.21,1.17-1.79,1.78c-.32.35-.59.75-.88,1.12A6.38,6.38,0,0,1,12.55,16c-.14-.22,0-.7.13-1a22.59,22.59,0,0,1,3.24-6,12.82,12.82,0,0,1,1.57-1.8c2.31-2.14,4.47-2.15,6.76,0C25.09,8,25.79,9,26.66,9.94l3.8-4.83Z"/></svg>