<svg id="Layer_1" data-name="Layer 1" xmlns="http://www.w3.org/2000/svg" viewBox="0 0 40 40"><title>Artboard 2 copy 6</title><path d="M30.22,5,32,6.21c-1,1.26-1.85,2.43-2.75,3.59-.69.88-1.41,1.73-2.09,2.62a3.23,3.23,0,0,0-.81,1.69,3.2,3.2,0,0,1-1.88,2.6,6.72,6.72,0,0,0-2.62,3L26,17.37a10.31,10.31,0,0,1,.12,5,1.73,1.73,0,0,1-.46.81,7.69,7.69,0,0,1-1.45,1.23c-1.18.72-2.41,1.36-3.84,2.15a23.71,23.71,0,0,1,.3-5.54c-1,.8-1.46,1.55-1.11,2.75a5.19,5.19,0,0,1-.09,2.75c-.45-.22-.83-.39-1.19-.6-1.05-.62-1.08-.61-2,.57l1,.58a3.71,3.71,0,0,1,2.1,3.48c0,1.2,0,2.39,0,3.81-2.19-1.27-4.45-2.1-5.91-4.27-1.52,1.45-2.48,3.32-4,4.85L8,33.82c.11-.9.81-1.4,1.25-2,1.17-1.62,2.42-3.17,3.58-4.79a12.5,12.5,0,0,0,.9-1.83,2,2,0,0,0,.68-.31,2.68,2.68,0,0,0,.45-.76c-.06-.14-.08-.25-.13-.28-1.36-.88-1.53-2.25-1.48-3.67,0-.9.21-1.8.35-2.87L18.41,20l.81-.94a11.61,11.61,0,0,0-2.58-1.72c-.63-.42-1.29-.8-1.89-1.26a3.44,3.44,0,0,1-1.29-2.84c0-1.15,0-2.3,0-3.41.21-.06.3-.12.35-.1,1.36.76,2.74,1.48,4.06,2.29s1.46,2.38,1.56,3.81c.06.83,0,1.67,0,2.66A1.75,1.75,0,0,0,20.39,17c0-.68,0-1.36,0-2a3.22,3.22,0,0,1,2-3.13,17.43,17.43,0,0,0,1.87-1.08,4.53,4.53,0,0,1,1-.59c1.37-.3,2.05-1.34,2.8-2.36S29.47,6,30.22,5Z"/><path d="M26.07,25.15a9.48,9.48,0,0,1,.09,4.52A3.23,3.23,0,0,1,25.52,31a8.26,8.26,0,0,1-1.76,1.41c-1.05.65-2.15,1.2-3.32,1.85a2.25,2.25,0,0,1-.23-.74c.06-1.38.13-2.77.26-4.16a2.24,2.24,0,0,1,1.1-1.76C23,26.77,24.55,26,26.07,25.15Z"/><path d="M20,12.79c-.62-1.34-1.81-1.82-2.8-2.49A4.58,4.58,0,0,1,19.6,5.74a.91.91,0,0,1,.89,0A5.28,5.28,0,0,1,23,9.64a.83.83,0,0,1-.59,1A5.4,5.4,0,0,0,20,12.79Z"/></svg>