<?xml version="1.0" encoding="utf-8"?>
<!-- Generator: Adobe Illustrator 22.1.0, SVG Export Plug-In . SVG Version: 6.00 Build 0)  -->
<svg version="1.1" id="Layer_1" xmlns="http://www.w3.org/2000/svg" xmlns:xlink="http://www.w3.org/1999/xlink" x="0px" y="0px"
	 viewBox="0 0 24 24" style="enable-background:new 0 0 24 24;" xml:space="preserve">
<style type="text/css">
	.st0{fill:#FFFFFF;stroke:#000000;stroke-width:2;stroke-linecap:round;stroke-linejoin:round;}
	.st1{fill:none;stroke:#000000;stroke-width:2;stroke-linecap:round;stroke-linejoin:round;}
	.st2{display:none;fill:#FDD749;}
	.st3{fill:none;stroke:#000000;stroke-width:2;stroke-linecap:round;stroke-miterlimit:10;}
	.st4{fill:none;stroke:#000000;stroke-width:2;stroke-miterlimit:10;}
	.st5{fill:none;stroke:#000000;stroke-width:2;stroke-linecap:round;stroke-linejoin:round;stroke-miterlimit:10;}
	.st6{fill:none;stroke:#0F0F0F;stroke-width:2;stroke-linecap:round;stroke-linejoin:round;}
	.st7{fill:none;stroke:#000000;stroke-width:2;stroke-linejoin:round;}
	.st8{fill:none;stroke:#000000;stroke-width:2.0112;stroke-linecap:round;stroke-linejoin:round;}
	.st9{fill:none;stroke:#000000;stroke-width:2.3562;stroke-linecap:round;stroke-linejoin:round;}
</style>
<path class="st1" d="M3,6h14c1.1,0,2,0.9,2,2v8c0,1.1-0.9,2-2,2H3c-1.1,0-2-0.9-2-2V8C1,6.9,1.9,6,3,6z"/>
<path class="st1" d="M19.8,9.6c1.3,0,2.4,1.1,2.4,2.4s-1.1,2.4-2.4,2.4"/>
<g>
	<rect x="10.5" y="8.3" width="2.6" height="7.3"/>
	<rect x="6.9" y="8.3" width="2.6" height="7.3"/>
	<path d="M5.9,8.3H3.7c-0.2,0-0.4,0.2-0.4,0.4v6.6c0,0.2,0.2,0.4,0.4,0.4h2.2V8.3z"/>
	<path d="M16.3,8.3h-2.2v7.3h2.2c0.2,0,0.4-0.2,0.4-0.4V8.7C16.7,8.5,16.5,8.3,16.3,8.3z"/>
</g>
</svg>
